{"glyphs":{"0":{"ha":836,"x_min":25,"x_max":808,"o":"m 417 1043 l 417 1043 q 588 998 515 1043 q 710 878 661 953 q 784 710 760 804 q 808 517 808 615 q 784 325 808 419 q 710 156 760 231 q 588 37 661 82 q 417 -8 515 -8 l 417 -8 q 246 37 319 -8 q 123 156 172 82 q 49 325 74 231 q 25 517 25 419 q 49 710 25 615 q 123 878 74 804 q 246 998 172 953 q 417 1043 319 1043 z m 454 71 l 454 71 q 531 110 499 72 q 582 211 563 149 q 609 353 601 274 q 614 517 617 433 q 599 679 611 600 q 565 820 586 758 q 515 919 544 882 q 450 957 486 957 l 450 957 q 385 919 414 957 q 335 817 356 881 q 302 674 314 754 q 289 512 290 594 q 296 349 288 429 q 324 208 304 269 q 377 108 344 146 q 454 71 410 69 z "},"1":{"ha":467,"x_min":0,"x_max":435,"o":"m 435 0 l 0 0 l 0 122 l 113 113 l 113 821 q 100 872 113 857 q 73 893 88 888 q 47 901 58 899 q 36 913 35 903 l 36 913 q 47 945 42 942 q 60 950 51 949 l 60 950 q 194 989 136 964 q 289 1031 253 1014 l 289 1031 q 315 1029 304 1039 q 325 1008 325 1019 l 325 1008 l 325 111 l 435 122 l 435 0 z "},"2":{"ha":764,"x_min":-6,"x_max":754,"o":"m 249 190 l 249 190 q 355 303 311 231 q 425 460 399 375 q 459 635 451 546 q 456 796 467 724 q 417 914 446 868 q 343 960 389 960 l 343 960 q 286 934 307 960 q 256 869 265 908 q 247 781 247 829 q 253 686 247 732 q 267 603 258 640 q 282 547 275 565 l 282 547 q 260 515 289 526 q 192 504 232 504 l 192 504 q 147 508 169 504 q 105 519 124 511 q 74 538 86 526 q 60 567 61 550 l 60 567 q 69 802 47 708 q 137 951 90 896 q 253 1030 183 1007 q 407 1053 322 1053 l 407 1053 q 570 998 508 1053 q 658 857 632 943 q 675 666 683 771 q 628 460 667 561 q 523 276 590 360 q 363 150 456 193 l 363 150 q 426 133 396 139 q 485 128 457 128 l 485 128 q 574 147 531 128 q 665 213 617 167 l 665 213 q 685 221 674 221 l 685 221 q 718 203 701 221 q 744 160 735 186 q 753 102 754 133 q 735 44 753 71 q 678 1 717 18 q 575 -17 640 -17 l 575 -17 q 461 -5 526 -17 q 310 35 396 7 l 310 35 q 230 9 274 19 q 142 -1 186 -1 l 142 -1 q 52 19 86 -1 q 6 70 18 40 q 4 131 -6 100 q 44 184 14 163 q 126 210 75 206 q 249 190 178 215 z "},"3":{"ha":739,"x_min":14,"x_max":708,"o":"m 340 1035 l 340 1035 q 468 1025 407 1038 q 574 981 529 1013 q 645 899 619 950 q 667 771 671 847 l 667 771 q 649 688 665 725 q 610 622 633 651 q 556 572 586 593 q 493 536 525 551 l 493 536 q 568 523 531 535 q 636 485 606 511 q 686 415 667 458 q 707 304 706 371 l 707 304 q 620 86 708 168 q 350 1 532 4 l 350 1 q 214 18 276 0 q 108 81 151 36 q 44 201 64 125 q 38 394 25 278 l 38 394 q 67 417 39 410 q 131 425 96 425 l 131 425 q 197 417 167 425 q 222 389 226 408 l 222 389 q 208 278 211 335 q 219 174 206 221 q 264 99 232 128 q 353 71 296 69 l 353 71 q 475 139 436 74 q 511 308 514 204 l 511 308 q 494 411 511 374 q 454 467 478 449 q 403 490 431 486 q 353 495 376 494 q 313 497 329 496 q 296 508 296 497 l 296 508 l 292 558 q 303 569 292 568 q 334 572 315 569 q 376 581 353 574 q 419 610 399 589 q 453 672 439 632 q 471 779 468 711 l 471 779 q 445 908 474 857 q 336 965 417 960 l 336 965 q 247 940 278 969 q 205 863 217 910 q 194 763 193 817 q 197 663 194 708 l 197 663 q 188 644 199 650 q 158 638 176 638 l 158 638 q 119 644 140 638 q 77 661 97 650 q 42 690 57 672 q 22 729 26 707 l 22 729 q 25 819 14 768 q 73 918 36 871 q 175 999 110 965 q 340 1035 240 1032 z "},"4":{"ha":867,"x_min":-1,"x_max":865,"o":"m 17 265 l 17 265 q 154 388 99 331 q 247 500 210 444 q 308 610 285 556 q 344 726 331 665 q 368 853 358 786 q 390 1000 378 921 l 390 1000 q 403 1019 392 1011 q 431 1033 414 1028 q 468 1042 447 1039 q 510 1044 489 1044 l 510 1044 q 588 1033 553 1044 q 622 999 622 1022 l 622 999 q 599 847 622 932 q 524 669 576 761 q 388 485 472 578 q 182 311 304 393 l 182 311 q 278 328 235 322 q 364 335 322 333 q 450 335 406 336 q 546 333 494 335 l 546 333 q 545 401 544 361 q 549 479 546 440 q 558 548 553 518 q 571 586 563 578 l 571 586 q 606 602 582 597 q 658 607 631 607 l 658 607 q 709 600 686 607 q 731 578 732 593 l 731 578 l 722 324 l 819 308 q 852 285 840 304 q 865 247 864 267 q 854 210 865 226 q 818 194 843 194 l 818 194 l 722 207 l 722 15 q 703 -10 722 -1 q 656 -19 683 -19 l 656 -19 q 614 -15 635 -19 q 576 1 593 -10 q 548 26 558 11 q 538 63 538 42 l 538 63 l 539 228 q 441 237 489 235 q 347 239 393 239 l 347 239 q 188 231 267 239 q 24 204 110 222 l 24 204 q 6 209 13 203 q -1 226 0 215 q 3 247 -1 236 q 17 265 8 258 z "},"5":{"ha":717,"x_min":19,"x_max":699,"o":"m 32 394 l 32 394 q 63 417 35 410 q 125 425 92 425 l 125 425 q 191 417 161 425 q 217 389 221 408 l 217 389 q 205 282 206 339 q 217 177 204 225 q 258 98 229 129 q 335 68 288 67 l 335 68 q 415 112 381 69 q 468 218 450 154 q 485 357 486 282 q 458 497 485 432 q 378 607 432 561 q 238 657 325 653 l 238 657 q 215 655 229 657 q 184 651 200 653 q 153 646 168 649 q 128 642 139 643 l 128 642 q 103 647 115 640 q 83 663 92 653 q 69 687 75 674 q 64 710 64 700 l 64 710 l 64 1018 q 112 1019 94 1018 q 143 1021 129 1021 q 172 1018 157 1021 q 211 1007 186 1015 l 211 1007 q 294 988 250 996 q 386 981 339 981 l 386 981 q 509 998 449 981 q 614 1057 569 1015 l 614 1057 q 631 1065 622 1065 l 631 1065 q 649 1049 642 1065 q 653 1010 656 1033 q 639 958 651 986 q 601 906 626 929 q 534 866 575 882 q 432 850 493 850 l 432 850 q 317 864 382 850 q 171 910 253 878 l 171 910 l 171 744 q 264 772 218 764 q 353 781 310 781 l 353 781 q 481 759 421 781 q 585 694 540 738 q 659 588 631 651 q 693 440 688 524 l 693 440 q 680 285 699 363 q 618 144 661 207 q 507 42 575 82 q 344 1 439 3 l 344 1 q 209 18 272 0 q 103 81 146 36 q 40 201 60 125 q 32 394 19 278 z "},"6":{"ha":786,"x_min":18,"x_max":757,"o":"m 417 1040 l 417 1040 q 549 1016 489 1040 q 650 948 610 992 q 708 845 690 904 q 710 717 725 786 l 710 717 q 691 701 707 706 q 651 697 675 697 l 651 697 q 611 700 632 697 q 573 708 590 703 q 544 721 556 714 q 533 736 533 728 l 533 736 q 537 803 535 764 q 532 880 539 843 q 505 943 525 917 q 443 969 485 969 l 443 969 q 379 944 406 969 q 336 879 353 919 q 310 790 319 839 q 297 693 301 740 q 292 604 293 646 q 292 539 292 563 l 292 539 q 360 578 322 563 q 440 596 397 593 l 440 596 q 579 577 519 600 q 678 513 639 554 q 738 418 718 472 q 755 307 757 364 q 730 194 753 250 q 662 95 707 139 q 549 24 617 51 q 392 -3 482 -3 l 392 -3 q 247 24 310 -3 q 139 98 183 51 q 69 206 94 144 q 38 336 44 268 l 38 336 q 44 656 18 522 q 126 874 71 789 q 259 1000 182 960 q 417 1040 336 1040 z m 439 90 l 439 90 q 530 124 493 90 q 585 207 567 157 q 605 315 604 257 q 588 421 606 372 q 535 501 571 469 q 446 529 500 532 l 446 529 q 373 508 401 526 q 328 463 344 490 q 305 399 311 435 q 299 326 299 364 l 299 326 q 306 240 299 283 q 331 164 314 197 q 376 110 349 131 q 439 90 403 90 z "},"7":{"ha":851,"x_min":-1,"x_max":831,"o":"m 47 1013 l 47 1013 q 251 990 143 999 q 471 982 360 982 l 471 982 q 647 989 561 982 q 807 1013 732 996 l 807 1013 q 831 1000 831 1013 q 814 972 831 988 l 814 972 q 645 778 719 890 q 520 540 571 667 q 443 281 469 414 q 417 22 417 147 l 417 22 q 394 -6 417 3 q 339 -15 371 -15 l 339 -15 q 293 -11 317 -15 q 251 1 269 -7 q 220 22 232 10 q 208 49 208 33 l 208 49 q 211 147 208 90 q 227 273 214 204 q 265 419 240 342 q 335 576 290 496 q 449 739 381 657 q 614 899 517 821 l 614 899 q 506 867 556 878 q 410 857 457 857 l 410 857 q 295 872 351 857 q 169 917 239 886 l 169 917 q 174 886 172 908 q 178 836 176 864 q 182 777 181 808 q 185 721 183 746 l 185 721 q 164 678 186 692 q 113 665 142 665 l 113 665 q 46 680 78 665 q 8 718 14 694 l 8 718 q 0 801 1 750 q 3 899 -1 851 q 19 981 8 947 q 47 1013 31 1015 z "},"8":{"ha":776,"x_min":19,"x_max":757,"o":"m 181 525 l 181 525 q 120 562 149 542 q 69 609 92 582 q 35 671 47 636 q 22 749 22 706 l 22 749 q 38 849 22 797 q 95 942 54 900 q 206 1010 136 983 q 383 1036 276 1036 l 383 1036 q 553 1001 489 1036 q 651 914 618 967 q 689 799 685 861 q 676 685 693 738 q 627 597 660 632 q 553 560 594 561 l 553 560 q 625 520 589 543 q 690 467 661 497 q 738 397 719 436 q 757 306 757 357 l 757 306 q 735 191 757 246 q 665 93 713 136 q 544 24 618 50 q 364 -1 469 -1 l 364 -1 q 233 18 296 -1 q 124 74 171 38 q 48 165 76 111 q 19 290 19 219 l 19 290 q 35 372 19 332 q 74 443 50 411 q 126 497 97 475 q 181 525 154 519 z m 146 272 l 146 272 q 164 185 146 222 q 213 124 182 149 q 283 86 243 99 q 365 74 322 74 l 365 74 q 451 94 413 74 q 512 149 489 115 q 541 224 535 182 q 530 309 547 267 q 469 390 513 351 q 350 457 425 429 l 350 457 l 254 492 q 233 455 250 475 q 196 409 215 435 q 161 350 176 383 q 146 272 146 317 z m 490 588 l 490 588 l 499 582 l 499 586 q 524 620 506 590 q 557 692 542 650 q 579 783 572 735 q 571 872 586 831 q 513 940 556 913 q 386 968 469 968 l 386 968 q 315 958 350 968 q 253 926 281 947 q 208 870 225 904 q 192 790 192 836 l 192 790 q 219 715 192 744 q 291 664 247 685 q 388 626 335 643 q 490 588 440 608 z "},"9":{"ha":769,"x_min":18,"x_max":757,"o":"m 382 1040 l 382 1040 q 528 1014 465 1040 q 635 941 592 988 q 705 833 679 894 q 738 703 731 772 l 738 703 q 731 383 757 517 q 649 165 704 250 q 517 38 593 79 q 358 -3 440 -3 l 358 -3 q 226 22 286 -3 q 125 90 165 47 q 68 193 85 133 q 65 321 51 253 l 65 321 q 84 337 68 332 q 124 342 100 342 l 124 342 q 164 338 143 342 q 202 330 185 335 q 230 317 219 325 q 240 301 240 310 l 240 301 q 238 234 239 274 q 243 158 236 194 q 270 95 250 121 q 332 69 290 69 l 332 69 q 396 94 369 69 q 439 159 422 119 q 465 248 456 199 q 478 345 474 297 q 482 435 482 393 q 482 500 482 476 l 482 500 q 415 460 453 476 q 335 442 376 444 l 335 442 q 195 460 256 438 q 95 524 135 483 q 37 619 56 565 q 19 731 18 674 q 44 843 21 788 q 113 942 68 899 q 225 1013 158 986 q 382 1040 292 1040 z m 328 510 l 328 510 q 402 531 374 513 q 447 576 431 549 q 470 639 464 604 q 476 711 476 674 l 476 711 q 468 799 476 756 q 442 875 460 842 q 399 928 425 908 q 336 949 372 949 l 336 949 q 245 915 282 949 q 190 831 208 881 q 170 723 171 781 q 187 617 169 665 q 240 537 204 568 q 328 510 275 506 z "},"×":{"ha":694,"x_min":null,"x_max":null,"o":""},"Þ":{"ha":694,"x_min":null,"x_max":null,"o":""},"ð":{"ha":694,"x_min":null,"x_max":null,"o":""},"―":{"ha":694,"x_min":null,"x_max":null,"o":""},"‖":{"ha":694,"x_min":null,"x_max":null,"o":""},"‗":{"ha":694,"x_min":null,"x_max":null,"o":""},"‛":{"ha":694,"x_min":null,"x_max":null,"o":""},"\u0000":{"ha":0,"x_min":null,"x_max":null,"o":""},"\r":{"ha":347,"x_min":null,"x_max":null,"o":""}," ":{"ha":347,"x_min":null,"x_max":null,"o":""},"r":{"ha":694,"x_min":-61,"x_max":767,"o":"m -56 668 l -56 668 q -18 725 -43 706 q 35 744 7 744 l 35 744 q 91 718 67 744 q 115 638 115 692 l 115 638 q 181 648 146 638 q 251 673 215 658 q 319 701 286 688 q 382 724 353 715 l 382 724 q 415 728 399 728 l 415 728 q 450 718 435 728 q 472 689 465 708 l 472 689 q 479 610 481 664 q 476 490 478 556 q 472 354 474 424 q 477 228 471 285 q 501 138 483 172 q 556 106 519 103 l 556 106 q 603 136 582 107 q 643 206 625 165 q 674 290 661 246 q 697 364 688 333 l 697 364 q 722 378 701 378 l 722 378 q 752 367 738 378 q 761 338 767 357 l 761 338 q 728 228 746 283 q 683 128 710 174 q 621 53 657 83 q 532 18 585 24 l 532 18 q 407 27 457 7 q 326 88 357 47 q 280 186 294 129 q 260 303 265 243 q 255 424 254 364 q 257 532 256 485 l 257 532 q 226 535 244 533 q 186 540 207 538 q 144 544 165 542 q 107 550 124 547 l 107 550 q 95 447 104 494 q 68 339 86 399 l 68 339 q 42 325 64 325 l 42 325 q 10 335 25 325 q 1 364 -4 344 l 1 364 q 11 403 4 374 q 23 466 18 433 q 29 525 28 499 q 21 551 31 551 l 21 551 q -13 563 3 551 q -41 592 -29 575 q -57 630 -53 610 q -56 668 -61 650 z "},"a":{"ha":883,"x_min":-6,"x_max":957,"o":"m 306 728 l 306 728 q 349 720 325 728 q 394 699 372 713 q 435 669 417 686 q 461 632 453 651 l 461 632 q 451 610 467 619 q 419 601 436 601 l 419 601 q 394 613 400 601 l 394 613 q 370 638 388 628 q 333 647 353 647 l 333 647 q 270 605 294 646 q 233 502 246 564 q 219 369 221 440 q 225 237 218 297 q 247 135 232 176 q 279 96 261 94 l 279 96 q 319 122 300 97 q 356 187 339 147 q 387 276 372 226 q 413 374 401 325 q 433 465 425 422 q 446 536 442 508 l 446 536 l 446 551 q 457 573 446 564 q 485 589 468 582 q 522 599 501 596 q 564 603 543 603 l 564 603 q 628 591 600 603 q 656 551 657 579 l 656 551 q 652 472 654 519 q 651 372 650 424 q 656 269 651 319 q 669 177 660 218 q 697 113 679 136 q 740 90 714 89 l 740 90 q 789 124 767 93 q 830 198 811 156 q 863 287 849 240 q 886 364 878 333 l 886 364 q 911 378 890 378 l 911 378 q 942 367 926 378 q 950 338 957 357 l 950 338 q 914 217 933 278 q 865 109 894 157 q 788 31 835 61 q 671 0 742 0 l 671 0 q 582 19 619 0 q 519 69 544 38 q 478 142 493 100 q 456 231 464 183 l 456 231 q 419 144 440 185 q 372 72 399 103 q 312 21 346 40 q 236 0 278 1 l 236 0 q 122 28 169 -3 q 46 113 75 60 q 6 235 17 167 q 1 374 -6 303 q 29 513 7 446 q 90 631 51 581 q 182 708 128 681 q 306 728 236 736 z "},"b":{"ha":817,"x_min":-78,"x_max":889,"o":"m -76 988 l -76 988 q -72 1011 -74 1003 q -67 1023 -69 1019 q -60 1027 -64 1026 q -53 1029 -57 1028 l -53 1029 q 83 1071 25 1044 q 176 1117 140 1097 l 176 1117 q 202 1115 192 1125 q 213 1093 213 1104 l 213 1093 l 213 519 q 248 599 228 561 q 294 665 268 636 q 353 711 321 693 q 425 731 385 729 l 425 731 q 523 710 481 733 q 594 647 565 688 q 640 553 624 607 q 660 440 657 500 q 656 319 664 381 q 626 204 647 258 l 626 204 q 740 238 689 203 q 819 364 792 272 l 819 364 q 844 378 824 378 l 844 378 q 874 367 860 378 q 883 338 889 357 l 883 338 q 838 236 865 276 q 774 173 810 196 q 692 141 738 150 q 593 132 646 132 l 593 132 q 547 77 575 103 q 486 31 519 51 q 417 0 453 11 q 350 -11 382 -11 l 350 -11 q 283 9 311 -11 q 249 74 256 29 l 249 74 q 256 141 242 114 q 296 183 269 168 q 355 205 322 199 q 418 211 388 211 l 418 211 q 433 343 429 269 q 434 481 438 417 q 417 590 431 546 q 381 633 404 635 l 381 633 q 340 606 360 632 q 302 538 319 579 q 270 445 285 496 q 244 344 256 394 q 224 251 232 294 q 213 183 217 208 l 213 183 l 213 47 q 179 3 213 17 q 106 -11 146 -11 l 106 -11 q 33 2 65 -11 q 0 40 0 15 l 0 40 l 0 890 q -12 946 0 929 q -40 969 -25 963 q -66 976 -54 975 q -76 988 -78 978 z m 318 93 l 318 93 q 332 81 318 81 l 332 81 q 365 95 349 81 q 390 125 382 110 l 390 125 q 397 140 396 132 l 397 140 q 373 138 388 140 q 346 131 358 136 q 325 117 333 125 q 318 93 317 108 z "},"c":{"ha":586,"x_min":-6,"x_max":660,"o":"m 276 731 l 276 731 q 408 708 356 738 q 486 627 461 678 q 508 513 511 576 q 475 392 506 450 l 475 392 q 450 372 468 378 q 408 367 432 367 l 408 367 q 369 371 389 367 q 335 383 349 375 q 315 403 321 392 q 318 429 310 415 l 318 429 q 344 490 332 453 q 363 562 357 526 q 363 622 368 597 q 333 647 357 647 l 333 647 q 274 604 299 647 q 234 498 249 561 q 217 361 219 435 q 225 225 214 288 q 263 121 236 163 q 331 79 289 79 l 331 79 q 413 106 372 79 q 488 175 454 133 q 549 267 522 217 q 589 364 575 317 l 589 364 q 614 378 593 378 l 614 378 q 644 367 629 378 q 653 338 660 357 l 653 338 q 599 204 632 267 q 519 94 567 142 q 409 19 472 47 q 264 -8 346 -8 l 264 -8 q 137 22 189 -8 q 52 103 85 53 q 7 217 19 153 q -1 349 -6 282 q 24 483 3 417 q 81 601 44 549 q 166 690 117 654 q 276 731 215 725 z "},"d":{"ha":865,"x_min":-6,"x_max":938,"o":"m 306 728 l 306 728 q 363 715 332 728 q 419 682 393 703 l 419 682 l 419 890 q 407 946 419 929 q 380 969 394 963 q 353 976 365 975 q 343 988 342 978 l 343 988 q 348 1011 346 1003 q 353 1023 350 1019 q 359 1027 356 1026 q 367 1029 363 1028 l 367 1029 q 501 1071 443 1044 q 596 1117 560 1097 l 596 1117 q 622 1115 611 1125 q 632 1093 632 1104 l 632 1093 l 632 619 q 632 539 632 589 q 634 431 632 489 q 641 314 636 372 q 656 208 646 256 q 684 132 667 161 q 726 106 701 103 l 726 106 q 774 136 753 107 q 814 206 796 165 q 845 290 832 246 q 868 364 858 333 l 868 364 q 893 378 872 378 l 893 378 q 923 367 908 378 q 932 338 938 357 l 932 338 q 899 228 917 283 q 854 128 881 174 q 792 53 828 83 q 703 18 756 24 l 703 18 q 606 22 647 10 q 533 62 564 35 q 483 129 503 89 q 450 217 463 169 l 450 217 q 414 135 435 174 q 367 67 393 96 q 309 19 342 38 q 236 0 276 1 l 236 0 q 122 28 169 -3 q 46 113 75 60 q 6 235 17 167 q 1 374 -6 303 q 29 513 7 446 q 90 631 51 581 q 182 708 128 681 q 306 728 236 736 z m 279 96 l 279 96 q 322 124 301 97 q 362 191 343 150 q 397 283 381 232 q 424 383 413 333 l 424 383 q 420 483 421 435 q 419 575 419 532 l 419 575 q 406 607 415 593 q 383 630 396 621 q 356 643 369 639 q 333 647 343 647 l 333 647 q 270 605 294 646 q 233 502 246 564 q 219 369 221 440 q 225 237 218 297 q 247 135 232 176 q 279 96 261 94 z "},"e":{"ha":588,"x_min":-7,"x_max":661,"o":"m 286 731 l 286 731 q 399 699 356 731 q 458 621 442 668 q 468 517 475 574 q 431 408 461 460 q 347 318 400 357 q 221 267 294 279 l 221 267 q 234 194 225 228 q 256 134 243 160 q 288 94 269 108 q 332 79 307 79 l 332 79 q 415 106 375 79 q 490 175 456 133 q 551 267 525 217 q 590 364 576 317 l 590 364 q 615 378 594 378 l 615 378 q 646 367 631 378 q 656 338 661 357 l 656 338 q 602 204 635 267 q 522 94 569 142 q 412 19 475 47 q 267 -8 349 -8 l 267 -8 q 106 47 167 -8 q 19 183 44 101 q 0 361 -7 265 q 42 539 7 457 q 140 676 78 621 q 286 731 203 731 z m 218 339 l 218 339 q 286 374 258 347 q 331 435 314 400 q 357 507 349 469 q 365 576 365 544 q 356 627 364 607 q 335 647 349 647 l 335 647 q 287 619 308 647 q 250 548 265 592 q 226 449 235 504 q 218 339 218 394 z "},"f":{"ha":393,"x_min":-107,"x_max":400,"o":"m -71 715 l -71 715 q -40 716 -51 717 q -12 714 -29 715 l -12 714 l -12 890 q -25 946 -12 929 q -52 969 -37 963 q -78 976 -67 975 q -89 988 -90 978 l -89 988 q -84 1011 -86 1003 q -79 1023 -82 1019 q -73 1027 -76 1026 q -65 1029 -69 1028 l -65 1029 q 70 1071 13 1044 q 164 1117 128 1097 l 164 1117 q 190 1115 179 1125 q 200 1093 200 1104 l 200 1093 l 200 717 q 294 718 249 718 q 371 718 339 718 l 371 718 q 392 707 385 718 q 400 682 400 696 q 392 657 400 668 q 368 646 385 646 l 368 646 l 200 646 l 200 636 q 307 507 269 582 q 358 364 344 432 l 358 364 q 365 228 374 293 q 333 113 357 163 q 274 33 310 63 q 197 1 239 3 l 197 1 q 108 35 144 -1 q 48 129 71 71 q 13 261 25 188 q -6 407 0 335 q -12 542 -11 479 q -12 642 -12 604 l -12 642 q -39 644 -28 644 q -68 644 -50 644 l -68 644 q -90 655 -81 644 q -103 678 -100 665 q -100 703 -107 692 q -71 715 -93 714 z m 257 139 l 257 139 q 278 183 271 139 q 282 291 286 228 q 259 422 278 354 q 200 538 240 490 l 200 538 q 201 492 200 526 q 203 413 201 457 q 209 321 206 369 q 219 232 213 272 q 235 165 225 192 q 257 139 244 139 z "},"g":{"ha":722,"x_min":-6,"x_max":796,"o":"m 306 728 l 306 728 q 349 720 325 728 q 394 699 372 713 q 435 669 417 686 q 461 632 453 651 l 461 632 q 451 610 467 619 q 419 601 436 601 l 419 601 q 394 613 400 601 l 394 613 q 370 638 388 628 q 333 647 353 647 l 333 647 q 270 605 294 646 q 233 502 246 564 q 219 369 221 440 q 225 237 218 297 q 247 135 232 176 q 279 96 261 94 l 279 96 q 321 125 301 97 q 358 195 340 153 q 391 290 376 238 q 418 392 406 342 l 418 392 q 415 477 417 438 q 411 546 414 517 l 411 546 q 422 556 411 550 q 451 565 433 561 q 489 572 468 569 q 529 575 510 575 l 529 575 q 567 570 551 575 q 585 554 583 565 l 585 554 q 590 468 588 517 q 594 363 593 419 q 596 245 596 307 q 592 119 596 183 l 592 119 q 678 231 651 171 q 725 364 706 292 l 725 364 q 750 378 729 378 l 750 378 q 781 367 765 378 q 790 338 796 357 l 790 338 q 760 243 775 286 q 722 163 744 200 q 667 92 700 125 q 585 25 635 58 l 585 25 q 573 -88 579 -32 q 556 -197 567 -144 q 531 -294 546 -249 q 492 -378 515 -340 l 492 -378 q 401 -468 453 -439 q 294 -500 349 -497 l 294 -500 q 180 -479 228 -503 q 108 -414 132 -456 q 87 -318 85 -372 q 122 -206 89 -264 q 223 -92 156 -149 q 394 8 290 -36 l 394 8 q 400 64 397 36 q 406 119 403 92 l 406 119 q 335 35 376 68 q 236 0 293 3 l 236 0 q 122 28 169 -3 q 46 113 75 60 q 6 235 17 167 q 1 374 -6 303 q 29 513 7 446 q 90 631 51 581 q 182 708 128 681 q 306 728 236 736 z m 222 -410 l 222 -410 q 264 -390 244 -410 q 300 -338 283 -369 q 331 -269 317 -307 q 354 -194 344 -231 q 371 -125 364 -157 q 382 -75 378 -93 l 382 -75 q 232 -174 285 -117 q 164 -285 179 -232 q 165 -374 149 -337 q 222 -410 182 -411 z "},"h":{"ha":867,"x_min":-78,"x_max":940,"o":"m -76 988 l -76 988 q -72 1011 -74 1003 q -67 1023 -69 1019 q -60 1027 -64 1026 q -53 1029 -57 1028 l -53 1029 q 82 1071 24 1044 q 176 1117 140 1097 l 176 1117 q 202 1115 192 1125 q 213 1093 213 1104 l 213 1093 l 213 519 q 248 599 228 561 q 294 665 268 636 q 353 711 321 693 q 425 731 385 729 l 425 731 q 543 708 499 733 q 611 638 588 682 q 642 536 635 593 q 651 419 650 479 q 650 301 651 358 q 653 199 649 243 q 675 128 658 154 q 728 106 692 103 l 728 106 q 776 136 754 107 q 815 206 797 165 q 847 290 833 246 q 869 364 860 333 l 869 364 q 894 378 874 378 l 894 378 q 925 367 910 378 q 933 338 940 357 l 933 338 q 900 228 918 283 q 856 128 882 174 q 793 53 829 83 q 704 18 757 24 l 704 18 q 578 27 628 7 q 497 89 528 47 q 453 187 467 131 q 434 304 439 243 q 428 424 429 365 q 425 531 428 483 q 413 606 422 578 q 381 633 404 635 l 381 633 q 340 606 360 632 q 302 538 319 579 q 270 445 285 496 q 244 344 256 394 q 224 251 232 294 q 213 183 217 208 l 213 183 l 213 47 q 179 3 213 17 q 106 -11 146 -11 l 106 -11 q 33 2 65 -11 q 0 40 0 15 l 0 40 l 0 890 q -12 946 0 929 q -40 969 -25 963 q -66 976 -54 975 q -76 988 -78 978 z "},"i":{"ha":410,"x_min":-83,"x_max":482,"o":"m -82 526 l -82 526 q -77 550 -79 542 q -72 562 -75 558 q -66 566 -69 565 q -58 567 -62 567 l -58 567 q 70 609 18 582 q 158 656 122 636 l 158 656 q 185 653 174 664 q 196 632 196 643 l 196 632 q 193 556 196 606 q 189 447 190 506 q 189 326 188 388 q 199 214 190 264 q 224 133 207 164 q 271 106 242 103 l 271 106 q 319 136 297 107 q 358 206 340 165 q 390 290 376 246 q 413 364 403 333 l 413 364 q 438 378 417 378 l 438 378 q 467 367 453 378 q 476 338 482 357 l 476 338 q 443 228 461 283 q 399 128 425 174 q 336 53 372 83 q 247 18 300 24 l 247 18 q 193 14 218 14 l 193 14 q 101 34 136 14 q 45 89 65 54 q 17 168 25 124 q 5 260 8 213 q 0 358 1 308 q -7 449 -1 407 l -7 449 q -24 490 -11 478 q -50 508 -36 503 q -74 515 -64 513 q -82 526 -83 518 z m 83 922 l 83 922 q 176 892 138 922 q 214 819 214 861 l 214 819 q 176 747 214 776 q 83 717 138 717 l 83 717 q -10 747 28 717 q -49 819 -49 776 l -49 819 q -10 892 -49 861 q 83 922 28 922 z "},"j":{"ha":317,"x_min":-321,"x_max":390,"o":"m -12 8 l -12 8 q 1 226 1 108 q -4 449 0 344 l -4 449 q -18 490 -6 478 q -44 508 -31 503 q -69 516 -58 514 q -79 526 -81 518 l -79 526 q -74 550 -76 542 q -69 562 -72 558 q -63 566 -67 565 q -56 567 -60 567 l -56 567 q 76 609 21 582 q 167 656 131 636 l 167 656 q 192 653 182 664 q 203 632 203 643 l 203 632 q 198 376 203 499 q 185 119 193 253 l 185 119 q 236 173 215 144 q 272 231 257 201 q 299 294 288 261 q 319 364 310 328 l 319 364 q 344 378 324 378 l 344 378 q 375 367 360 378 q 383 338 390 357 l 383 338 q 353 243 369 286 q 315 163 338 200 q 260 92 293 125 q 178 25 228 58 l 178 25 q 166 -88 172 -32 q 150 -197 160 -144 q 125 -294 140 -249 q 86 -378 110 -340 l 86 -378 q -6 -468 47 -439 q -111 -500 -58 -497 l -111 -500 q -226 -479 -178 -503 q -297 -414 -274 -456 q -319 -318 -321 -372 q -283 -206 -317 -264 q -183 -92 -250 -149 q -12 8 -117 -36 z m -185 -410 l -185 -410 q -142 -390 -162 -410 q -106 -338 -122 -369 q -76 -269 -89 -307 q -52 -194 -62 -231 q -35 -125 -42 -157 q -25 -75 -28 -93 l -25 -75 q -135 -138 -90 -103 q -206 -211 -179 -174 q -242 -285 -232 -249 q -249 -349 -253 -321 q -228 -394 -244 -378 q -185 -410 -211 -411 z m 69 922 l 69 922 q 163 892 125 922 q 201 819 201 861 l 201 819 q 163 747 201 776 q 69 717 125 717 l 69 717 q -23 747 15 717 q -61 819 -61 776 l -61 819 q -23 892 -61 861 q 69 922 15 922 z "},"k":{"ha":713,"x_min":-78,"x_max":786,"o":"m -76 988 l -76 988 q -72 1011 -74 1003 q -67 1023 -69 1019 q -60 1027 -64 1026 q -53 1029 -57 1028 l -53 1029 q 82 1071 24 1044 q 176 1117 140 1097 l 176 1117 q 202 1115 192 1125 q 213 1093 213 1104 l 213 1093 l 213 407 q 258 538 232 474 q 322 651 285 603 q 413 725 360 700 q 538 739 465 750 l 538 739 q 602 702 581 732 q 626 631 624 672 q 613 541 629 589 q 564 450 597 493 q 481 374 531 407 q 369 329 432 340 l 369 329 q 385 260 375 299 q 411 190 394 222 q 454 135 428 157 q 519 117 481 114 l 519 117 q 600 144 568 121 q 654 203 632 168 q 690 281 676 239 q 715 364 704 324 l 715 364 q 740 378 719 378 l 740 378 q 771 367 756 378 q 781 338 786 357 l 781 338 q 744 229 767 288 q 688 121 721 171 q 609 37 654 71 q 503 1 564 3 l 503 1 q 404 15 449 0 q 324 56 360 31 q 263 116 289 82 q 219 185 238 150 l 219 185 q 216 172 217 178 q 213 163 215 167 l 213 163 l 213 47 q 179 3 213 17 q 106 -11 146 -11 l 106 -11 q 33 2 65 -11 q 0 40 0 15 l 0 40 l 0 890 q -12 946 0 929 q -40 969 -25 963 q -66 976 -54 975 q -76 988 -78 978 z m 281 401 l 281 401 q 324 437 300 408 q 367 501 347 465 q 400 574 386 538 q 415 633 414 611 l 415 633 q 338 533 371 597 q 281 401 304 469 z "},"l":{"ha":439,"x_min":-7,"x_max":513,"o":"m -7 615 l -7 615 q -6 715 -7 660 q 0 826 -6 769 q 18 938 6 883 q 54 1034 31 992 q 115 1102 78 1076 q 206 1128 151 1128 l 206 1128 q 310 1083 272 1128 q 363 967 347 1038 q 372 810 378 896 q 345 641 367 724 q 288 489 324 558 q 210 383 253 419 l 210 383 q 219 280 213 331 q 235 190 225 229 q 262 127 246 150 q 300 106 278 104 l 300 106 q 349 136 326 107 q 388 206 371 165 q 419 290 406 246 q 442 364 433 333 l 442 364 q 467 378 446 378 l 467 378 q 497 367 482 378 q 506 338 513 357 l 506 338 q 472 228 490 283 q 428 128 454 174 q 365 53 401 83 q 276 18 329 24 l 276 18 q 151 32 201 7 q 70 106 101 57 q 23 220 39 154 q 0 356 7 286 q -7 494 -7 425 q -7 615 -7 563 z m 207 479 l 207 479 q 249 563 231 510 q 278 677 267 615 q 292 802 289 739 q 292 917 296 865 q 277 1000 289 968 q 246 1031 265 1032 l 246 1031 q 224 998 232 1031 q 210 914 215 965 q 204 799 206 863 q 203 674 203 736 q 205 560 204 613 q 207 479 206 508 z "},"m":{"ha":1297,"x_min":-78,"x_max":1369,"o":"m -76 647 l -76 647 q -66 669 -71 667 q -53 674 -61 672 l -53 674 q 82 701 24 683 q 176 732 140 719 l 176 732 q 202 731 192 738 q 213 715 213 724 l 213 715 l 213 519 q 248 599 228 561 q 294 665 268 636 q 353 711 321 693 q 425 731 385 729 l 425 731 q 522 717 483 733 q 586 673 561 701 q 625 605 611 644 q 644 521 639 565 l 644 521 q 680 600 660 563 q 726 666 700 638 q 784 712 751 694 q 856 731 817 729 l 856 731 q 974 707 929 733 q 1042 635 1018 681 q 1075 531 1067 590 q 1085 410 1083 472 q 1085 290 1086 349 q 1090 185 1085 231 q 1113 113 1096 140 q 1167 89 1131 86 l 1167 89 q 1213 123 1193 92 q 1250 197 1233 154 q 1278 287 1267 240 q 1300 364 1290 333 l 1300 364 q 1325 378 1304 378 l 1325 378 q 1355 367 1340 378 q 1364 338 1369 357 l 1364 338 q 1331 218 1347 278 q 1287 110 1314 158 q 1216 31 1260 63 q 1100 -1 1172 0 l 1100 -1 q 990 24 1033 -3 q 922 96 947 51 q 883 198 896 140 q 866 315 871 256 q 860 433 861 375 q 856 535 860 490 q 842 608 851 581 q 811 633 833 635 l 811 633 q 758 588 783 632 q 713 481 733 543 q 676 349 692 418 q 651 231 660 281 l 651 231 q 649 124 650 176 q 647 28 647 72 l 647 28 q 614 -1 647 8 q 540 -11 581 -11 l 540 -11 q 467 -2 500 -11 q 435 22 435 7 l 435 22 q 435 63 435 26 q 436 153 436 99 q 436 272 436 207 q 435 401 436 338 l 435 401 q 432 493 433 450 q 426 567 431 536 q 410 617 421 599 q 381 633 400 635 l 381 633 q 340 606 360 632 q 302 538 319 579 q 270 445 285 496 q 244 344 256 394 q 224 251 232 294 q 213 183 217 208 l 213 183 l 213 28 q 179 -1 213 8 q 106 -11 146 -11 l 106 -11 q 33 -2 65 -11 q 0 22 0 7 l 0 22 l 0 582 q -12 618 0 607 q -40 633 -25 629 q -66 639 -54 638 q -76 647 -78 640 z "},"n":{"ha":857,"x_min":-78,"x_max":931,"o":"m -76 647 l -76 647 q -66 669 -71 667 q -53 674 -61 672 l -53 674 q 82 701 24 683 q 176 732 140 719 l 176 732 q 202 731 192 738 q 213 715 213 724 l 213 715 l 213 543 q 293 673 244 619 q 415 731 342 726 l 415 731 q 534 707 489 733 q 603 635 579 681 q 635 531 626 590 q 646 410 644 472 q 647 290 647 349 q 651 185 646 231 q 674 113 657 140 q 728 89 690 86 l 728 89 q 774 123 753 92 q 810 197 794 154 q 839 287 826 240 q 860 364 851 333 l 860 364 q 885 378 864 378 l 885 378 q 915 367 900 378 q 925 338 931 357 l 925 338 q 892 218 908 278 q 847 110 875 158 q 776 31 819 63 q 661 -1 732 0 l 661 -1 q 551 24 594 -3 q 483 96 508 51 q 444 198 457 140 q 427 315 432 256 q 422 433 422 375 q 417 535 421 490 q 403 608 413 581 q 372 633 394 635 l 372 633 q 319 589 344 632 q 274 484 294 546 q 238 354 253 422 q 213 236 222 286 l 213 236 l 213 28 q 179 -1 213 8 q 106 -11 146 -11 l 106 -11 q 33 -2 65 -11 q 0 22 0 7 l 0 22 l 0 582 q -12 618 0 607 q -40 633 -25 629 q -66 639 -54 638 q -76 647 -78 640 z "},"o":{"ha":772,"x_min":-1,"x_max":846,"o":"m 313 735 l 313 735 q 440 708 385 735 q 533 638 494 682 q 595 537 572 594 q 624 417 618 479 q 621 292 631 354 q 585 175 611 229 l 585 175 q 660 180 628 164 q 714 226 692 196 q 751 293 736 256 q 775 364 765 331 l 775 364 q 800 378 779 378 l 800 378 q 831 367 815 378 q 839 338 846 357 l 839 338 q 799 236 822 282 q 742 159 776 190 q 658 113 707 128 q 539 103 608 97 l 539 103 q 443 27 499 56 q 313 -1 388 -1 l 313 -1 q 176 31 235 -1 q 77 114 117 63 q 18 231 38 165 q -1 367 -1 297 q 18 502 -1 436 q 77 619 38 568 q 176 703 117 671 q 313 735 235 735 z m 247 503 l 247 503 q 271 384 249 439 q 329 287 293 329 q 412 217 365 244 q 508 179 458 189 l 508 179 q 542 269 531 219 q 553 372 553 319 q 542 472 553 424 q 511 559 532 521 q 460 621 490 597 q 389 644 429 644 l 389 644 q 299 605 333 644 q 247 503 265 565 z m 375 74 l 375 74 q 416 85 394 75 q 463 118 438 94 l 463 118 q 334 188 394 140 q 233 304 274 235 l 233 304 q 248 226 238 267 q 276 151 258 185 q 318 95 293 117 q 375 74 343 74 z "},"p":{"ha":815,"x_min":-78,"x_max":889,"o":"m -76 596 l -76 596 q -72 619 -74 611 q -67 631 -69 628 q -60 634 -64 633 q -53 636 -57 635 l -53 636 q 82 678 24 651 q 176 724 140 706 l 176 724 q 202 722 192 732 q 213 700 213 711 l 213 700 l 213 521 q 248 600 228 563 q 294 666 268 638 q 352 712 319 694 q 424 731 385 729 l 424 731 q 523 710 481 733 q 594 647 565 688 q 640 553 624 607 q 660 440 657 500 q 656 319 664 381 q 626 204 647 258 l 626 204 q 740 238 689 203 q 818 364 792 272 l 818 364 q 843 378 822 378 l 843 378 q 874 367 858 378 q 883 338 889 357 l 883 338 q 838 236 865 276 q 773 173 810 196 q 691 141 736 150 q 592 132 646 132 l 592 132 q 547 77 575 103 q 485 31 518 51 q 417 0 451 11 q 350 -11 382 -11 l 350 -11 q 283 9 311 -11 q 247 74 254 29 l 247 74 q 254 141 240 114 q 294 183 268 168 q 353 205 321 199 q 417 211 386 211 l 417 211 q 433 343 428 269 q 433 481 438 417 q 417 590 429 546 q 381 633 404 635 l 381 633 q 340 606 360 632 q 303 540 321 581 q 272 449 286 499 q 245 349 257 399 q 225 257 233 300 q 213 188 217 214 l 213 188 l 213 -346 q 178 -390 213 -375 q 104 -404 144 -404 l 104 -404 q 33 -391 65 -404 q 0 -353 0 -378 l 0 -353 l 0 497 q -12 553 0 536 q -40 576 -25 569 q -66 584 -54 582 q -76 596 -78 586 z m 318 93 l 318 93 q 332 81 318 81 l 332 81 q 372 101 347 81 l 372 101 q 389 125 383 113 l 389 125 l 397 140 q 373 138 388 140 q 346 131 358 136 q 325 117 333 125 q 318 93 317 108 z "},"q":{"ha":813,"x_min":-6,"x_max":846,"o":"m 306 728 l 306 728 q 401 718 351 728 q 499 708 450 708 l 499 708 q 554 713 526 708 q 610 733 582 718 l 610 733 q 635 731 625 742 q 646 708 646 721 l 646 708 l 646 333 q 740 334 694 333 q 817 335 785 335 l 817 335 q 838 324 831 335 q 846 299 846 313 q 838 274 846 285 q 814 263 831 263 l 814 263 l 646 263 l 646 253 q 753 123 717 197 q 804 -19 789 49 l 804 -19 q 811 -156 819 -90 q 779 -271 803 -221 q 719 -351 756 -321 q 643 -383 683 -382 l 643 -383 q 564 -359 597 -386 q 508 -286 531 -332 q 470 -181 485 -240 q 448 -60 456 -122 q 438 64 440 3 q 433 175 435 125 l 433 175 q 354 53 401 103 q 236 0 307 3 l 236 0 q 122 28 169 -3 q 46 113 75 60 q 6 235 17 167 q 1 374 -6 303 q 29 513 7 446 q 90 631 51 581 q 182 708 128 681 q 306 728 236 736 z m 279 96 l 279 96 q 329 135 306 97 q 372 230 353 174 q 408 350 392 286 q 433 465 424 414 l 433 465 q 431 522 433 490 q 419 581 429 553 q 389 628 408 610 q 333 647 369 647 l 333 647 q 270 605 294 646 q 233 502 246 564 q 219 369 221 440 q 225 237 218 297 q 247 135 232 176 q 279 96 261 94 z m 701 -246 l 701 -246 q 718 -225 711 -246 q 728 -170 725 -204 q 728 -93 731 -136 q 716 -6 725 -50 q 690 81 707 39 q 646 154 672 124 l 646 154 q 647 108 646 142 q 649 29 647 74 q 653 -64 650 -15 q 663 -153 657 -112 q 679 -219 669 -193 q 701 -246 689 -246 z "},"s":{"ha":413,"x_min":-96,"x_max":361,"o":"m -96 539 l -96 539 q -77 619 -96 583 q -27 681 -58 656 q 44 722 4 707 q 125 738 83 736 l 125 738 q 239 715 188 740 q 321 644 290 689 q 356 542 351 600 q 331 426 361 485 l 331 426 q 297 410 322 410 l 297 410 q 258 419 279 410 q 220 442 236 428 q 198 474 204 456 q 201 508 192 492 l 201 508 q 224 569 219 540 q 221 620 228 597 q 197 656 214 643 q 157 669 181 669 l 157 669 q 124 658 136 669 q 103 631 111 647 q 93 597 96 615 q 90 564 90 579 l 90 564 q 107 496 90 525 q 149 444 124 467 q 204 401 174 421 q 263 358 235 381 q 314 308 292 336 q 344 243 336 281 l 344 243 q 344 135 358 183 q 298 54 331 88 q 217 3 265 21 q 115 -15 169 -15 l 115 -15 q 51 -6 88 -15 q -16 22 15 4 q -69 68 -47 40 q -87 131 -90 96 l -87 131 q -79 172 -86 151 q -62 210 -72 193 q -40 238 -51 226 q -17 249 -28 249 l -17 249 q 8 218 0 249 l 8 218 q 22 172 13 200 q 44 117 31 143 q 76 73 58 92 q 117 56 94 54 l 117 56 q 162 86 143 58 q 168 161 181 114 l 168 161 q 140 213 163 186 q 89 269 118 240 q 27 328 60 297 q -33 392 -6 358 q -78 463 -60 426 q -96 539 -96 499 z "},"t":{"ha":435,"x_min":-86,"x_max":508,"o":"m -60 683 l -60 683 l -3 683 l -3 761 q -15 817 -3 800 q -42 840 -28 833 q -69 848 -57 846 q -81 860 -82 850 l -81 860 q -76 883 -78 875 q -71 895 -74 892 q -65 899 -68 899 q -57 900 -61 900 l -57 900 q 78 942 21 915 q 172 989 136 969 l 172 989 q 199 987 188 997 q 210 964 210 976 l 210 964 l 210 683 l 306 683 q 328 673 321 683 q 336 650 336 663 q 328 627 336 638 q 304 617 321 617 l 304 617 l 210 617 l 210 582 q 209 504 210 553 q 209 400 208 456 q 214 288 210 344 q 227 188 218 232 q 252 115 236 143 q 292 90 268 88 l 292 90 q 340 124 318 93 q 381 198 363 156 q 415 287 400 240 q 438 364 429 333 l 438 364 q 463 378 442 378 l 463 378 q 493 367 478 378 q 501 338 508 357 l 501 338 q 465 217 485 278 q 416 109 446 157 q 340 31 386 61 q 222 0 293 0 l 222 0 q 118 31 160 0 q 51 110 76 61 q 15 222 26 160 q -1 350 3 285 q -3 477 -4 415 q -3 586 -3 539 l -3 586 l -3 617 l -60 617 q -79 627 -72 617 q -86 650 -86 638 q -80 673 -86 663 q -60 683 -74 683 z "},"u":{"ha":879,"x_min":-76,"x_max":953,"o":"m -75 647 l -75 647 q -65 670 -69 668 q -51 674 -60 672 l -51 674 q 83 702 25 685 q 178 732 142 719 l 178 732 q 203 731 193 738 q 214 717 214 724 l 214 717 q 211 651 214 703 q 208 528 208 599 q 209 381 207 458 q 221 240 211 304 q 249 133 231 175 q 299 90 267 90 l 299 90 q 328 110 314 90 q 357 163 343 131 q 383 237 371 196 q 407 320 396 278 q 426 403 418 363 q 438 472 433 443 l 438 472 q 440 588 438 535 q 444 679 443 642 l 444 679 q 456 701 444 692 q 483 717 467 710 q 521 727 500 724 q 563 731 542 731 l 563 731 q 626 719 599 731 q 653 679 654 707 l 653 679 q 650 590 651 647 q 649 467 649 533 q 653 333 649 400 q 667 210 657 265 q 693 122 676 156 q 738 90 710 89 l 738 90 q 785 124 763 93 q 826 198 808 156 q 859 287 844 240 q 882 364 874 333 l 882 364 q 907 378 886 378 l 907 378 q 938 367 922 378 q 947 338 953 357 l 947 338 q 910 217 929 278 q 861 109 892 157 q 785 31 831 61 q 667 0 739 0 l 667 0 q 583 18 619 0 q 522 67 547 36 q 481 140 497 99 q 456 231 465 182 l 456 231 q 422 142 442 183 q 374 69 401 100 q 311 19 347 38 q 228 0 275 0 l 228 0 q 119 30 161 0 q 51 108 76 60 q 15 219 26 157 q 1 347 4 282 q 0 473 -1 411 q 1 582 1 535 l 1 582 q -11 618 1 607 q -38 633 -24 629 q -65 640 -53 638 q -75 647 -76 642 z "},"v":{"ha":621,"x_min":-85,"x_max":694,"o":"m -83 647 l -83 647 q -74 670 -79 668 q -61 674 -69 672 l -61 674 q 74 702 17 685 q 167 732 131 719 l 167 732 q 193 731 182 738 q 204 717 204 724 l 204 717 q 203 651 204 703 q 203 528 203 599 q 208 381 204 458 q 223 240 213 304 q 253 133 233 175 q 304 90 274 90 l 304 90 q 344 115 326 90 q 375 182 361 140 l 375 182 q 307 289 335 225 q 265 424 279 353 q 250 565 250 494 q 266 691 250 635 q 315 782 282 747 q 399 817 347 817 l 399 817 q 474 780 449 817 q 510 686 500 743 q 515 559 519 629 q 501 422 511 489 q 476 300 490 356 q 451 215 463 244 l 451 215 q 510 190 482 190 l 510 190 q 553 209 535 190 q 585 255 572 228 q 608 312 599 282 q 624 364 618 342 l 624 364 q 649 378 628 378 l 649 378 q 679 367 664 378 q 689 338 694 357 l 689 338 q 664 262 679 301 q 627 190 649 222 q 577 135 606 157 q 511 114 549 114 l 511 114 q 469 121 492 114 q 421 144 447 128 l 421 144 q 344 40 389 79 q 236 0 299 0 l 236 0 q 126 30 169 0 q 57 108 83 60 q 18 219 31 157 q 1 347 6 282 q -4 473 -4 411 q -6 582 -4 535 l -6 582 q -19 618 -6 607 q -47 633 -32 629 q -73 640 -61 638 q -83 647 -85 642 z m 400 282 l 400 282 q 410 339 403 299 q 424 431 417 379 q 435 538 431 482 q 439 639 440 593 q 428 715 438 685 q 399 744 419 744 l 399 744 q 365 721 378 744 q 344 659 351 697 q 338 572 338 621 q 344 471 338 522 q 365 370 351 419 q 400 282 379 321 z "},"w":{"ha":1096,"x_min":-76,"x_max":1169,"o":"m -75 647 l -75 647 q -65 670 -69 668 q -51 674 -60 672 l -51 674 q 83 702 25 685 q 178 732 142 719 l 178 732 q 203 731 193 738 q 214 717 214 724 l 214 717 q 211 651 214 703 q 208 528 208 599 q 209 381 207 458 q 221 240 211 304 q 249 133 231 175 q 299 90 267 90 l 299 90 q 328 110 314 90 q 357 163 343 131 q 383 237 371 196 q 407 320 396 278 q 426 403 418 363 q 438 472 433 443 l 438 472 q 440 577 438 535 q 444 656 443 619 l 444 656 q 475 688 444 676 q 543 699 506 699 l 543 699 q 584 695 564 699 q 620 685 604 692 q 645 666 636 678 q 653 639 654 654 l 653 639 q 650 565 651 608 q 649 469 649 521 q 651 360 649 417 q 660 250 653 304 l 660 250 q 669 193 664 221 q 686 144 675 165 q 714 110 697 124 q 756 97 731 97 l 756 97 q 806 115 778 97 q 851 182 835 133 l 851 182 q 783 289 811 225 q 741 424 756 353 q 726 565 726 494 q 742 691 726 635 q 791 782 758 747 q 874 817 824 817 l 874 817 q 949 780 924 817 q 985 686 975 743 q 990 559 994 629 q 976 422 986 489 q 951 300 965 356 q 926 215 938 244 l 926 215 q 986 190 957 190 l 986 190 q 1029 209 1011 190 q 1061 255 1047 228 q 1084 312 1075 282 q 1099 364 1093 342 l 1099 364 q 1108 374 1101 371 q 1124 378 1115 378 l 1124 378 q 1155 367 1140 378 q 1164 338 1169 357 l 1164 338 q 1139 262 1154 301 q 1102 190 1124 222 q 1052 135 1081 157 q 986 114 1024 114 l 986 114 q 944 121 967 114 q 896 144 922 128 l 896 144 q 802 34 860 71 q 683 -3 744 -3 l 683 -3 q 610 12 646 -3 q 543 56 574 26 q 490 128 513 85 q 456 231 467 172 l 456 231 q 422 142 442 183 q 374 69 401 100 q 311 19 347 38 q 228 0 275 0 l 228 0 q 119 30 161 0 q 51 108 76 60 q 15 219 26 157 q 1 347 4 282 q 0 473 -1 411 q 1 582 1 535 l 1 582 q -11 618 1 607 q -38 633 -24 629 q -65 640 -53 638 q -75 647 -76 642 z m 875 282 l 875 282 q 885 339 878 299 q 899 431 892 379 q 910 538 906 482 q 915 639 915 593 q 904 715 914 685 q 874 744 894 744 l 874 744 q 840 721 854 744 q 820 659 826 697 q 814 572 814 621 q 821 471 814 522 q 841 370 828 419 q 875 282 854 321 z "},"x":{"ha":529,"x_min":-96,"x_max":610,"o":"m -94 640 l -94 640 q -90 667 -90 661 q -81 674 -89 672 l -81 674 q 64 702 3 685 q 164 732 125 719 l 164 732 q 192 731 181 738 q 204 717 203 724 l 204 717 q 205 676 204 707 q 207 603 206 646 q 211 508 208 560 q 218 401 214 456 l 218 401 q 258 474 242 436 q 286 551 274 511 q 310 635 299 592 q 335 725 321 679 l 335 725 q 351 738 338 733 q 383 743 365 743 l 383 743 q 409 741 396 743 q 431 733 422 739 q 445 720 440 728 q 447 701 450 713 l 447 701 q 353 477 411 578 q 232 292 294 376 l 232 292 q 247 214 239 250 q 267 151 256 178 q 294 108 279 124 q 326 93 308 93 l 326 93 q 400 124 367 93 q 459 197 433 154 q 503 285 485 239 q 532 364 522 332 l 532 364 q 560 378 536 378 l 560 378 q 594 367 578 378 q 603 338 610 357 l 603 338 q 558 222 585 282 q 493 113 532 163 q 401 32 454 64 q 274 0 347 0 l 274 0 q 163 24 208 0 q 86 90 118 49 l 86 90 q 59 17 64 54 q 54 -53 54 -21 l 54 -53 q 43 -72 54 -67 q 17 -78 32 -78 l 17 -78 q -26 -68 -4 -78 q -46 -46 -47 -58 l -46 -46 q -17 56 -42 4 q 46 163 8 107 l 46 163 q 15 267 25 211 q -1 380 4 324 q -10 488 -7 436 q -15 582 -12 540 l -15 582 q -31 617 -18 607 q -58 630 -43 626 q -84 633 -72 633 q -94 640 -96 633 z "},"y":{"ha":751,"x_min":-65,"x_max":824,"o":"m -53 674 l -53 674 q 83 702 25 685 q 176 732 140 719 l 176 732 q 203 731 192 738 q 214 717 214 724 l 214 717 q 211 651 214 703 q 208 528 208 599 q 209 381 207 458 q 220 240 211 304 q 247 133 229 175 q 297 90 265 90 l 297 90 q 327 110 313 90 q 356 163 342 131 q 382 237 369 196 q 406 320 394 278 q 424 403 417 363 q 436 472 432 443 l 436 472 l 436 511 q 433 614 435 568 q 429 688 432 660 l 429 688 q 455 722 428 711 q 517 732 482 732 l 517 732 q 588 720 556 732 q 624 686 621 708 l 624 686 q 627 578 626 649 q 628 426 628 507 q 626 263 628 344 q 619 119 624 181 l 619 119 q 706 231 679 171 q 754 364 733 292 l 754 364 q 779 378 758 378 l 779 378 q 809 367 794 378 q 818 338 824 357 l 818 338 q 788 243 803 286 q 750 163 772 200 q 695 92 728 125 q 613 25 663 58 l 613 25 q 601 -88 607 -32 q 584 -197 594 -144 q 558 -294 574 -249 q 519 -378 543 -340 l 519 -378 q 429 -468 482 -439 q 324 -500 376 -497 l 324 -500 q 209 -479 257 -503 q 137 -414 161 -456 q 115 -318 113 -372 q 151 -206 118 -264 q 251 -92 183 -149 q 422 8 318 -36 l 422 8 q 435 175 431 78 l 435 175 q 401 106 421 138 q 356 50 382 74 q 299 13 331 26 q 226 0 267 0 l 226 0 q 119 30 161 0 q 51 108 76 60 q 15 219 26 157 q 1 347 4 282 q 0 473 -1 411 q 1 582 1 535 l 1 582 q -5 611 1 601 q -20 626 -11 621 q -39 631 -29 631 q -56 632 -49 632 l -56 632 q -64 640 -62 633 q -64 653 -65 646 q -59 667 -62 661 q -53 674 -56 674 z m 250 -410 l 250 -410 q 292 -390 272 -410 q 329 -338 313 -369 q 359 -269 346 -307 q 383 -194 372 -231 q 400 -125 393 -157 q 410 -75 407 -93 l 410 -75 q 260 -174 313 -117 q 192 -285 207 -232 q 193 -374 176 -337 q 250 -410 210 -411 z "},"z":{"ha":592,"x_min":-61,"x_max":642,"o":"m -56 668 l -56 668 q -18 725 -43 706 q 35 744 7 744 l 35 744 q 91 718 67 744 q 115 638 115 692 l 115 638 q 152 648 124 638 q 220 670 181 658 q 305 692 260 682 q 389 703 350 703 l 389 703 q 458 688 429 703 q 495 637 488 674 q 484 537 503 600 q 408 375 465 474 l 408 375 q 369 311 392 346 q 324 242 347 276 q 280 174 301 207 q 243 114 258 140 l 243 114 q 260 106 239 107 q 318 104 282 104 l 318 104 q 378 184 344 143 q 449 263 413 225 q 522 332 485 300 q 592 383 558 364 l 592 383 q 615 385 603 389 q 634 374 626 382 q 641 356 642 367 q 625 336 640 344 l 625 336 q 563 293 596 319 q 499 235 531 267 q 440 170 468 204 q 389 104 411 136 l 389 104 q 459 81 429 106 q 506 14 489 56 q 528 -81 524 -28 q 525 -190 533 -135 q 493 -299 517 -246 q 431 -394 469 -353 q 340 -462 393 -436 q 215 -487 286 -487 l 215 -487 q 145 -465 168 -487 q 117 -403 122 -442 q 124 -312 113 -364 q 156 -204 135 -261 q 207 -89 178 -147 q 267 24 236 -31 l 267 24 q 188 17 228 21 q 115 13 147 13 l 115 13 q 71 15 89 13 q 46 25 53 18 l 46 25 q 28 58 35 36 q 33 103 22 79 l 33 103 q 67 159 42 119 q 126 249 93 199 q 195 356 160 300 q 258 459 231 411 q 301 541 286 507 q 310 582 317 575 l 310 582 q 282 590 300 590 l 282 590 q 203 575 251 590 q 107 550 156 560 l 107 550 q 95 447 104 494 q 68 339 86 399 l 68 339 q 42 325 64 325 l 42 325 q 10 335 25 325 q 1 364 -4 344 l 1 364 q 11 403 4 374 q 23 466 18 433 q 29 525 28 499 q 21 551 31 551 l 21 551 q -13 563 3 551 q -41 592 -29 575 q -57 630 -53 610 q -56 668 -61 650 z m 238 -368 l 238 -368 q 276 -340 256 -368 q 314 -270 296 -312 q 347 -178 332 -228 q 367 -83 361 -128 q 371 -6 374 -39 q 353 32 368 26 l 353 32 l 342 32 q 272 -107 303 -36 q 224 -236 240 -178 q 209 -331 207 -294 q 238 -368 211 -368 z "},"A":{"ha":1342,"x_min":-1,"x_max":1369,"o":"m 389 476 l 389 476 q 492 472 428 476 q 633 460 556 467 l 633 460 q 665 714 650 588 q 703 942 679 840 q 767 1106 726 1043 q 879 1167 808 1168 l 879 1167 q 971 1138 933 1167 q 1033 1058 1008 1108 q 1072 939 1057 1007 q 1096 792 1086 871 q 1113 629 1106 714 q 1129 461 1119 544 l 1129 461 q 1194 481 1165 469 q 1238 513 1222 493 l 1238 513 q 1281 533 1257 533 l 1281 533 q 1308 519 1300 533 q 1301 481 1317 506 l 1301 481 q 1236 417 1278 443 q 1140 372 1194 390 l 1140 372 q 1165 198 1151 281 q 1199 53 1179 115 q 1246 -46 1218 -10 q 1313 -82 1274 -82 l 1313 -82 q 1343 -76 1328 -82 l 1343 -76 q 1364 -80 1358 -71 q 1366 -103 1369 -89 q 1351 -130 1363 -117 q 1321 -146 1339 -143 l 1321 -146 q 1285 -150 1303 -149 q 1253 -151 1268 -151 l 1253 -151 q 1110 -111 1164 -151 q 1024 -4 1057 -71 q 975 151 992 63 q 942 335 958 239 l 942 335 q 840 328 892 331 q 738 325 788 326 l 738 325 q 685 142 717 229 q 606 -10 654 56 q 490 -114 557 -75 q 329 -153 422 -153 l 329 -153 q 154 -106 228 -153 q 42 10 81 -60 q 1 162 3 81 q 39 313 -1 243 q 165 430 79 383 q 389 476 251 476 z m 329 -82 l 329 -82 q 442 -50 394 -82 q 522 38 489 -18 q 577 167 556 93 q 614 326 599 242 l 614 326 q 513 329 560 328 q 432 331 467 331 l 432 331 q 244 300 318 331 q 131 224 169 269 q 90 124 93 178 q 113 25 86 71 q 195 -51 140 -21 q 329 -82 250 -82 z m 926 444 l 926 444 q 922 509 925 457 q 913 633 918 561 q 901 786 907 706 q 887 934 894 867 q 872 1045 879 1001 q 856 1088 864 1089 l 856 1088 q 832 1041 843 1085 q 811 932 821 997 q 793 790 801 867 q 778 643 785 713 q 767 521 771 574 q 760 451 763 468 l 760 451 q 844 447 801 449 q 926 444 886 444 z "},"B":{"ha":961,"x_min":-1,"x_max":893,"o":"m 0 988 l 0 988 q 5 1011 3 1003 q 10 1023 7 1019 q 16 1027 13 1026 q 24 1029 19 1028 l 24 1029 q 158 1071 100 1044 q 253 1117 217 1097 l 253 1117 q 278 1115 268 1125 q 289 1093 289 1104 l 289 1093 l 289 892 q 321 944 304 919 q 357 990 338 968 l 357 990 q 477 1083 408 1049 q 636 1113 546 1118 l 636 1113 q 768 1067 717 1108 q 844 965 819 1025 q 865 835 868 904 q 831 704 861 765 q 746 599 801 643 q 608 546 690 554 l 608 546 q 737 531 682 553 q 827 467 792 508 q 878 369 863 425 q 889 256 893 314 q 862 140 885 197 q 796 40 839 83 q 691 -31 753 -4 q 547 -54 629 -57 l 547 -54 q 408 -15 472 -51 q 289 74 343 21 l 289 74 l 289 47 q 256 3 289 17 q 182 -11 222 -11 l 182 -11 q 109 2 142 -11 q 76 40 76 15 l 76 40 l 76 890 q 64 946 76 929 q 37 969 51 963 q 10 976 22 975 q 0 988 -1 978 z m 492 65 l 492 65 q 577 92 539 63 q 640 165 615 121 q 671 262 664 210 q 660 359 678 314 q 599 435 643 404 q 475 465 554 465 l 475 465 q 383 460 428 467 q 303 453 338 454 l 303 453 q 295 453 299 453 q 289 454 292 454 l 289 454 l 289 174 q 344 118 318 139 q 394 86 369 97 q 442 71 418 75 q 492 65 467 67 z m 289 693 l 289 535 q 318 543 300 538 q 355 553 336 549 q 390 563 374 558 q 411 568 406 568 l 411 568 q 540 630 492 590 q 613 716 589 669 q 637 810 636 763 q 622 895 638 857 q 576 957 606 933 q 507 981 546 981 l 507 981 q 379 907 439 979 q 289 693 319 835 l 289 693 z "},"C":{"ha":832,"x_min":-1,"x_max":906,"o":"m 460 1174 l 460 1174 q 603 1150 543 1176 q 703 1078 664 1124 q 762 972 743 1033 q 779 844 781 911 q 756 709 778 778 q 694 579 735 640 l 694 579 q 659 544 679 556 q 619 533 639 533 l 619 533 q 567 549 592 533 q 527 590 542 565 q 513 642 513 614 q 533 694 513 669 l 533 694 q 590 772 565 729 q 628 860 614 815 q 647 946 643 904 q 638 1020 650 988 q 598 1074 626 1053 q 521 1096 569 1094 l 521 1096 q 403 1052 453 1097 q 323 933 354 1007 q 277 763 292 858 q 265 566 263 667 q 284 369 267 465 q 332 197 301 272 q 407 75 363 121 q 507 29 451 29 l 507 29 q 635 59 581 29 q 728 137 689 89 q 792 244 767 185 q 835 364 818 304 l 835 364 q 844 374 838 371 q 860 378 851 378 l 860 378 q 891 367 876 378 q 900 338 906 357 l 900 338 q 845 195 878 263 q 763 75 813 128 q 647 -13 714 22 q 492 -58 581 -49 l 492 -58 q 291 -26 379 -72 q 141 102 203 19 q 44 296 79 185 q 4 525 10 407 q 23 758 -1 643 q 103 964 47 872 q 249 1113 160 1056 q 460 1174 338 1171 z "},"E":{"ha":740,"x_min":0,"x_max":814,"o":"m 407 1139 l 407 1139 q 547 1113 493 1139 q 631 1046 601 1088 q 671 952 661 1004 q 678 847 681 900 l 678 847 q 663 774 676 815 q 631 697 650 733 q 585 635 611 660 q 531 610 560 610 l 531 610 q 472 624 496 610 q 438 661 449 639 q 431 710 428 683 q 453 763 435 738 l 453 763 q 504 851 485 804 q 521 942 524 899 l 521 942 q 494 1027 518 994 q 415 1060 471 1060 l 415 1060 q 335 1038 367 1060 q 285 977 303 1015 q 266 891 268 939 q 274 792 264 843 q 308 693 285 742 q 365 606 331 644 q 444 545 400 568 q 543 522 489 522 l 543 522 q 582 514 567 522 q 597 475 597 506 l 597 475 q 581 440 597 451 q 546 429 564 429 l 546 429 q 492 431 518 429 q 439 433 465 432 l 439 433 q 322 408 367 436 q 257 337 276 381 q 242 242 238 293 q 276 149 247 192 q 354 79 304 106 q 475 57 404 53 l 475 57 q 591 89 546 61 q 665 160 636 117 q 710 256 693 203 q 743 364 726 308 l 743 364 q 768 378 747 378 l 768 378 q 799 367 783 378 q 807 338 814 357 l 807 338 q 751 188 783 257 q 669 66 719 118 q 545 -17 618 14 q 368 -50 472 -47 l 368 -50 q 228 -33 294 -53 q 110 24 161 -14 q 30 117 60 61 q 0 243 0 172 l 0 243 q 11 326 0 289 q 40 390 22 363 q 81 438 58 418 q 128 472 104 458 l 128 472 q 256 515 183 504 l 256 515 q 139 584 185 532 q 74 706 93 636 q 65 851 56 775 q 116 992 75 928 q 229 1097 157 1056 q 407 1139 301 1139 z "},"D":{"ha":1011,"x_min":-1,"x_max":926,"o":"m 0 988 l 0 988 q 5 1011 3 1003 q 10 1023 7 1019 q 16 1027 13 1026 q 24 1029 19 1028 l 24 1029 q 158 1071 100 1044 q 253 1117 217 1097 l 253 1117 q 278 1115 268 1125 q 289 1093 289 1104 l 289 1093 l 289 908 q 333 994 308 954 q 388 1065 357 1035 q 455 1112 418 1094 q 536 1129 492 1129 l 536 1129 q 659 1112 604 1135 q 757 1046 714 1089 q 831 943 800 1003 q 883 814 863 883 q 913 669 903 744 q 925 521 924 594 l 925 521 q 906 336 926 425 q 840 177 885 247 q 723 63 794 107 q 549 11 651 18 l 549 11 q 289 74 410 3 l 289 74 l 289 47 q 256 3 289 17 q 182 -11 222 -11 l 182 -11 q 109 2 142 -11 q 76 40 76 15 l 76 40 l 76 890 q 64 946 76 929 q 37 969 51 963 q 10 976 22 975 q 0 988 -1 978 z m 289 640 l 289 640 l 289 157 q 364 110 317 131 q 461 90 411 89 l 461 90 q 560 132 519 92 q 626 238 601 172 q 663 388 651 304 q 672 560 674 472 q 658 731 671 647 q 624 881 646 815 q 572 986 603 946 q 504 1026 542 1026 l 504 1026 q 442 997 474 1026 q 382 915 410 967 q 330 792 354 863 q 289 640 306 721 z "},"F":{"ha":1157,"x_min":-6,"x_max":1310,"o":"m 407 672 l 407 672 q 522 667 450 672 q 682 654 594 661 l 682 654 q 680 794 683 721 q 672 938 676 867 q 666 1072 668 1008 q 668 1186 664 1136 l 668 1186 q 586 1194 622 1194 l 586 1194 q 456 1140 500 1194 q 396 953 411 1085 l 396 953 q 375 915 393 926 q 333 903 357 903 l 333 903 q 281 913 308 903 q 233 939 254 922 q 197 978 211 956 q 186 1025 183 1000 l 186 1025 q 218 1165 193 1110 q 282 1253 243 1221 q 369 1299 321 1286 q 474 1313 418 1313 l 474 1313 q 618 1297 543 1313 q 765 1264 693 1282 q 900 1231 836 1246 q 1010 1215 964 1215 l 1010 1215 q 1074 1229 1050 1215 q 1103 1279 1097 1243 l 1103 1279 q 1128 1318 1106 1307 q 1179 1329 1151 1329 l 1179 1329 q 1227 1322 1203 1329 q 1270 1303 1251 1315 q 1299 1276 1289 1292 q 1304 1242 1310 1260 l 1304 1242 q 1230 1131 1282 1161 q 1104 1101 1178 1101 l 1104 1101 q 966 1117 1040 1101 q 814 1153 892 1133 l 814 1153 q 837 1047 826 1113 q 856 909 847 982 q 869 764 864 836 q 878 638 875 692 l 878 638 q 948 645 914 638 q 1007 675 982 653 l 1007 675 q 1051 692 1028 692 l 1051 692 q 1074 687 1064 692 q 1087 673 1083 682 q 1086 651 1090 664 q 1067 622 1082 639 l 1067 622 q 981 562 1029 583 q 879 529 932 540 l 879 529 q 853 283 878 403 q 773 69 829 163 q 625 -81 717 -25 q 397 -137 533 -137 l 397 -137 q 242 -103 313 -137 q 121 -11 172 -68 q 39 119 69 46 q 1 267 8 192 q 14 416 -6 343 q 82 546 33 489 q 211 638 131 603 q 407 672 292 672 z m 388 -57 l 388 -57 q 513 -5 461 -57 q 599 129 565 47 q 652 311 633 211 q 676 506 671 411 l 676 506 q 565 508 617 507 q 474 510 513 510 l 474 510 q 265 468 346 510 q 146 363 185 426 q 107 226 107 300 q 140 90 107 153 q 237 -15 174 26 q 388 -57 300 -57 z "},"G":{"ha":1013,"x_min":0,"x_max":913,"o":"m 485 1174 l 485 1174 q 627 1151 567 1176 q 727 1084 688 1126 q 785 985 767 1042 q 803 865 804 928 q 780 738 801 803 q 718 615 758 674 l 718 615 q 683 582 703 592 q 642 572 663 572 l 642 572 q 590 587 615 572 q 551 624 565 601 q 536 674 536 647 q 557 722 536 700 l 557 722 q 613 796 589 756 q 652 878 638 836 q 670 959 667 919 q 662 1030 674 999 q 622 1080 650 1061 q 544 1100 593 1099 l 544 1100 q 426 1059 476 1101 q 340 945 375 1017 q 288 783 306 874 q 268 597 271 692 q 278 411 265 501 q 316 250 290 321 q 382 137 342 179 q 474 97 422 94 l 474 97 q 545 128 511 99 q 609 207 579 157 q 664 326 639 257 q 710 479 689 396 l 710 479 q 737 503 710 494 q 799 511 764 511 l 799 511 q 873 497 839 511 q 908 450 907 483 l 908 450 q 912 282 911 375 q 903 90 913 189 l 903 90 q 874 -123 893 -18 q 808 -311 854 -228 q 681 -447 761 -394 q 467 -501 600 -499 l 467 -501 q 317 -477 382 -503 q 206 -409 251 -451 q 136 -311 161 -367 q 108 -198 111 -256 q 125 -84 106 -140 q 186 15 144 -28 l 186 15 q 215 24 194 24 l 215 24 q 260 15 235 24 q 312 -8 286 7 q 359 -42 338 -22 q 392 -85 381 -62 q 400 -131 403 -107 q 374 -176 397 -154 l 374 -176 q 322 -250 339 -210 q 309 -326 306 -290 q 335 -387 313 -362 q 403 -411 358 -411 l 403 -411 q 521 -376 472 -411 q 603 -283 569 -340 q 656 -153 636 -225 q 688 -7 676 -81 q 704 133 700 67 q 710 247 708 200 l 710 247 q 603 81 664 136 q 458 15 542 25 l 458 15 q 260 46 346 3 q 116 167 174 89 q 29 349 58 244 q 0 564 0 453 q 29 783 0 675 q 119 977 58 892 q 270 1117 179 1063 q 485 1174 361 1171 z "},"H":{"ha":1379,"x_min":-4,"x_max":1351,"o":"m 365 683 l 365 683 q 457 679 400 683 q 585 668 514 675 l 585 668 l 585 890 q 572 946 585 929 q 545 969 560 963 q 519 976 531 975 q 508 988 507 978 l 508 988 q 513 1011 511 1003 q 518 1023 515 1019 q 524 1027 521 1026 q 532 1029 528 1028 l 532 1029 q 667 1071 608 1044 q 761 1117 725 1097 l 761 1117 q 787 1115 776 1125 q 797 1093 797 1104 l 797 1093 l 797 651 q 867 648 825 650 q 990 656 910 646 l 990 656 l 989 883 q 976 939 989 922 q 949 962 964 956 q 923 969 935 968 q 913 981 911 971 l 913 981 q 917 1004 915 996 q 922 1016 919 1013 q 928 1020 925 1019 q 936 1022 932 1021 l 936 1022 q 1072 1064 1014 1038 q 1165 1110 1129 1090 l 1165 1110 q 1191 1108 1181 1118 q 1201 1086 1201 1097 l 1201 1086 l 1201 714 q 1269 760 1239 732 l 1269 760 q 1308 774 1285 774 l 1308 774 q 1341 757 1331 774 q 1322 713 1351 740 l 1322 713 q 1267 667 1297 686 q 1201 632 1236 647 l 1201 632 l 1204 49 q 1171 -1 1204 15 q 1097 -18 1138 -18 l 1097 -18 q 1024 -2 1057 -18 q 992 46 992 14 l 992 46 l 990 571 q 914 562 947 564 q 857 558 881 560 q 817 557 833 557 q 788 554 800 557 l 788 554 q 765 335 786 442 q 693 144 743 228 q 560 10 643 61 q 356 -40 478 -40 l 356 -40 q 217 -9 279 -40 q 108 73 154 22 q 35 189 63 124 q 1 322 7 254 q 13 454 -4 389 q 74 570 31 519 q 190 652 118 621 q 365 683 263 683 z m 347 31 l 347 31 q 456 78 413 31 q 525 198 499 125 q 565 360 551 271 q 583 533 578 449 l 583 533 q 494 537 529 536 q 425 538 460 538 l 425 538 q 239 500 311 538 q 131 406 167 463 q 96 284 96 350 q 126 162 96 218 q 212 68 156 106 q 347 31 268 31 z "},"I":{"ha":732,"x_min":-4,"x_max":601,"o":"m 333 1131 l 333 1131 q 477 1083 425 1131 q 556 955 529 1035 q 590 772 582 875 q 600 558 599 669 l 600 558 q 599 401 601 479 q 594 249 597 322 q 587 111 590 176 q 582 -4 583 46 l 582 -4 q 572 -31 582 -19 q 547 -50 563 -43 q 513 -60 532 -57 q 472 -64 493 -64 l 472 -64 q 434 -60 453 -64 q 401 -51 415 -57 q 378 -34 386 -44 q 369 -11 369 -24 l 369 -11 q 373 77 369 17 q 379 218 376 138 q 383 391 382 299 q 383 576 385 483 q 373 755 381 669 q 350 906 365 840 q 311 1010 335 971 q 251 1047 288 1049 l 251 1047 q 184 1015 207 1046 q 153 936 161 983 q 149 831 144 889 q 165 717 154 772 q 192 615 176 663 q 221 543 207 568 l 221 543 q 226 492 235 518 q 197 444 217 465 q 151 408 176 422 q 107 394 125 394 l 107 394 q 86 404 92 394 l 86 404 q 35 524 58 451 q 4 679 13 597 q 6 844 -4 761 q 52 991 15 926 q 157 1095 89 1056 q 333 1131 225 1135 z "},"J":{"ha":836,"x_min":-4,"x_max":732,"o":"m 107 219 l 107 219 q 125 226 114 226 l 125 226 q 181 203 149 226 q 239 147 214 179 q 272 81 264 114 q 254 31 281 49 l 254 31 q 180 -53 207 -1 q 149 -153 153 -104 q 163 -238 144 -203 q 225 -274 182 -274 l 225 -274 q 330 -240 285 -274 q 407 -147 375 -206 q 460 -8 439 -87 q 492 161 481 71 q 508 347 504 251 q 511 536 513 443 l 511 536 q 510 607 511 560 q 506 713 510 654 q 493 831 501 771 q 469 942 485 892 q 428 1022 453 992 q 367 1051 403 1053 l 367 1051 q 297 1016 324 1049 q 256 933 269 983 q 240 821 242 882 q 244 701 238 760 q 265 590 251 642 q 296 510 278 539 l 296 510 q 302 460 311 486 q 274 414 293 435 q 229 380 254 393 q 186 367 204 367 l 186 367 q 164 376 169 367 l 164 376 q 114 495 135 421 q 88 654 93 569 q 98 826 83 739 q 153 981 113 913 q 265 1092 194 1050 q 444 1131 336 1135 l 444 1131 q 590 1088 533 1131 q 678 964 646 1044 q 721 769 710 883 q 731 510 732 654 l 731 510 q 711 147 729 308 q 644 -126 693 -14 q 510 -300 596 -239 q 289 -362 425 -361 l 289 -362 q 147 -333 204 -364 q 54 -253 89 -303 q 8 -139 19 -203 q 3 -10 -4 -75 q 38 116 11 56 q 107 219 64 176 z "},"K":{"ha":864,"x_min":-1,"x_max":1115,"o":"m 0 988 l 0 988 q 5 1011 3 1003 q 10 1023 7 1019 q 16 1027 13 1026 q 24 1029 19 1028 l 24 1029 q 158 1071 100 1044 q 253 1117 217 1097 l 253 1117 q 278 1115 268 1125 q 289 1093 289 1104 l 289 1093 l 289 692 q 409 770 354 729 q 510 860 464 811 q 593 969 556 908 q 661 1107 631 1031 l 661 1107 q 683 1121 667 1121 l 683 1121 q 731 1105 703 1121 q 783 1066 760 1089 q 820 1017 807 1043 q 822 969 833 990 l 822 969 q 734 845 786 894 q 619 760 682 796 q 487 695 557 724 q 344 635 417 667 l 344 635 q 506 540 431 608 q 645 383 581 471 q 765 201 710 296 q 865 27 819 106 q 949 -103 911 -51 q 1017 -154 986 -154 l 1017 -154 q 1056 -122 1040 -154 l 1056 -122 q 1079 -106 1064 -106 l 1079 -106 q 1097 -112 1089 -106 q 1110 -130 1106 -119 q 1114 -153 1115 -140 q 1101 -178 1113 -165 l 1101 -178 q 1014 -254 1057 -231 q 931 -278 971 -278 l 931 -278 q 812 -233 869 -278 q 699 -115 754 -187 q 592 49 644 -42 q 488 230 539 139 q 388 402 438 321 q 289 538 338 483 l 289 538 l 289 -8 q 256 -51 289 -37 q 183 -65 224 -65 l 183 -65 q 110 -52 143 -65 q 76 -14 76 -39 l 76 -14 l 76 890 q 64 946 76 929 q 37 969 51 963 q 10 976 22 975 q 0 988 -1 978 z "},"L":{"ha":858,"x_min":-6,"x_max":1207,"o":"m 264 267 l 264 267 q 270 440 275 344 q 259 632 265 535 q 254 821 253 729 q 281 983 256 913 q 364 1097 307 1054 q 526 1140 421 1140 l 526 1140 q 696 1101 635 1144 q 783 988 757 1058 q 808 831 810 918 q 788 657 807 743 q 739 496 769 571 q 679 378 708 421 l 679 378 q 658 368 674 368 l 658 368 q 615 381 640 368 q 570 415 590 394 q 542 460 550 435 q 549 507 535 485 l 549 507 q 596 601 572 544 q 638 719 619 657 q 667 842 657 781 q 672 953 676 904 q 643 1033 667 1003 q 571 1064 619 1064 l 571 1064 q 528 1033 544 1064 q 501 952 511 1003 q 486 834 490 901 q 480 694 482 767 q 477 547 478 621 q 474 406 476 472 q 467 285 472 339 q 453 201 463 232 l 453 201 q 609 102 526 158 q 773 -5 692 46 q 927 -91 854 -56 q 1051 -126 1000 -126 l 1051 -126 q 1108 -108 1086 -126 q 1138 -44 1131 -89 l 1138 -44 q 1156 -31 1139 -31 l 1156 -31 q 1174 -35 1164 -31 q 1193 -49 1185 -40 q 1204 -69 1201 -57 q 1201 -93 1207 -81 l 1201 -93 q 1086 -260 1150 -211 q 950 -310 1022 -310 l 950 -310 q 802 -269 878 -310 q 654 -168 726 -229 q 516 -36 582 -107 q 399 96 450 35 l 399 96 q 290 13 353 38 q 175 -14 228 -12 l 175 -14 q 70 6 111 -15 q 12 62 29 28 q 1 135 -6 96 q 40 205 8 174 q 127 255 71 236 q 264 267 183 274 z m 118 60 l 118 60 q 190 91 154 61 q 246 190 225 121 l 246 190 q 196 200 222 200 l 196 200 q 124 178 156 200 q 78 130 93 156 q 72 82 64 104 q 118 60 79 60 z "},"M":{"ha":1707,"x_min":-4,"x_max":1735,"o":"m 333 1131 l 333 1131 q 444 1097 399 1131 q 522 1004 490 1063 q 572 867 553 946 q 599 700 590 789 l 599 700 q 631 834 613 764 q 683 962 650 904 q 768 1056 717 1019 q 896 1088 819 1092 l 896 1088 q 978 1060 944 1085 q 1033 995 1011 1036 q 1067 900 1054 954 q 1085 783 1079 846 l 1085 783 q 1128 922 1103 857 q 1190 1036 1154 988 q 1271 1113 1225 1085 q 1376 1140 1317 1140 l 1376 1140 q 1499 1088 1456 1140 q 1560 948 1542 1035 q 1580 751 1579 861 q 1576 525 1581 640 q 1567 300 1571 410 q 1572 106 1563 190 q 1608 -30 1581 21 q 1696 -76 1636 -81 l 1696 -76 q 1726 -85 1717 -75 q 1733 -108 1735 -94 q 1723 -133 1732 -121 q 1700 -149 1714 -146 l 1700 -149 q 1662 -154 1681 -153 q 1626 -156 1643 -156 l 1626 -156 q 1478 -106 1533 -156 q 1394 27 1422 -56 q 1360 215 1367 110 q 1356 429 1353 319 q 1365 644 1358 539 q 1369 833 1371 750 q 1353 966 1368 915 q 1296 1018 1338 1017 l 1296 1018 q 1224 966 1256 1019 q 1171 830 1193 913 q 1134 647 1149 747 q 1110 453 1119 547 q 1097 285 1101 360 q 1093 179 1093 211 l 1093 179 q 1090 121 1092 147 q 1086 75 1089 94 l 1086 75 q 1056 30 1081 43 q 1000 17 1032 17 l 1000 17 q 963 22 982 17 q 927 35 943 26 q 899 54 911 43 q 885 78 888 65 l 885 78 q 876 194 876 113 q 876 378 875 276 q 876 590 876 481 q 869 792 875 700 q 850 943 864 883 q 808 1006 836 1003 l 808 1006 q 749 960 776 1008 q 701 834 722 911 q 664 663 681 757 q 636 483 647 569 q 619 327 625 396 q 610 232 613 258 l 610 232 q 601 139 606 175 l 601 139 l 596 -7 q 586 -33 596 -22 q 561 -51 576 -44 q 526 -62 546 -58 q 486 -65 507 -65 l 486 -65 q 448 -62 467 -65 q 415 -52 429 -58 q 392 -36 400 -46 q 383 -14 383 -26 l 383 -14 q 386 73 383 13 q 391 213 389 133 q 393 387 393 293 q 390 574 393 481 q 378 755 386 668 q 353 908 369 842 q 312 1013 336 974 q 251 1051 288 1053 l 251 1051 q 184 1020 207 1050 q 153 944 161 990 q 149 844 144 899 q 165 735 154 789 q 192 638 176 682 q 221 569 207 593 l 221 569 q 226 520 235 546 q 197 474 217 494 q 151 440 176 453 q 107 426 125 426 l 107 426 q 86 436 92 426 l 86 436 q 35 550 58 481 q 4 698 13 619 q 6 856 -4 776 q 52 997 15 935 q 157 1097 89 1060 q 333 1131 225 1135 z "},"N":{"ha":1269,"x_min":-4,"x_max":1299,"o":"m 349 1131 l 349 1131 q 455 1103 410 1131 q 533 1026 500 1075 q 585 912 565 978 q 618 769 606 846 l 618 769 q 663 913 636 846 q 728 1031 690 981 q 815 1111 765 1082 q 928 1140 864 1140 l 928 1140 q 1051 1088 1007 1140 q 1117 950 1096 1036 q 1142 754 1139 864 q 1141 531 1144 644 q 1132 307 1138 417 q 1131 111 1126 197 q 1156 -27 1136 25 q 1221 -79 1175 -79 l 1221 -79 q 1268 -68 1244 -79 l 1268 -68 q 1291 -72 1283 -61 q 1299 -99 1299 -83 q 1292 -128 1299 -114 q 1274 -143 1286 -143 l 1274 -143 q 1069 -99 1147 -147 q 948 33 990 -50 q 891 223 906 115 q 876 443 876 331 q 885 664 876 556 q 895 858 893 772 q 887 995 897 943 q 840 1047 876 1047 l 840 1047 q 781 1006 808 1047 q 731 902 753 965 q 693 762 710 839 q 665 611 676 685 q 647 476 654 538 q 639 386 640 415 l 639 386 q 632 167 638 269 q 624 -7 626 64 l 624 -7 q 587 -51 622 -36 q 510 -65 551 -65 l 510 -65 q 434 -52 468 -65 q 401 -14 400 -39 l 401 -14 q 405 73 403 13 q 409 213 407 133 q 412 387 411 293 q 408 574 413 481 q 395 755 404 668 q 369 908 386 842 q 326 1013 353 974 q 263 1051 300 1053 l 263 1051 q 192 1020 217 1050 q 160 944 168 990 q 156 844 151 899 q 173 735 161 789 q 201 638 185 682 q 232 569 218 593 l 232 569 q 238 520 247 546 q 206 474 228 494 q 158 440 185 453 q 113 426 132 426 l 113 426 q 90 436 96 426 l 90 436 q 38 550 61 481 q 5 698 14 619 q 6 856 -4 776 q 55 997 17 935 q 165 1097 93 1060 q 349 1131 236 1135 z "},"O":{"ha":965,"x_min":-1,"x_max":881,"o":"m 483 1174 l 483 1174 q 624 1151 564 1176 q 723 1083 683 1126 q 782 981 763 1039 q 803 860 801 924 l 803 860 q 863 689 846 783 q 874 497 881 594 q 836 303 867 399 q 753 132 806 208 q 627 4 701 56 q 458 -58 553 -47 l 458 -58 q 260 -26 346 -72 q 116 102 174 19 q 29 296 58 185 q -1 525 0 407 q 28 758 -1 643 q 118 964 58 872 q 269 1113 178 1056 q 483 1174 361 1171 z m 474 29 l 474 29 q 597 65 543 29 q 690 160 650 101 q 755 292 729 218 q 792 444 781 367 q 801 594 803 521 q 783 722 799 667 l 783 722 q 718 579 763 649 l 718 579 q 683 545 703 556 q 643 535 663 535 l 643 535 q 590 551 615 535 q 551 590 565 567 q 536 642 536 614 q 557 694 536 669 l 557 694 q 626 796 597 739 q 665 908 654 853 l 665 908 q 603 924 635 925 l 603 924 q 580 934 589 924 q 568 958 571 944 q 571 983 565 971 q 592 996 576 994 l 592 996 q 669 985 631 997 l 669 985 q 635 1063 664 1032 q 544 1096 607 1093 l 544 1096 q 424 1052 476 1097 q 337 933 372 1007 q 283 763 301 858 q 260 566 264 667 q 269 369 257 465 q 308 197 281 272 q 376 75 335 121 q 474 29 418 29 z "},"P":{"ha":836,"x_min":-1,"x_max":792,"o":"m 0 979 l 0 979 q 10 1017 6 1013 q 24 1022 15 1021 l 24 1022 q 158 1067 100 1038 q 253 1117 217 1097 l 253 1117 q 278 1115 268 1125 q 289 1090 289 1104 l 289 1090 l 289 969 q 335 1033 310 1003 q 389 1085 360 1063 q 453 1122 418 1108 q 528 1138 488 1136 l 528 1138 q 668 1105 613 1140 q 753 1010 724 1069 q 787 876 782 951 q 776 721 792 800 q 724 565 760 642 q 636 429 688 489 q 518 333 585 369 q 374 296 451 296 l 374 296 q 289 308 333 296 l 289 308 l 289 -26 q 255 -74 289 -58 q 181 -89 221 -89 l 181 -89 q 109 -75 142 -89 q 76 -33 76 -61 l 76 -33 l 76 874 q 64 933 76 915 q 37 957 51 950 q 10 967 22 964 q 0 979 -1 969 z m 289 828 l 289 379 q 365 389 328 367 q 436 456 403 411 q 497 560 469 500 q 542 686 524 621 q 567 815 560 751 q 567 928 574 878 q 538 1009 560 978 q 474 1039 515 1040 l 474 1039 q 383 979 428 1036 q 293 826 338 922 l 293 826 l 289 828 z "},"Q":{"ha":1028,"x_min":0,"x_max":994,"o":"m 485 1174 l 485 1174 q 624 1151 565 1176 q 723 1083 683 1126 q 782 981 763 1039 q 803 860 801 924 l 803 860 q 863 692 844 785 q 874 502 881 599 q 839 312 868 406 q 760 142 810 218 l 760 142 q 813 126 788 132 q 858 121 838 121 l 858 121 q 920 144 899 121 q 939 226 942 168 l 939 226 q 956 244 939 244 l 956 244 q 982 231 969 244 q 992 194 994 218 l 992 194 q 963 61 982 115 q 917 -26 943 7 q 858 -74 890 -60 q 790 -89 826 -89 l 790 -89 q 693 -69 743 -89 q 593 -17 643 -49 l 593 -17 q 528 -43 563 -32 q 458 -58 494 -54 l 458 -58 q 260 -26 346 -72 q 116 102 174 19 q 29 296 58 185 q 0 525 0 407 q 29 758 0 643 q 119 964 58 872 q 270 1113 179 1056 q 485 1174 361 1171 z m 474 29 l 474 29 q 522 33 500 29 l 522 33 q 456 90 488 61 q 396 146 424 118 l 396 146 q 381 187 381 161 q 390 237 381 213 q 414 276 399 261 q 443 285 429 292 l 443 285 q 567 226 501 258 q 694 167 632 193 l 694 167 q 758 299 733 225 q 792 448 782 372 q 801 595 803 524 q 783 722 799 667 l 783 722 q 718 579 763 649 l 718 579 q 683 545 703 556 q 643 535 663 535 l 643 535 q 590 551 615 535 q 551 590 565 567 q 536 642 536 614 q 557 694 536 669 l 557 694 q 626 796 597 739 q 665 908 654 853 l 665 908 q 603 924 635 925 l 603 924 q 580 934 589 924 q 568 958 571 944 q 571 983 565 971 q 592 996 576 994 l 592 996 q 669 985 631 997 l 669 985 q 636 1063 665 1032 q 544 1096 607 1093 l 544 1096 q 424 1052 476 1097 q 337 933 372 1007 q 283 763 301 858 q 260 566 264 667 q 269 369 257 465 q 308 197 281 272 q 376 75 335 121 q 474 29 418 29 z "},"R":{"ha":854,"x_min":-1,"x_max":1117,"o":"m 0 979 l 0 979 q 10 1017 6 1013 q 24 1022 15 1021 l 24 1022 q 158 1067 100 1038 q 253 1117 217 1097 l 253 1117 q 278 1115 268 1125 q 289 1090 289 1104 l 289 1090 l 289 997 q 387 1095 329 1056 q 517 1138 444 1135 l 517 1138 q 685 1096 624 1140 q 768 982 747 1051 q 772 830 789 913 q 702 674 754 747 q 566 547 650 600 q 371 485 482 494 l 371 485 q 516 431 450 481 q 638 309 582 381 q 740 156 693 238 q 828 3 786 74 q 910 -113 871 -67 q 988 -160 949 -160 l 988 -160 q 1054 -121 1024 -160 l 1054 -121 q 1081 -108 1067 -108 l 1081 -108 q 1099 -115 1090 -108 q 1113 -131 1108 -121 q 1115 -153 1117 -140 q 1101 -178 1113 -165 l 1101 -178 q 1007 -260 1053 -235 q 917 -285 961 -285 l 917 -285 q 802 -246 858 -285 q 692 -144 746 -207 q 585 -3 638 -82 q 483 158 533 76 q 385 315 433 239 q 289 447 336 392 l 289 447 l 289 -26 q 255 -74 289 -58 q 181 -89 221 -89 l 181 -89 q 109 -75 142 -89 q 76 -33 76 -61 l 76 -33 l 76 874 q 64 933 76 915 q 37 957 51 950 q 10 967 22 964 q 0 979 -1 969 z m 289 844 l 289 844 l 289 539 q 405 588 353 547 q 493 684 457 628 q 547 803 529 740 q 564 918 565 865 q 538 1006 563 971 q 464 1039 514 1040 l 464 1039 q 370 983 419 1038 q 289 844 321 929 z "},"S":{"ha":896,"x_min":0,"x_max":800,"o":"m 0 829 l 0 829 q 26 964 0 899 q 103 1079 51 1029 q 231 1160 154 1129 q 410 1190 308 1190 l 410 1190 q 578 1157 511 1190 q 683 1074 644 1124 q 734 966 721 1024 q 740 858 747 908 q 707 775 732 808 q 644 742 682 742 l 644 742 q 611 744 629 742 q 577 751 593 746 q 551 768 561 757 q 540 796 540 779 l 540 796 q 544 857 540 824 q 547 925 547 890 q 542 992 547 960 q 522 1052 538 1025 q 474 1098 506 1079 q 393 1121 443 1117 l 393 1121 q 328 1110 358 1124 q 276 1072 299 1097 q 241 1011 254 1046 q 228 936 228 976 l 228 936 q 251 832 226 878 q 317 749 276 786 q 410 678 358 711 q 517 610 463 644 q 624 538 572 576 q 715 453 675 500 q 777 345 754 406 q 796 207 800 285 l 796 207 q 745 43 790 103 q 635 -46 700 -17 q 498 -82 571 -75 q 364 -89 425 -89 l 364 -89 q 208 -67 272 -89 q 102 -4 143 -44 q 42 94 61 36 q 22 225 22 153 l 22 225 q 56 330 22 292 q 139 368 90 368 l 139 368 q 224 352 206 368 q 239 311 243 336 q 220 255 235 286 q 206 193 206 224 l 206 193 q 219 124 206 158 q 255 61 232 89 q 311 16 278 33 q 383 -1 344 -1 l 383 -1 q 462 22 425 -1 q 522 85 499 46 q 550 175 546 124 q 529 282 554 226 q 444 393 504 338 q 281 496 385 449 l 281 496 q 190 542 239 515 q 99 608 140 568 q 28 701 57 647 q 0 829 0 756 z "},"T":{"ha":1068,"x_min":-6,"x_max":1310,"o":"m 407 672 l 407 672 q 522 667 450 672 q 682 654 594 661 l 682 654 q 680 792 683 721 q 672 933 676 864 q 666 1066 668 1003 q 668 1179 664 1129 l 668 1179 q 586 1188 622 1188 l 586 1188 q 456 1133 500 1188 q 396 946 411 1078 l 396 946 q 375 908 393 919 q 333 896 357 896 l 333 896 q 281 906 308 896 q 233 932 254 915 q 197 971 211 949 q 186 1018 183 993 l 186 1018 q 221 1163 194 1106 q 288 1253 247 1219 q 380 1301 328 1288 q 490 1314 432 1314 l 490 1314 q 628 1301 557 1314 q 767 1272 699 1288 q 896 1244 835 1257 q 1003 1231 957 1231 l 1003 1231 q 1071 1246 1044 1231 q 1103 1299 1097 1261 l 1103 1299 q 1128 1336 1106 1325 q 1179 1347 1150 1347 l 1179 1347 q 1227 1340 1203 1347 q 1270 1322 1251 1333 q 1299 1294 1289 1310 q 1304 1260 1310 1278 l 1304 1260 q 1231 1140 1282 1174 q 1107 1107 1179 1107 l 1107 1107 q 992 1120 1054 1107 q 858 1150 929 1133 l 858 1150 q 897 982 879 1076 q 922 783 914 888 q 926 569 929 678 q 903 358 922 461 q 845 165 883 256 q 746 8 807 75 q 599 -99 685 -60 q 397 -137 513 -137 l 397 -137 q 242 -103 313 -137 q 121 -11 172 -68 q 39 119 69 46 q 1 267 8 192 q 14 416 -6 343 q 82 546 33 489 q 211 638 131 603 q 407 672 292 672 z m 388 -57 l 388 -57 q 513 -5 461 -57 q 599 129 565 47 q 652 311 633 211 q 676 506 671 411 l 676 506 q 565 508 617 507 q 474 510 513 510 l 474 510 q 265 468 346 510 q 146 363 185 426 q 107 226 107 300 q 140 90 107 153 q 237 -15 174 26 q 388 -57 300 -57 z "},"U":{"ha":1374,"x_min":-4,"x_max":1447,"o":"m 333 1131 l 333 1131 q 465 1087 415 1131 q 540 972 514 1043 q 575 808 567 900 q 583 621 583 717 q 577 433 582 525 q 572 271 572 342 q 582 156 572 200 q 619 114 592 113 l 619 114 q 706 170 667 115 q 778 312 746 225 q 836 504 811 399 q 879 710 861 610 q 908 896 897 811 q 922 1025 919 981 l 922 1025 q 942 1062 924 1044 q 987 1092 961 1079 q 1042 1113 1013 1106 q 1094 1121 1071 1121 l 1094 1121 q 1127 1115 1114 1121 q 1140 1093 1140 1108 l 1140 1093 l 1140 619 q 1140 537 1140 589 q 1142 424 1140 485 q 1149 299 1144 363 q 1165 186 1154 236 q 1192 105 1175 136 q 1235 75 1210 74 l 1235 75 q 1283 111 1261 78 q 1323 190 1306 144 q 1354 285 1340 236 q 1376 364 1368 333 l 1376 364 q 1401 378 1381 378 l 1401 378 q 1432 367 1417 378 q 1440 338 1447 357 l 1440 338 q 1407 224 1425 283 q 1363 115 1389 165 q 1301 29 1338 64 q 1213 -11 1265 -6 l 1213 -11 q 1100 -1 1147 -21 q 1022 61 1053 19 q 972 160 990 103 q 943 281 953 218 q 931 410 933 344 q 928 531 928 475 l 928 531 q 868 331 906 431 q 781 153 831 232 q 672 24 732 74 q 546 -25 613 -25 l 546 -25 q 440 22 478 -25 q 382 144 401 68 q 359 317 363 219 q 356 515 356 414 q 358 712 357 615 q 351 883 360 808 q 321 1003 343 958 q 251 1047 299 1049 l 251 1047 q 184 1015 207 1046 q 153 936 161 983 q 149 831 144 889 q 165 717 154 772 q 192 615 176 663 q 221 543 207 568 l 221 543 q 226 492 235 518 q 197 444 217 465 q 151 408 176 422 q 107 394 125 394 l 107 394 q 86 404 92 394 l 86 404 q 35 524 58 451 q 4 679 13 597 q 6 844 -4 761 q 52 991 15 926 q 157 1095 89 1056 q 333 1131 225 1135 z "},"V":{"ha":1110,"x_min":-1,"x_max":1043,"o":"m 297 1131 l 297 1131 q 433 1087 379 1131 q 520 972 486 1043 q 572 809 554 900 q 600 622 590 718 q 615 435 610 526 q 627 273 619 344 q 649 158 635 201 q 690 114 663 114 l 690 114 q 774 171 738 114 q 835 318 810 228 q 874 521 860 408 q 894 744 889 633 q 893 953 899 856 q 874 1113 888 1051 l 874 1113 q 881 1137 871 1125 q 908 1159 890 1149 q 947 1176 925 1169 q 988 1182 968 1182 l 988 1182 q 1025 1172 1010 1182 q 1039 1138 1040 1161 l 1039 1138 q 1042 1011 1043 1088 q 1033 844 1042 935 q 1010 653 1025 753 q 972 456 996 553 q 917 272 949 360 q 843 119 885 185 q 749 14 801 53 q 632 -25 696 -25 l 632 -25 q 520 22 564 -25 q 450 144 476 68 q 409 317 424 219 q 385 515 394 414 q 366 712 375 615 q 341 883 357 808 q 298 1003 325 958 q 224 1047 271 1049 l 224 1047 q 160 1015 181 1046 q 138 936 140 983 q 145 831 135 889 q 173 717 156 772 q 210 615 190 663 q 247 543 231 568 l 247 543 q 257 492 264 518 q 232 444 250 465 q 190 408 214 422 q 149 394 167 394 l 149 394 q 126 404 135 394 l 126 404 q 63 524 93 451 q 16 679 33 597 q 0 844 -1 761 q 31 991 1 926 q 125 1095 61 1056 q 297 1131 189 1135 z "},"W":{"ha":1682,"x_min":-4,"x_max":1588,"o":"m 318 1131 l 318 1131 q 451 1087 400 1131 q 531 972 501 1043 q 573 808 561 900 q 589 621 585 717 q 592 433 593 525 q 593 271 590 342 q 608 156 596 200 q 647 114 619 113 l 647 114 q 717 153 686 115 q 775 253 749 190 q 822 396 801 315 q 858 561 842 476 q 884 729 874 646 q 901 881 894 813 l 901 881 q 917 910 903 896 q 952 936 931 925 q 999 953 974 947 q 1049 960 1024 960 l 1049 960 q 1108 944 1083 960 q 1136 893 1133 929 l 1136 893 l 1147 619 q 1151 537 1149 589 q 1158 424 1153 485 q 1170 299 1163 363 q 1190 186 1178 236 q 1222 105 1203 136 q 1265 75 1240 74 l 1265 75 q 1320 117 1296 78 q 1363 219 1344 156 q 1395 365 1382 282 q 1417 536 1408 447 q 1428 715 1425 625 q 1431 882 1432 804 q 1426 1021 1431 960 q 1413 1113 1421 1082 l 1413 1113 q 1419 1137 1410 1125 q 1446 1159 1429 1149 q 1483 1176 1463 1169 q 1524 1182 1504 1182 l 1524 1182 q 1561 1172 1546 1182 q 1576 1138 1576 1161 l 1576 1138 q 1586 958 1585 1068 q 1578 724 1588 849 q 1547 472 1569 599 q 1484 240 1524 344 q 1385 66 1444 135 q 1244 -11 1326 -3 l 1244 -11 q 1132 -1 1179 -21 q 1051 61 1085 19 q 997 160 1018 103 q 964 281 976 218 q 946 410 951 344 q 938 531 940 475 l 938 531 q 886 331 919 431 q 807 153 853 232 q 703 24 761 74 q 579 -25 646 -25 l 579 -25 q 471 22 511 -25 q 408 144 431 68 q 378 317 386 219 q 367 515 369 414 q 361 712 364 615 q 347 883 358 808 q 310 1003 335 958 q 239 1047 286 1049 l 239 1047 q 174 1015 196 1046 q 146 936 151 983 q 147 831 140 889 q 167 717 154 772 q 198 615 181 663 q 231 543 215 568 l 231 543 q 238 492 246 518 q 210 444 229 465 q 165 408 190 422 q 122 394 140 394 l 122 394 q 101 404 107 394 l 101 404 q 45 524 71 451 q 8 679 19 597 q 2 844 -4 761 q 43 991 8 926 q 144 1095 78 1056 q 318 1131 210 1135 z "},"X":{"ha":1113,"x_min":-6,"x_max":1185,"o":"m 354 1131 l 354 1131 q 463 1107 414 1131 q 551 1042 511 1083 q 622 944 590 1000 q 679 825 654 889 l 679 825 q 811 1007 746 925 q 931 1147 876 1089 l 931 1147 q 958 1165 943 1160 q 988 1171 972 1171 l 988 1171 q 1022 1163 1006 1171 q 1047 1143 1038 1156 q 1054 1115 1056 1131 q 1036 1085 1053 1100 l 1036 1085 q 884 918 965 1019 q 724 697 803 817 l 724 697 q 777 493 754 596 q 822 309 800 390 q 867 176 843 228 q 921 125 890 125 l 921 125 q 1000 148 968 125 q 1053 206 1032 171 q 1089 284 1075 242 q 1114 364 1103 326 l 1114 364 q 1139 378 1118 378 l 1139 378 q 1169 367 1154 378 q 1178 338 1185 357 l 1178 338 q 1138 219 1161 281 q 1080 105 1115 157 q 995 19 1044 53 q 876 -14 946 -14 l 876 -14 q 769 22 817 -14 q 685 119 722 58 q 619 260 647 181 q 565 428 590 340 l 565 428 q 465 203 504 311 q 421 11 426 94 l 421 11 q 398 -27 418 -15 q 354 -39 378 -39 l 354 -39 q 301 -24 325 -39 q 282 18 278 -10 l 282 18 q 312 140 290 74 q 365 279 333 207 q 438 428 397 351 q 524 582 478 506 l 524 582 q 476 758 500 674 q 425 908 453 843 q 365 1010 397 972 q 289 1047 332 1049 l 289 1047 q 219 1014 246 1046 q 180 933 193 982 q 166 824 167 883 q 173 707 165 764 q 196 603 181 650 q 231 531 211 556 l 231 531 q 244 481 250 506 q 219 435 238 456 q 176 403 201 415 q 129 390 150 390 l 129 390 q 101 401 110 390 l 101 401 q 38 521 64 447 q 3 676 11 594 q 8 842 -6 758 q 62 990 21 925 q 174 1095 103 1056 q 354 1131 246 1135 z "},"Y":{"ha":1272,"x_min":-4,"x_max":1142,"o":"m 333 1131 l 333 1131 q 465 1090 415 1131 q 543 985 515 1050 q 581 836 571 919 q 594 666 592 753 q 593 495 596 579 q 592 347 590 411 q 604 242 593 282 q 643 203 615 203 l 643 203 q 728 253 690 204 q 795 378 765 301 q 847 549 825 454 q 885 734 869 643 q 910 903 901 825 q 922 1025 918 981 l 922 1025 q 942 1062 924 1044 q 987 1092 961 1079 q 1042 1113 1013 1106 q 1094 1121 1071 1121 l 1094 1121 q 1127 1115 1114 1121 q 1140 1093 1140 1108 l 1140 1093 q 1141 849 1140 981 q 1140 585 1142 718 q 1135 324 1139 451 q 1121 90 1131 196 l 1121 90 q 1103 -53 1114 18 q 1074 -190 1093 -125 q 1026 -311 1056 -256 q 949 -408 996 -367 q 838 -474 903 -450 q 683 -500 772 -499 l 683 -500 q 533 -476 599 -501 q 423 -408 468 -451 q 353 -310 378 -365 q 326 -198 329 -256 q 342 -84 322 -140 q 404 15 361 -28 l 404 15 q 432 24 413 24 l 432 24 q 477 15 451 24 q 528 -8 503 7 q 576 -42 554 -22 q 608 -85 597 -62 q 617 -131 619 -107 q 590 -176 614 -154 l 590 -176 q 540 -250 556 -210 q 527 -326 524 -290 q 553 -387 531 -362 q 619 -411 576 -411 l 619 -411 q 738 -376 689 -411 q 819 -283 786 -340 q 873 -153 853 -225 q 905 -7 893 -81 q 921 133 917 67 q 926 247 925 200 l 926 247 l 926 521 q 870 339 904 422 q 792 194 836 256 q 692 99 747 133 q 569 64 636 64 l 569 64 q 462 106 501 64 q 401 219 422 149 q 375 378 381 289 q 368 559 369 467 q 366 740 367 651 q 355 898 365 829 q 322 1008 344 967 q 251 1047 299 1049 l 251 1047 q 184 1015 207 1046 q 153 936 161 983 q 149 831 144 889 q 165 717 154 772 q 192 615 176 663 q 221 543 207 568 l 221 543 q 226 492 235 518 q 197 444 217 465 q 151 408 176 422 q 107 394 125 394 l 107 394 q 86 404 92 394 l 86 404 q 35 524 58 451 q 4 679 13 597 q 6 844 -4 761 q 52 991 15 926 q 157 1095 89 1056 q 333 1131 225 1135 z "},"Z":{"ha":886,"x_min":-3,"x_max":785,"o":"m 0 285 l 0 285 q 16 314 0 300 q 54 338 32 328 q 101 353 76 347 q 146 358 126 358 l 146 358 q 173 354 163 358 q 183 340 183 350 l 183 340 q 167 267 171 308 q 167 181 163 225 q 186 95 172 138 q 223 21 200 53 q 278 -29 246 -11 q 351 -44 311 -47 l 351 -44 q 455 -6 413 -40 q 519 77 497 29 q 543 180 542 125 q 525 281 544 235 q 465 358 506 328 q 360 388 424 389 l 360 388 q 300 384 331 386 q 239 382 269 382 l 239 382 q 204 393 221 382 q 188 431 188 404 l 188 431 q 203 472 188 463 q 242 481 218 481 l 242 481 q 340 506 296 481 q 419 571 385 531 q 477 663 454 611 q 510 769 500 715 q 519 875 521 824 q 499 967 517 926 q 450 1031 482 1007 q 369 1056 418 1056 l 369 1056 q 317 1046 343 1056 q 272 1019 292 1036 q 238 980 251 1003 q 224 928 225 957 l 224 928 q 240 832 221 883 q 292 736 260 781 l 292 736 q 315 681 311 710 q 308 629 318 653 q 274 590 297 606 q 215 575 250 575 l 215 575 q 160 601 186 575 q 114 667 133 628 q 82 749 94 706 q 67 828 69 793 l 67 828 q 80 940 64 885 q 134 1040 96 996 q 233 1112 172 1085 q 378 1139 293 1139 l 378 1139 q 556 1094 485 1139 q 669 982 628 1050 q 719 833 710 914 q 710 677 729 751 q 646 547 692 603 q 529 474 600 490 l 529 474 q 657 426 601 463 l 657 426 q 703 391 681 413 q 744 340 726 369 q 774 272 763 310 q 785 183 785 233 l 785 183 q 751 47 785 107 q 660 -53 717 -12 q 533 -113 604 -93 q 389 -131 463 -133 l 389 -131 q 241 -108 313 -128 q 115 -41 169 -87 q 28 85 60 6 q 0 285 -3 164 z "},"~":{"ha":739,"x_min":104,"x_max":636,"o":"m 104 444 l 104 444 q 141 556 104 515 q 229 596 178 596 l 229 596 q 281 588 256 596 q 332 569 307 579 q 382 551 357 560 q 432 543 407 543 l 432 543 q 469 554 454 543 q 485 592 485 565 l 485 592 q 494 610 485 601 q 519 624 504 618 q 553 634 535 631 q 588 638 571 638 l 588 638 q 622 631 607 638 q 636 610 636 625 l 636 610 q 590 457 636 511 q 461 403 544 403 l 461 403 q 415 410 443 403 q 357 426 388 418 q 297 442 326 435 q 244 450 268 450 l 244 450 q 213 442 225 450 q 201 415 201 435 l 201 415 q 192 401 201 406 q 169 396 183 396 l 169 396 q 126 408 149 396 q 104 444 104 421 z "},"!":{"ha":450,"x_min":107,"x_max":317,"o":"m 306 1103 l 306 1103 q 311 826 317 958 q 294 592 306 694 l 294 592 q 264 367 282 471 l 264 367 q 249 335 264 346 q 215 325 235 325 l 215 325 q 182 335 197 325 q 167 367 167 346 l 167 367 q 165 399 168 367 q 159 483 163 431 q 150 601 156 535 q 138 735 144 667 q 126 870 132 804 q 117 988 121 936 q 110 1071 113 1039 q 107 1103 107 1103 l 107 1103 q 150 1133 117 1122 q 219 1144 183 1144 l 219 1144 q 278 1135 253 1144 q 306 1103 304 1125 z m 215 224 l 215 224 q 287 193 264 224 q 308 126 310 163 q 283 59 307 90 q 217 28 260 28 l 217 28 q 167 42 188 28 q 137 78 147 56 q 125 125 126 100 q 133 172 124 150 q 163 209 143 194 q 215 224 183 224 z "},"'":{"ha":428,"x_min":81,"x_max":317,"o":"m 218 1032 l 218 1032 q 258 965 239 999 q 290 901 276 931 q 310 851 303 872 q 315 821 317 829 l 315 821 q 306 811 315 814 q 285 808 297 808 l 285 808 q 251 812 268 808 q 226 821 233 815 l 226 821 q 182 860 206 838 q 138 908 158 883 q 101 958 117 933 q 82 1001 86 982 l 82 1001 q 88 1022 81 1013 q 107 1039 94 1032 q 135 1050 119 1046 q 167 1054 151 1054 l 167 1054 q 197 1049 183 1054 q 218 1032 211 1043 z "},"@":{"ha":1364,"x_min":97,"x_max":1267,"o":"m 708 1128 l 708 1128 q 915 1087 824 1128 q 1074 979 1006 1046 q 1185 827 1142 913 q 1248 652 1229 742 q 1262 477 1267 563 q 1226 325 1257 392 q 1141 217 1196 258 q 1004 176 1086 176 l 1004 176 q 915 194 953 176 q 853 244 878 213 q 813 317 828 275 q 789 407 797 360 l 789 407 q 753 320 774 361 q 706 247 733 279 q 645 197 679 215 q 569 175 611 178 l 569 175 q 457 203 504 172 q 381 288 410 235 q 340 410 351 342 q 335 550 329 479 q 363 688 340 621 q 424 806 385 756 q 517 885 463 857 q 640 904 571 913 l 640 904 q 683 897 660 904 q 728 876 706 889 q 768 845 750 863 q 794 808 786 828 l 794 808 q 784 786 800 796 q 751 776 768 776 l 751 776 q 729 788 736 776 l 729 788 q 705 813 722 803 q 667 822 688 824 l 667 822 q 603 781 628 822 q 567 678 579 739 q 554 545 556 617 q 560 413 553 474 q 581 311 567 351 q 614 272 594 271 l 614 272 q 653 299 635 274 q 690 363 672 324 q 722 452 707 403 q 748 550 736 501 q 768 642 760 599 q 781 713 776 685 l 781 713 l 781 726 q 791 749 781 739 q 818 765 801 758 q 856 776 835 772 q 897 779 876 779 l 897 779 q 962 767 933 779 q 989 726 990 754 l 989 726 q 986 647 988 694 q 985 547 985 599 q 990 444 986 496 q 1003 353 993 393 q 1031 288 1014 313 q 1075 265 1049 264 l 1075 265 q 1117 302 1099 267 q 1147 394 1136 338 q 1158 521 1158 450 q 1144 665 1158 592 q 1099 810 1131 739 q 1016 936 1068 881 q 888 1025 964 992 q 708 1058 813 1058 l 708 1058 q 499 1012 586 1058 q 356 890 411 965 q 277 717 301 814 q 258 520 253 621 q 295 323 263 419 q 385 151 328 226 q 522 28 442 75 q 703 -18 601 -18 l 703 -18 q 813 -1 768 -18 q 889 40 858 17 q 938 85 919 63 q 968 118 957 108 l 968 118 q 990 126 979 126 l 990 126 q 1026 108 1010 126 q 1051 71 1042 89 l 1051 71 q 1057 29 1063 46 q 1032 -7 1051 13 l 1032 -7 q 951 -50 999 -31 l 951 -50 q 849 -80 911 -67 q 703 -93 788 -93 l 703 -93 q 440 -40 553 -93 q 251 98 326 13 q 136 293 175 183 q 97 517 97 403 q 135 742 97 632 q 248 937 172 851 q 439 1075 324 1022 q 708 1128 554 1128 z "},"#":{"ha":1147,"x_min":97,"x_max":1054,"o":"m 124 844 l 124 844 l 294 844 q 303 973 300 908 q 310 1103 307 1038 l 310 1103 q 333 1134 304 1122 q 399 1146 361 1146 l 399 1146 q 465 1135 435 1146 q 501 1103 494 1125 l 501 1103 q 483 973 492 1038 q 468 844 475 908 l 468 844 l 694 844 q 703 973 699 908 q 710 1103 707 1038 l 710 1103 q 713 1121 707 1113 q 732 1135 719 1129 q 762 1143 744 1140 q 797 1146 779 1146 l 797 1146 q 863 1135 833 1146 q 900 1103 893 1125 l 900 1103 q 882 973 890 1038 q 867 844 874 908 l 867 844 l 1004 844 q 1032 824 1019 844 q 1049 780 1044 804 q 1049 735 1054 756 q 1026 715 1044 715 l 1026 715 l 853 715 l 829 474 l 1004 474 q 1032 453 1019 474 q 1049 409 1044 433 q 1049 365 1054 385 q 1026 344 1044 344 l 1026 344 l 819 344 l 796 33 q 775 10 800 18 q 715 1 750 1 l 715 1 q 644 10 678 1 q 606 33 611 18 l 606 33 q 626 188 617 111 q 646 344 636 265 l 646 344 l 419 344 l 397 33 q 376 10 401 18 q 317 1 351 1 l 317 1 q 245 10 279 1 q 207 33 211 18 l 207 33 q 228 188 218 111 q 247 344 238 265 l 247 344 l 147 344 q 119 365 131 344 q 103 409 107 385 q 103 453 99 433 q 124 474 108 474 l 124 474 l 261 474 q 274 593 268 533 q 285 715 279 653 l 285 715 l 147 715 q 117 735 129 715 q 101 780 106 756 q 102 824 97 804 q 124 844 107 844 z m 431 474 l 431 474 l 660 474 q 672 593 667 533 q 683 715 678 653 l 683 715 l 454 715 q 442 593 447 653 q 431 474 438 533 z "},"$":{"ha":933,"x_min":82,"x_max":853,"o":"m 82 760 l 82 760 q 101 850 82 806 q 157 931 119 894 q 250 993 194 967 q 379 1032 306 1019 l 379 1032 l 379 1131 q 413 1151 379 1144 q 483 1158 446 1158 l 483 1158 q 545 1152 518 1158 q 572 1131 572 1146 l 572 1131 l 572 1035 q 665 1010 619 1026 q 744 969 710 994 q 801 909 779 943 q 822 832 822 875 l 822 832 q 818 776 822 803 q 803 731 814 750 q 773 701 792 713 q 726 690 754 690 l 726 690 q 693 692 711 690 q 659 698 675 693 q 633 711 643 703 q 622 733 622 719 l 622 733 q 625 752 622 744 q 632 769 628 760 q 639 790 636 778 q 642 822 642 801 l 642 822 q 624 887 642 858 q 578 935 607 915 q 513 965 550 954 q 435 975 475 975 l 435 975 q 358 961 388 975 q 313 924 329 947 q 290 871 296 900 q 283 810 283 842 l 283 810 q 304 740 283 768 q 360 690 325 711 q 439 651 394 668 q 531 618 483 635 l 531 618 q 634 583 578 601 q 739 535 690 564 q 820 461 788 506 q 853 349 853 417 l 853 349 q 838 272 853 311 q 788 197 822 232 q 701 135 754 163 q 572 94 647 108 l 572 94 l 572 8 q 545 -14 572 -7 q 483 -21 518 -21 l 483 -21 q 413 -13 446 -21 q 379 8 379 -6 l 379 8 l 379 86 q 280 103 329 90 q 192 141 231 117 q 128 201 153 165 q 104 285 104 236 l 104 285 q 138 368 104 338 q 221 399 172 399 l 221 399 q 254 397 236 399 q 288 392 272 396 q 313 379 303 388 q 324 358 324 371 l 324 358 q 318 335 324 343 q 306 318 313 326 q 293 297 299 310 q 288 260 288 283 l 288 260 q 338 178 288 207 q 467 150 388 150 l 467 150 q 557 167 524 150 q 607 207 590 183 q 628 259 624 231 q 633 310 633 288 l 633 310 q 604 381 633 353 q 529 428 575 408 q 428 465 483 449 q 319 499 372 481 l 319 499 q 235 535 278 514 q 159 586 193 556 q 103 659 125 617 q 82 760 82 701 z "},"%":{"ha":1254,"x_min":64,"x_max":1194,"o":"m 67 831 l 67 831 q 85 924 69 875 q 130 1013 100 972 q 205 1080 160 1053 q 313 1107 250 1107 l 313 1107 q 417 1080 375 1107 q 485 1013 460 1053 q 519 924 510 972 q 526 831 529 875 l 526 831 q 508 739 524 788 q 463 649 493 690 q 388 581 433 608 q 281 554 343 554 l 281 554 q 176 581 218 554 q 108 649 133 608 q 74 739 83 690 q 67 831 64 788 z m 732 308 l 732 308 q 750 401 735 353 q 795 490 765 450 q 870 558 825 531 q 978 585 915 585 l 978 585 q 1083 558 1040 585 q 1150 490 1125 531 q 1185 401 1175 450 q 1192 308 1194 353 l 1192 308 q 1174 217 1189 265 q 1128 128 1158 169 q 1053 60 1099 88 q 946 33 1008 33 l 946 33 q 841 60 883 33 q 774 128 799 88 q 739 217 749 169 q 732 308 729 265 z m 751 1106 l 751 1106 q 781 1136 751 1125 q 846 1147 810 1147 l 846 1147 q 903 1137 878 1147 q 929 1106 929 1126 l 929 1106 q 708 570 811 836 q 504 36 604 304 l 504 36 q 479 11 504 19 q 422 3 454 3 l 422 3 q 357 12 386 3 q 328 36 328 21 l 328 36 q 553 570 446 304 q 751 1106 660 836 z m 294 629 l 294 629 q 334 655 319 629 q 356 715 349 681 q 367 782 364 749 q 369 831 369 815 l 369 831 q 367 879 369 846 q 356 946 364 913 q 333 1004 347 979 q 294 1029 318 1029 l 294 1029 q 258 1004 272 1029 q 237 946 244 979 q 226 879 229 913 q 224 831 224 846 l 224 831 q 226 781 224 814 q 235 714 228 747 q 257 655 243 681 q 294 629 271 629 z m 889 308 l 889 308 q 891 260 889 293 q 901 193 893 226 q 922 134 908 160 q 960 108 936 108 l 960 108 q 999 134 985 108 q 1022 193 1014 160 q 1032 260 1029 226 q 1035 308 1035 293 l 1035 308 q 1032 357 1035 324 q 1021 424 1029 390 q 998 482 1013 457 q 960 507 983 507 l 960 507 q 924 482 938 507 q 902 424 910 457 q 892 357 894 390 q 889 308 889 324 z "},"^":{"ha":807,"x_min":88,"x_max":725,"o":"m 99 617 l 99 617 l 357 1115 q 376 1134 363 1128 q 406 1140 389 1140 l 406 1140 q 435 1134 421 1140 q 456 1115 449 1128 l 456 1115 l 715 617 l 714 617 q 708 583 725 594 q 664 572 692 572 l 664 572 q 612 583 638 572 q 578 617 586 594 l 578 617 l 485 806 l 410 981 l 404 981 l 329 806 l 236 617 q 199 583 225 594 q 147 572 174 572 l 147 572 q 104 583 121 572 q 99 617 88 594 z "},"&":{"ha":1165,"x_min":93,"x_max":1061,"o":"m 322 596 l 322 596 q 292 619 317 603 q 239 663 267 635 q 190 736 211 692 q 168 846 168 781 l 168 846 q 199 977 168 921 q 280 1070 231 1033 q 391 1125 329 1107 q 515 1143 453 1143 l 515 1143 q 661 1120 589 1143 q 786 1049 733 1097 q 863 926 839 1001 q 860 743 886 850 l 860 743 q 828 714 854 724 q 767 704 801 704 l 767 704 q 722 708 744 704 q 681 722 699 713 q 653 744 663 731 q 646 774 643 757 l 646 774 q 655 867 653 815 q 644 964 657 919 q 601 1038 632 1008 q 514 1065 571 1068 l 514 1065 q 438 1040 464 1064 q 403 978 411 1015 q 403 894 396 940 q 426 803 410 849 q 467 717 443 757 q 518 651 492 678 l 518 651 q 535 619 531 639 q 538 580 540 599 q 525 547 535 561 q 499 533 515 533 l 499 533 q 484 537 494 533 q 463 545 474 540 q 442 555 451 550 q 429 561 433 560 l 429 561 q 365 517 389 560 q 331 413 340 475 q 329 280 322 351 q 360 147 336 208 q 422 45 383 86 q 518 4 461 4 l 518 4 q 597 29 563 4 q 656 94 632 54 q 695 182 681 133 q 716 278 710 231 q 719 366 722 325 q 706 431 717 407 l 706 431 q 672 436 693 436 l 672 436 q 640 428 654 436 q 626 396 626 419 l 626 396 q 617 380 626 385 q 594 375 608 375 l 594 375 q 551 388 574 375 q 529 428 529 401 l 529 428 q 566 544 529 501 q 656 588 603 588 l 656 588 q 697 579 671 588 q 751 560 722 571 q 808 542 779 550 q 861 533 838 533 l 861 533 q 897 544 883 533 q 911 583 911 556 l 911 583 q 921 602 911 593 q 945 617 931 611 q 978 628 960 624 q 1013 632 996 632 l 1013 632 q 1047 625 1032 632 q 1061 603 1061 618 l 1061 603 q 1015 439 1061 496 q 869 382 968 382 l 869 382 q 786 41 876 149 q 501 -67 696 -67 l 501 -67 q 293 -27 378 -67 q 162 75 208 13 q 104 215 115 138 q 115 365 93 292 q 189 501 136 439 q 322 596 242 563 z "},"*":{"ha":525,"x_min":83,"x_max":457,"o":"m 85 883 l 85 883 q 119 909 89 892 q 185 940 150 926 l 185 940 q 119 973 150 956 q 85 1000 89 990 l 85 1000 q 89 1019 83 1006 q 103 1048 94 1033 q 122 1074 113 1063 q 138 1086 132 1086 l 138 1086 q 172 1069 147 1086 q 224 1028 197 1051 l 224 1028 q 217 1094 218 1064 q 221 1133 215 1125 l 221 1133 q 238 1142 224 1139 q 269 1144 253 1144 l 269 1144 q 301 1142 286 1144 q 318 1133 315 1139 l 318 1133 q 322 1094 322 1125 q 315 1028 321 1064 l 315 1028 q 367 1069 342 1051 q 401 1086 393 1086 l 401 1086 q 418 1074 408 1086 q 436 1048 428 1063 q 451 1019 444 1033 q 454 1000 457 1006 l 454 1000 q 418 973 449 990 q 354 940 388 956 l 354 940 q 418 909 388 926 q 454 883 449 892 l 454 883 q 451 863 457 878 q 436 833 444 849 q 418 807 428 818 q 401 796 408 796 l 401 796 q 367 813 393 796 q 315 853 342 829 l 315 853 q 322 787 321 818 q 318 749 322 756 l 318 749 q 301 741 315 743 q 269 739 286 739 l 269 739 q 238 741 253 739 q 221 749 224 743 l 221 749 q 217 787 215 756 q 224 853 218 818 l 224 853 q 172 813 197 829 q 138 796 147 796 l 138 796 q 122 807 132 796 q 103 833 113 818 q 89 863 94 849 q 85 883 83 878 z "},"(":{"ha":481,"x_min":103,"x_max":439,"o":"m 297 1154 l 297 1154 q 332 1184 310 1174 q 378 1194 354 1194 l 378 1194 q 414 1184 399 1194 q 429 1154 429 1174 l 429 1154 q 267 501 271 828 q 429 -153 263 175 l 429 -153 q 422 -185 439 -171 q 378 -200 406 -200 l 378 -200 q 337 -190 358 -200 q 297 -153 315 -181 l 297 -153 q 150 172 197 8 q 104 501 103 336 q 155 831 106 667 q 297 1154 204 994 z "},")":{"ha":481,"x_min":43,"x_max":379,"o":"m 53 -153 l 53 -153 q 215 501 219 175 q 53 1154 211 828 l 53 1154 q 68 1184 53 1174 q 104 1194 83 1194 l 104 1194 q 150 1184 128 1194 q 185 1154 172 1174 l 185 1154 q 328 831 279 994 q 378 501 376 667 q 332 172 379 336 q 185 -153 285 8 l 185 -153 q 145 -190 167 -181 q 104 -200 124 -200 l 104 -200 q 60 -185 76 -200 q 53 -153 43 -171 z "},"-":{"ha":871,"x_min":119,"x_max":758,"o":"m 154 568 l 154 568 l 724 568 q 749 547 740 568 q 758 501 757 526 q 750 454 758 475 q 722 433 742 433 l 722 433 l 154 433 q 128 454 136 433 q 119 501 119 475 q 128 547 119 526 q 154 568 138 568 z "},"+":{"ha":918,"x_min":122,"x_max":775,"o":"m 140 572 l 140 572 q 168 578 147 578 l 168 578 q 266 567 204 578 q 394 551 328 557 l 394 551 q 385 637 392 594 q 375 716 379 679 q 370 779 371 753 q 375 817 369 806 l 375 817 q 403 830 382 825 q 450 835 424 835 l 450 835 q 497 830 475 835 q 524 817 519 825 l 524 817 q 529 779 531 806 q 524 716 528 753 q 513 637 519 679 q 504 551 507 594 l 504 551 q 630 568 568 558 q 729 578 692 578 l 729 578 q 760 572 750 578 l 760 572 q 772 544 768 567 q 775 496 775 522 q 772 447 775 469 q 760 418 768 424 l 760 418 q 728 414 750 414 l 728 414 q 684 417 710 414 q 629 424 658 419 q 568 432 600 428 q 504 438 536 436 l 504 438 q 513 353 507 396 q 524 276 519 311 q 529 215 528 240 q 524 178 531 189 l 524 178 q 497 165 519 169 q 450 160 475 160 l 450 160 q 403 165 424 160 q 375 178 382 169 l 375 178 q 371 215 369 189 q 376 276 372 240 q 386 353 381 311 q 394 438 392 396 l 394 438 q 331 432 363 436 q 269 424 299 428 q 215 417 240 419 q 171 414 189 414 l 171 414 q 140 418 149 414 l 140 418 q 127 447 132 424 q 122 496 122 469 q 127 544 122 522 q 140 572 132 567 z "},"=":{"ha":918,"x_min":132,"x_max":771,"o":"m 167 418 l 167 418 l 736 418 q 761 397 753 418 q 770 351 769 376 q 763 306 771 326 q 735 285 754 285 l 735 285 l 167 285 q 140 306 149 285 q 132 351 132 326 q 141 397 132 376 q 167 418 150 418 z m 167 701 l 167 701 l 736 701 q 761 681 753 701 q 770 635 769 660 q 763 589 771 610 q 735 568 754 568 l 735 568 l 167 568 q 140 589 149 568 q 132 635 132 610 q 141 681 132 660 q 167 701 150 701 z "},";":{"ha":428,"x_min":101,"x_max":299,"o":"m 104 -150 l 104 -150 q 127 -66 119 -111 q 138 23 135 -21 q 140 106 142 67 q 133 172 138 146 l 133 172 q 158 193 133 186 q 213 200 182 200 l 213 200 q 261 194 239 200 q 289 172 283 188 l 289 172 q 296 127 293 158 q 299 71 299 96 l 299 71 q 290 -6 299 29 q 266 -68 281 -40 q 233 -116 251 -96 q 197 -150 215 -136 l 197 -150 q 172 -162 188 -158 q 140 -165 156 -165 l 140 -165 q 113 -162 124 -165 q 104 -150 101 -158 z m 107 676 l 107 676 l 107 699 q 113 728 107 713 q 131 756 119 743 q 159 776 142 768 q 199 785 176 785 l 199 785 q 238 776 221 785 q 268 756 256 768 q 287 728 281 743 q 293 699 293 713 l 293 699 l 293 676 q 287 647 293 663 q 269 619 281 632 q 240 599 257 607 q 199 590 222 590 l 199 590 q 158 599 175 590 q 129 619 140 607 q 113 647 118 632 q 107 676 107 663 z "},":":{"ha":424,"x_min":107,"x_max":292,"o":"m 197 785 l 197 785 q 237 776 219 785 q 267 756 254 768 q 285 728 279 743 q 292 699 292 713 l 292 699 l 292 676 q 286 647 292 663 q 269 619 281 632 q 239 599 257 607 q 197 590 221 590 l 197 590 q 157 599 174 590 q 129 619 140 607 q 113 647 118 632 q 107 676 107 663 l 107 676 l 107 699 q 113 728 107 713 q 131 756 119 743 q 158 776 142 768 q 197 785 175 785 z m 107 114 l 107 138 q 113 165 107 150 q 131 193 119 181 q 158 214 142 206 q 197 222 175 222 l 197 222 q 237 214 219 222 q 267 193 254 206 q 285 165 279 181 q 292 138 292 150 l 292 138 l 292 114 q 286 86 292 101 q 269 58 281 71 q 239 38 257 46 q 197 29 221 29 l 197 29 q 157 37 174 29 q 129 57 140 44 q 113 85 118 69 q 107 114 107 100 l 107 114 z "},".":{"ha":408,"x_min":100,"x_max":285,"o":"m 100 114 l 100 114 l 100 138 q 106 165 100 150 q 124 193 113 181 q 151 214 135 206 q 190 222 168 222 l 190 222 q 230 214 213 222 q 260 193 247 206 q 278 165 272 181 q 285 138 285 150 l 285 138 l 285 114 q 279 86 285 101 q 262 58 274 71 q 232 38 250 46 q 190 29 214 29 l 190 29 q 150 37 167 29 q 122 57 133 44 q 106 85 111 69 q 100 114 100 100 z "},",":{"ha":408,"x_min":92,"x_max":289,"o":"m 94 -150 l 94 -150 q 117 -66 110 -111 q 128 23 125 -21 q 130 106 132 67 q 124 172 128 146 l 124 172 q 148 193 124 186 q 203 200 172 200 l 203 200 q 251 194 229 200 q 279 172 274 188 l 279 172 q 286 127 283 158 q 289 71 289 96 l 289 71 q 280 -6 289 29 q 256 -68 271 -40 q 224 -116 242 -96 q 188 -150 206 -136 l 188 -150 q 162 -162 178 -158 q 131 -165 146 -165 l 131 -165 q 103 -162 114 -165 q 94 -150 92 -158 z "},"“":{"ha":590,"x_min":82,"x_max":493,"o":"m 139 1125 l 139 1125 q 155 1135 143 1132 q 182 1139 167 1139 l 182 1139 q 215 1135 200 1139 q 229 1124 229 1131 l 229 1124 q 233 1040 229 1071 q 242 985 238 1008 q 253 942 247 963 q 263 893 258 922 l 263 893 q 245 874 263 885 q 205 853 228 864 q 158 836 182 843 q 119 829 133 829 l 119 829 q 113 830 115 829 q 107 832 110 831 l 107 832 q 85 888 89 849 q 89 974 82 928 q 110 1062 96 1019 q 139 1125 124 1104 z m 369 1125 l 369 1125 q 385 1135 374 1132 q 413 1139 397 1139 l 413 1139 q 445 1135 431 1139 q 460 1124 460 1131 l 460 1124 q 464 1040 460 1071 q 473 985 468 1008 q 483 942 478 963 q 493 893 489 922 l 493 893 q 476 874 493 885 q 435 853 458 864 q 388 836 413 843 q 350 829 364 829 l 350 829 q 339 832 344 829 l 339 832 q 317 888 321 849 q 320 974 314 928 q 340 1062 326 1019 q 369 1125 354 1104 z "},"”":{"ha":563,"x_min":81,"x_max":492,"o":"m 454 1139 l 454 1139 q 461 1138 458 1139 q 467 1136 464 1138 l 467 1136 q 488 1080 485 1119 q 485 994 492 1040 q 464 906 478 949 q 435 843 450 864 l 435 843 q 419 833 431 836 q 392 829 407 829 l 392 829 q 359 833 374 829 q 344 844 344 838 l 344 844 q 340 928 344 897 q 331 983 336 960 q 321 1026 326 1006 q 311 1075 315 1046 l 311 1075 q 328 1094 311 1083 q 369 1115 346 1104 q 416 1132 392 1125 q 454 1139 440 1139 z m 81 1075 l 81 1075 q 98 1094 81 1083 q 138 1115 115 1104 q 185 1132 161 1125 q 224 1139 210 1139 l 224 1139 q 235 1136 229 1139 l 235 1136 q 257 1080 254 1119 q 253 994 260 1040 q 233 906 247 949 q 204 843 219 864 l 204 843 q 188 833 200 836 q 161 829 176 829 l 161 829 q 128 833 143 829 q 114 844 114 838 l 114 844 q 110 928 114 897 q 101 983 106 960 q 90 1026 96 1006 q 81 1075 85 1046 z "},">":{"ha":858,"x_min":117,"x_max":765,"o":"m 164 393 l 164 393 l 569 561 l 569 567 l 367 650 l 164 738 q 128 776 139 747 q 117 835 117 804 q 127 889 117 865 q 156 913 138 913 l 156 913 q 160 912 158 913 q 164 911 161 911 l 164 911 l 742 621 q 758 603 753 618 q 765 569 764 588 q 760 532 765 550 q 742 507 754 514 l 742 507 l 164 218 q 160 217 163 218 q 157 217 158 217 l 157 217 q 128 240 139 217 q 117 294 117 264 q 128 354 117 325 q 164 393 139 383 z "},"<":{"ha":851,"x_min":85,"x_max":733,"o":"m 108 621 l 108 621 l 686 911 q 690 912 689 911 q 694 913 692 913 l 694 913 q 723 889 713 913 q 733 835 733 865 q 722 776 733 804 q 686 738 711 747 l 686 738 l 483 650 l 281 567 l 281 561 l 686 393 q 722 354 711 383 q 733 294 733 325 q 722 240 733 264 q 693 217 711 217 l 693 217 q 690 217 692 217 q 686 218 688 218 l 686 218 l 108 507 q 90 532 96 514 q 85 569 85 550 q 92 603 86 588 q 108 621 97 618 z "},"‘":{"ha":371,"x_min":85,"x_max":265,"o":"m 142 1125 l 142 1125 q 158 1135 146 1132 q 185 1139 169 1139 l 185 1139 q 217 1135 203 1139 q 232 1124 232 1131 l 232 1124 q 236 1040 232 1071 q 245 985 240 1008 q 256 942 250 963 q 265 893 261 922 l 265 893 q 248 874 265 885 q 208 853 231 864 q 160 836 185 843 q 122 829 136 829 l 122 829 q 115 830 118 829 q 110 832 113 831 l 110 832 q 88 888 92 849 q 92 974 85 928 q 113 1062 99 1019 q 142 1125 126 1104 z "},"’":{"ha":374,"x_min":96,"x_max":276,"o":"m 96 1075 l 96 1075 q 113 1094 96 1083 q 153 1115 131 1104 q 201 1132 176 1125 q 239 1139 225 1139 l 239 1139 q 246 1138 243 1139 q 251 1136 249 1138 l 251 1136 q 273 1080 269 1119 q 269 994 276 1040 q 249 906 263 949 q 219 843 235 864 l 219 843 q 203 833 215 836 q 176 829 192 829 l 176 829 q 144 833 158 829 q 129 844 129 838 l 129 844 q 125 928 129 897 q 116 983 121 960 q 106 1026 111 1006 q 96 1075 100 1046 z "},"/":{"ha":749,"x_min":82,"x_max":676,"o":"m 501 1096 l 501 1096 q 530 1126 501 1115 q 594 1138 558 1138 l 594 1138 q 651 1127 626 1138 q 676 1096 676 1117 l 676 1096 q 456 565 558 829 q 257 35 354 301 l 257 35 q 232 10 257 18 q 175 3 207 3 l 175 3 q 110 11 139 3 q 82 35 82 19 l 82 35 q 305 565 200 301 q 501 1096 410 829 z "},"\\":{"ha":717,"x_min":60,"x_max":654,"o":"m 142 1138 l 142 1138 q 206 1126 178 1138 q 235 1096 235 1115 l 235 1096 q 431 565 326 829 q 654 35 536 301 l 654 35 q 626 11 654 19 q 561 3 597 3 l 561 3 q 504 10 529 3 q 479 35 479 18 l 479 35 q 280 565 382 301 q 60 1096 178 829 l 60 1096 q 85 1127 60 1117 q 142 1138 110 1138 z "},"?":{"ha":769,"x_min":60,"x_max":704,"o":"m 401 1140 l 401 1140 q 533 1119 476 1140 q 627 1061 589 1099 q 685 972 665 1024 q 704 856 704 919 l 704 856 q 683 727 704 778 q 631 640 663 676 q 563 577 599 604 q 494 519 526 550 q 442 444 463 488 q 421 335 421 401 l 421 335 q 398 295 421 308 q 347 282 375 282 l 347 282 q 292 296 317 282 q 268 335 268 310 l 268 335 q 287 452 268 407 q 333 530 306 497 q 394 588 361 563 q 454 644 426 613 q 501 719 482 675 q 519 833 519 764 l 519 833 q 486 999 519 936 q 379 1063 453 1063 l 379 1063 q 279 1020 318 1063 q 240 914 240 978 l 240 914 q 243 867 240 883 q 249 844 246 851 q 256 833 253 836 q 258 824 258 831 l 258 824 l 258 810 q 248 785 258 794 q 222 770 238 775 q 189 763 207 765 q 156 761 171 761 l 156 761 q 79 797 99 761 q 60 903 60 832 l 60 903 q 87 1003 60 960 q 161 1078 114 1047 q 270 1124 208 1108 q 401 1140 332 1140 z m 253 115 l 253 115 l 253 139 q 258 167 253 151 q 276 194 264 182 q 304 215 288 207 q 343 224 321 224 l 343 224 q 383 215 365 224 q 413 194 400 207 q 431 167 425 182 q 438 139 438 151 l 438 139 l 438 115 q 431 88 438 103 q 413 59 425 72 q 384 38 401 46 q 343 29 367 29 l 343 29 q 303 38 319 29 q 275 58 286 46 q 258 86 264 71 q 253 115 253 101 z "},"{":{"ha":660,"x_min":79,"x_max":600,"o":"m 121 564 l 121 564 q 213 581 179 571 q 262 615 247 592 q 274 681 276 639 q 254 794 271 724 l 254 794 q 239 918 236 865 q 258 1010 242 971 q 303 1077 275 1050 q 361 1122 331 1104 l 361 1122 q 539 1168 435 1163 l 539 1168 q 586 1157 572 1168 q 599 1133 600 1146 q 582 1110 597 1121 q 539 1099 567 1099 l 539 1099 q 450 1057 486 1086 l 450 1057 q 399 986 418 1032 q 400 864 381 940 l 400 864 q 415 736 419 792 q 391 640 410 681 q 344 570 372 599 q 290 522 317 542 l 290 522 q 345 478 317 504 q 392 415 374 453 q 417 324 411 376 q 403 201 422 272 l 403 201 q 397 67 379 117 q 446 -11 414 17 l 446 -11 q 538 -54 483 -43 l 538 -54 l 539 -54 q 582 -65 567 -54 q 599 -89 597 -76 q 585 -112 600 -101 q 538 -124 571 -124 l 538 -124 q 363 -79 435 -118 l 363 -79 q 305 -36 332 -62 q 260 28 278 -10 q 239 119 243 67 q 251 239 235 171 l 251 239 q 271 338 265 296 q 265 410 276 381 q 219 456 253 439 q 121 478 186 474 l 121 478 q 89 491 99 478 q 79 521 79 504 q 90 551 79 538 q 121 564 101 564 z "},"}":{"ha":675,"x_min":69,"x_max":590,"o":"m 131 1168 l 131 1168 q 308 1122 235 1163 l 308 1122 q 367 1077 340 1104 q 411 1010 394 1050 q 431 918 428 971 q 415 794 433 865 l 415 794 q 396 681 399 724 q 408 615 393 639 q 456 581 422 592 q 549 564 490 571 l 549 564 q 579 551 568 564 q 590 521 590 538 q 581 491 590 504 q 549 478 571 478 l 549 478 q 451 456 485 474 q 405 410 417 439 q 399 338 393 381 q 418 239 404 296 l 418 239 q 431 119 435 171 q 410 28 426 67 q 366 -36 393 -10 q 307 -79 339 -62 l 307 -79 q 132 -124 235 -118 l 132 -124 q 84 -112 99 -124 q 71 -89 69 -101 q 88 -65 72 -76 q 131 -54 104 -54 l 131 -54 l 132 -54 q 224 -11 186 -43 l 224 -11 q 273 67 256 17 q 267 201 290 117 l 267 201 q 253 324 247 272 q 277 415 258 376 q 324 478 296 453 q 379 522 353 504 l 379 522 q 325 570 353 542 q 278 640 297 599 q 256 736 260 681 q 269 864 251 792 l 269 864 q 270 986 289 940 q 219 1057 251 1032 l 219 1057 q 131 1099 183 1086 l 131 1099 q 88 1110 104 1099 q 71 1133 72 1121 q 83 1157 69 1146 q 131 1168 97 1168 z "},"[":{"ha":600,"x_min":107,"x_max":540,"o":"m 107 -62 l 107 -62 l 107 1122 q 165 1174 107 1174 l 165 1174 l 508 1174 q 532 1158 524 1174 q 540 1125 540 1143 q 533 1092 540 1107 q 508 1076 525 1076 l 508 1076 l 239 1076 l 239 -17 l 508 -17 q 532 -32 524 -17 q 540 -65 540 -47 q 533 -99 540 -83 q 508 -114 525 -114 l 508 -114 l 165 -114 q 107 -62 107 -114 z "},"]":{"ha":615,"x_min":57,"x_max":490,"o":"m 89 1174 l 89 1174 l 432 1174 q 490 1122 490 1174 l 490 1122 l 490 -62 q 432 -114 490 -114 l 432 -114 l 89 -114 q 65 -99 72 -114 q 57 -65 57 -83 q 65 -32 57 -47 q 89 -17 74 -17 l 89 -17 l 358 -17 l 358 1076 l 89 1076 q 65 1092 72 1076 q 57 1125 57 1107 q 65 1158 57 1143 q 89 1174 74 1174 z "},"\"":{"ha":578,"x_min":111,"x_max":479,"o":"m 324 1001 l 324 1001 q 372 1039 335 1024 q 442 1054 410 1054 l 442 1054 q 469 1049 458 1054 q 479 1032 479 1043 l 479 1032 q 474 957 479 999 q 463 877 469 915 q 449 810 457 839 q 436 774 442 782 l 436 774 q 420 764 431 767 q 397 761 410 761 l 397 761 q 365 765 381 761 q 347 774 350 768 l 347 774 q 329 820 338 790 q 317 884 321 850 q 314 950 313 918 q 324 1001 315 982 z m 122 1001 l 122 1001 q 171 1039 133 1024 q 240 1054 208 1054 l 240 1054 q 267 1049 257 1054 q 278 1032 278 1043 l 278 1032 q 273 957 278 999 q 262 877 268 915 q 248 810 256 839 q 235 774 240 782 l 235 774 q 219 764 229 767 q 196 761 208 761 l 196 761 q 164 765 179 761 q 146 774 149 768 l 146 774 q 128 820 136 790 q 115 884 119 850 q 113 950 111 918 q 122 1001 114 982 z "},"_":{"ha":867,"x_min":119,"x_max":758,"o":"m 154 -169 l 154 -169 l 724 -169 q 749 -190 740 -169 q 758 -237 757 -211 q 750 -283 758 -262 q 722 -304 742 -304 l 722 -304 l 154 -304 q 128 -283 136 -304 q 119 -237 119 -262 q 128 -190 119 -211 q 154 -169 138 -169 z "},"`":{"ha":475,"x_min":81,"x_max":365,"o":"m 85 1056 l 85 1056 q 92 1065 88 1063 l 92 1065 q 126 1086 103 1075 q 173 1105 149 1097 q 217 1115 197 1113 q 242 1113 238 1118 l 242 1113 q 265 1069 257 1088 q 284 1029 274 1050 q 311 981 294 1008 q 361 914 328 954 l 361 914 q 357 895 365 908 q 333 871 349 882 l 333 871 q 311 856 322 861 q 293 853 300 850 l 293 853 q 231 882 268 858 q 160 935 193 906 q 103 998 126 965 q 85 1056 81 1031 z "},"´":{"ha":471,"x_min":92,"x_max":376,"o":"m 96 914 l 96 914 q 146 981 129 954 q 173 1029 163 1008 q 192 1069 183 1050 q 215 1113 200 1088 l 215 1113 q 240 1115 219 1118 q 284 1105 260 1113 q 331 1086 308 1097 q 365 1065 354 1075 l 365 1065 q 372 1056 369 1063 l 372 1056 q 353 998 376 1031 q 297 935 331 965 q 226 882 264 906 q 164 853 189 858 l 164 853 q 146 856 157 850 q 124 871 135 861 l 124 871 q 100 895 108 882 q 96 914 92 908 z "},"˜":{"ha":610,"x_min":88,"x_max":526,"o":"m 231 1050 l 231 1050 q 269 1042 246 1050 q 317 1026 292 1035 q 367 1010 342 1018 q 410 1003 392 1003 l 410 1003 q 436 1010 426 1003 q 446 1038 446 1018 l 446 1038 q 453 1052 446 1047 q 472 1057 461 1057 l 472 1057 q 508 1044 490 1057 q 526 1008 526 1032 l 526 1008 q 496 897 526 938 q 422 857 465 857 l 422 857 q 381 865 401 857 q 339 883 360 874 q 297 901 318 893 q 256 910 276 910 l 256 910 q 224 899 236 910 q 211 861 211 888 l 211 861 q 203 843 211 851 q 183 828 196 835 q 156 819 171 822 q 128 815 142 815 l 128 815 q 99 822 111 815 q 88 843 88 828 l 88 843 q 125 996 88 942 q 231 1050 163 1050 z "},"ˆ":{"ha":560,"x_min":69,"x_max":489,"o":"m 74 856 l 74 856 q 126 924 107 896 q 157 975 144 953 q 180 1017 169 997 q 207 1063 190 1038 l 207 1063 q 234 1076 213 1071 q 279 1081 256 1081 l 279 1081 q 322 1076 303 1081 q 347 1064 342 1072 l 347 1064 q 375 1019 364 1039 q 399 976 386 999 q 432 924 413 953 q 485 856 451 896 l 485 856 q 481 838 489 851 q 458 813 472 825 l 458 813 q 435 797 447 803 q 417 794 424 792 l 417 794 q 384 815 404 797 q 344 856 364 832 q 306 905 324 879 q 278 951 288 931 l 278 951 q 244 901 263 928 q 207 852 225 875 q 172 813 189 829 q 142 794 154 797 l 142 794 q 124 797 135 792 q 101 813 113 803 l 101 813 q 78 838 86 825 q 74 856 69 851 z "},"ˇ":{"ha":553,"x_min":69,"x_max":489,"o":"m 100 1065 l 100 1065 q 123 1081 111 1075 q 142 1083 135 1086 l 142 1083 q 174 1063 154 1081 q 215 1022 194 1046 q 253 973 235 999 q 281 926 271 947 l 281 926 q 315 976 296 950 q 351 1026 333 1003 q 387 1065 369 1049 q 417 1083 404 1081 l 417 1083 q 435 1081 424 1086 q 457 1065 446 1075 l 457 1065 q 481 1040 472 1053 q 485 1022 489 1026 l 485 1022 q 433 953 451 982 q 401 903 414 925 q 378 860 389 881 q 351 815 368 840 l 351 815 q 324 802 346 807 q 279 797 303 797 l 279 797 q 236 801 256 797 q 211 814 217 806 l 211 814 q 183 859 194 839 q 159 902 172 879 q 126 953 146 925 q 74 1022 107 982 l 74 1022 q 78 1040 69 1026 q 100 1065 86 1053 z "},"˚":{"ha":446,"x_min":60,"x_max":394,"o":"m 217 1094 l 217 1094 q 272 1087 243 1094 q 327 1063 301 1079 q 371 1018 353 1046 q 392 951 389 990 l 392 951 q 380 883 394 911 q 342 838 365 856 q 291 813 319 821 q 236 804 263 804 l 236 804 q 181 812 211 804 q 126 837 151 819 q 83 882 101 854 q 63 949 65 910 l 63 949 q 74 1015 60 988 q 112 1060 89 1043 q 163 1086 135 1078 q 217 1094 192 1094 z m 108 942 l 108 942 q 125 918 110 926 q 160 906 140 910 q 201 903 181 903 q 229 904 221 903 l 229 904 q 258 908 239 904 q 297 917 278 911 q 331 934 317 924 q 344 958 346 944 l 344 958 q 328 981 343 974 q 292 992 313 989 q 253 996 272 996 q 224 996 233 996 l 224 996 q 194 992 214 994 q 156 983 175 989 q 122 967 136 976 q 108 942 107 957 z "},"¨":{"ha":563,"x_min":72,"x_max":488,"o":"m 303 926 l 303 949 q 309 978 303 963 q 326 1006 315 993 q 355 1026 338 1018 q 394 1035 372 1035 l 394 1035 q 434 1026 417 1035 q 463 1006 451 1018 q 481 978 475 993 q 488 949 488 963 l 488 949 l 488 926 q 482 897 488 913 q 465 869 476 882 q 435 849 453 857 q 394 840 418 840 l 394 840 q 353 849 371 840 q 325 869 336 857 q 308 897 314 882 q 303 926 303 913 l 303 926 z m 163 1035 l 163 1035 q 202 1026 185 1035 q 232 1006 219 1018 q 251 978 244 993 q 257 949 257 963 l 257 949 l 257 926 q 251 897 257 913 q 234 869 246 882 q 204 849 222 857 q 163 840 186 840 l 163 840 q 122 849 139 840 q 94 869 106 857 q 78 897 83 882 q 72 926 72 913 l 72 926 l 72 949 q 78 978 72 963 q 96 1006 85 993 q 124 1026 107 1018 q 163 1035 140 1035 z "},"ž":{"ha":592,"x_min":-61,"x_max":642,"o":"m -56 668 l -56 668 q -18 725 -43 706 q 35 744 7 744 l 35 744 q 91 718 67 744 q 115 638 115 692 l 115 638 q 152 648 124 638 q 220 670 181 658 q 305 692 260 682 q 389 703 350 703 l 389 703 q 458 688 429 703 q 495 637 488 674 q 484 537 503 600 q 408 375 465 474 l 408 375 q 369 311 392 346 q 324 242 347 276 q 280 174 301 207 q 243 114 258 140 l 243 114 q 260 106 239 107 q 318 104 282 104 l 318 104 q 378 184 344 143 q 449 263 413 225 q 522 332 485 300 q 592 383 558 364 l 592 383 q 615 385 603 389 q 634 374 626 382 q 641 356 642 367 q 625 336 640 344 l 625 336 q 563 293 596 319 q 499 235 531 267 q 440 170 468 204 q 389 104 411 136 l 389 104 q 459 81 429 106 q 506 14 489 56 q 528 -81 524 -28 q 525 -190 533 -135 q 493 -299 517 -246 q 431 -394 469 -353 q 340 -462 393 -436 q 215 -487 286 -487 l 215 -487 q 145 -465 168 -487 q 117 -403 122 -442 q 124 -312 113 -364 q 156 -204 135 -261 q 207 -89 178 -147 q 267 24 236 -31 l 267 24 q 188 17 228 21 q 115 13 147 13 l 115 13 q 71 15 89 13 q 46 25 53 18 l 46 25 q 28 58 35 36 q 33 103 22 79 l 33 103 q 67 159 42 119 q 126 249 93 199 q 195 356 160 300 q 258 459 231 411 q 301 541 286 507 q 310 582 317 575 l 310 582 q 282 590 300 590 l 282 590 q 203 575 251 590 q 107 550 156 560 l 107 550 q 95 447 104 494 q 68 339 86 399 l 68 339 q 42 325 64 325 l 42 325 q 10 335 25 325 q 1 364 -4 344 l 1 364 q 11 403 4 374 q 23 466 18 433 q 29 525 28 499 q 21 551 31 551 l 21 551 q -13 563 3 551 q -41 592 -29 575 q -57 630 -53 610 q -56 668 -61 650 z m 117 1065 l 117 1065 q 140 1081 128 1075 q 158 1083 151 1086 l 158 1083 q 191 1063 171 1081 q 231 1022 211 1046 q 269 973 251 999 q 297 926 288 947 l 297 926 q 331 976 313 950 q 368 1026 350 1003 q 403 1065 386 1049 q 433 1083 421 1081 l 433 1083 q 451 1081 440 1086 q 474 1065 463 1075 l 474 1065 q 497 1040 489 1053 q 501 1022 506 1026 l 501 1022 q 449 953 468 982 q 418 903 431 925 q 395 860 406 881 q 368 815 385 840 l 368 815 q 341 802 363 807 q 296 797 319 797 l 296 797 q 253 801 272 797 q 228 814 233 806 l 228 814 q 200 859 211 839 q 176 902 189 879 q 143 953 163 925 q 90 1022 124 982 l 90 1022 q 94 1040 86 1026 q 117 1065 103 1053 z m 238 -368 l 238 -368 q 276 -340 256 -368 q 314 -270 296 -312 q 347 -178 332 -228 q 367 -83 361 -128 q 371 -6 374 -39 q 353 32 368 26 l 353 32 l 342 32 q 272 -107 303 -36 q 224 -236 240 -178 q 209 -331 207 -294 q 238 -368 211 -368 z "},"Ž":{"ha":886,"x_min":-3,"x_max":785,"o":"m 0 285 l 0 285 q 16 314 0 300 q 54 338 32 328 q 101 353 76 347 q 146 358 126 358 l 146 358 q 173 354 163 358 q 183 340 183 350 l 183 340 q 167 267 171 308 q 167 181 163 225 q 186 95 172 138 q 223 21 200 53 q 278 -29 246 -11 q 351 -44 311 -47 l 351 -44 q 455 -6 413 -40 q 519 77 497 29 q 543 180 542 125 q 525 281 544 235 q 465 358 506 328 q 360 388 424 389 l 360 388 q 300 384 331 386 q 239 382 269 382 l 239 382 q 204 393 221 382 q 188 431 188 404 l 188 431 q 203 472 188 463 q 242 481 218 481 l 242 481 q 340 506 296 481 q 419 571 385 531 q 477 663 454 611 q 510 769 500 715 q 519 875 521 824 q 499 967 517 926 q 450 1031 482 1007 q 369 1056 418 1056 l 369 1056 q 317 1046 343 1056 q 272 1019 292 1036 q 238 980 251 1003 q 224 928 225 957 l 224 928 q 240 832 221 883 q 292 736 260 781 l 292 736 q 315 681 311 710 q 308 629 318 653 q 274 590 297 606 q 215 575 250 575 l 215 575 q 160 601 186 575 q 114 667 133 628 q 82 749 94 706 q 67 828 69 793 l 67 828 q 80 940 64 885 q 134 1040 96 996 q 233 1112 172 1085 q 378 1139 293 1139 l 378 1139 q 556 1094 485 1139 q 669 982 628 1050 q 719 833 710 914 q 710 677 729 751 q 646 547 692 603 q 529 474 600 490 l 529 474 q 657 426 601 463 l 657 426 q 703 391 681 413 q 744 340 726 369 q 774 272 763 310 q 785 183 785 233 l 785 183 q 751 47 785 107 q 660 -53 717 -12 q 533 -113 604 -93 q 389 -131 463 -133 l 389 -131 q 241 -108 313 -128 q 115 -41 169 -87 q 28 85 60 6 q 0 285 -3 164 z m 200 1435 l 200 1435 q 223 1450 211 1444 q 242 1453 235 1456 l 242 1453 q 274 1433 254 1450 q 315 1392 294 1415 q 353 1342 335 1368 q 381 1296 371 1317 l 381 1296 q 415 1346 396 1319 q 451 1395 433 1372 q 487 1434 469 1418 q 517 1453 504 1450 l 517 1453 q 535 1450 524 1456 q 557 1435 546 1444 l 557 1435 q 581 1409 572 1422 q 585 1392 589 1396 l 585 1392 q 533 1323 551 1351 q 501 1272 514 1294 q 478 1230 489 1250 q 451 1185 468 1210 l 451 1185 q 424 1172 446 1176 q 379 1167 403 1167 l 379 1167 q 336 1171 356 1167 q 311 1183 317 1175 l 311 1183 q 283 1228 294 1208 q 259 1272 272 1249 q 226 1323 246 1294 q 174 1392 207 1351 l 174 1392 q 178 1409 169 1396 q 200 1435 186 1422 z "},"…":{"ha":829,"x_min":100,"x_max":725,"o":"m 540 114 l 540 138 q 547 165 540 150 q 564 193 553 181 q 592 214 575 206 q 631 222 608 222 l 631 222 q 670 214 653 222 q 700 193 688 206 q 719 165 713 181 q 725 138 725 150 l 725 138 l 725 114 q 719 86 725 101 q 702 58 714 71 q 672 38 690 46 q 631 29 654 29 l 631 29 q 590 37 607 29 q 563 57 574 44 q 546 85 551 69 q 540 114 540 100 l 540 114 z m 411 222 l 411 222 q 451 214 433 222 q 481 193 468 206 q 499 165 493 181 q 506 138 506 150 l 506 138 l 506 114 q 500 86 506 101 q 483 58 494 71 q 453 38 471 46 q 411 29 435 29 l 411 29 q 371 37 388 29 q 343 57 354 44 q 326 85 332 69 q 321 114 321 100 l 321 114 l 321 138 q 327 165 321 150 q 344 193 333 181 q 372 214 356 206 q 411 222 389 222 z m 190 222 l 190 222 q 230 214 213 222 q 260 193 247 206 q 278 165 272 181 q 285 138 285 150 l 285 138 l 285 114 q 279 86 285 101 q 262 58 274 71 q 232 38 250 46 q 190 29 214 29 l 190 29 q 150 37 167 29 q 122 57 133 44 q 106 85 111 69 q 100 114 100 100 l 100 114 l 100 138 q 106 165 100 150 q 124 193 113 181 q 151 214 135 206 q 190 222 168 222 z "},"„":{"ha":647,"x_min":92,"x_max":515,"o":"m 321 -150 l 321 -150 q 344 -66 336 -111 q 355 23 351 -21 q 356 106 358 67 q 350 172 354 146 l 350 172 q 374 193 350 186 q 429 200 399 200 l 429 200 q 478 194 456 200 q 506 172 500 188 l 506 172 q 513 127 510 158 q 515 71 515 96 l 515 71 q 506 -6 515 29 q 483 -68 497 -40 q 450 -116 468 -96 q 414 -150 432 -136 l 414 -150 q 388 -162 404 -158 q 357 -165 372 -165 l 357 -165 q 329 -162 340 -165 q 321 -150 318 -158 z m 94 -150 l 94 -150 q 117 -66 110 -111 q 128 23 125 -21 q 130 106 132 67 q 124 172 128 146 l 124 172 q 148 193 124 186 q 203 200 172 200 l 203 200 q 251 194 229 200 q 279 172 274 188 l 279 172 q 286 127 283 158 q 289 71 289 96 l 289 71 q 280 -6 289 29 q 256 -68 271 -40 q 224 -116 242 -96 q 188 -150 206 -136 l 188 -150 q 162 -162 178 -158 q 131 -165 146 -165 l 131 -165 q 103 -162 114 -165 q 94 -150 92 -158 z "},"‚":{"ha":408,"x_min":92,"x_max":289,"o":"m 94 -150 l 94 -150 q 117 -66 110 -111 q 128 23 125 -21 q 130 106 132 67 q 124 172 128 146 l 124 172 q 148 193 124 186 q 203 200 172 200 l 203 200 q 251 194 229 200 q 279 172 274 188 l 279 172 q 286 127 283 158 q 289 71 289 96 l 289 71 q 280 -6 289 29 q 256 -68 271 -40 q 224 -116 242 -96 q 188 -150 206 -136 l 188 -150 q 162 -162 178 -158 q 131 -165 146 -165 l 131 -165 q 103 -162 114 -165 q 94 -150 92 -158 z "},"Š":{"ha":896,"x_min":0,"x_max":800,"o":"m 410 1190 l 410 1190 q 578 1157 511 1190 q 683 1074 644 1124 q 734 966 721 1024 q 740 858 747 908 q 707 775 732 808 q 644 742 682 742 l 644 742 q 611 744 629 742 q 577 751 593 746 q 551 768 561 757 q 540 796 540 779 l 540 796 q 544 857 540 824 q 547 925 547 890 q 542 992 547 960 q 522 1052 538 1025 q 474 1098 506 1079 q 393 1121 443 1117 l 393 1121 q 328 1110 358 1124 q 276 1072 299 1097 q 241 1011 254 1046 q 228 936 228 976 l 228 936 q 251 832 226 878 q 317 749 276 786 q 410 678 358 711 q 517 610 463 644 q 624 538 572 576 q 715 453 675 500 q 777 345 754 406 q 796 207 800 285 l 796 207 q 745 43 790 103 q 635 -46 700 -17 q 498 -82 571 -75 q 364 -89 425 -89 l 364 -89 q 208 -67 272 -89 q 102 -4 143 -44 q 42 94 61 36 q 22 225 22 153 l 22 225 q 56 330 22 292 q 139 368 90 368 l 139 368 q 224 352 206 368 q 239 311 243 336 q 220 255 235 286 q 206 193 206 224 l 206 193 q 219 124 206 158 q 255 61 232 89 q 311 16 278 33 q 383 -1 344 -1 l 383 -1 q 462 22 425 -1 q 522 85 499 46 q 550 175 546 124 q 529 282 554 226 q 444 393 504 338 q 281 496 385 449 l 281 496 q 190 542 239 515 q 99 608 140 568 q 28 701 57 647 q 0 829 0 756 l 0 829 q 26 964 0 899 q 103 1079 51 1029 q 231 1160 154 1129 q 410 1190 308 1190 z m 219 1506 l 219 1506 q 242 1521 231 1515 q 261 1524 254 1526 l 261 1524 q 294 1503 274 1521 q 334 1463 314 1486 q 372 1413 354 1439 q 400 1367 390 1388 l 400 1367 q 434 1417 415 1390 q 471 1466 453 1443 q 506 1505 489 1489 q 536 1524 524 1521 l 536 1524 q 554 1521 543 1526 q 576 1506 565 1515 l 576 1506 q 600 1480 592 1493 q 604 1463 608 1467 l 604 1463 q 552 1394 571 1422 q 521 1343 533 1365 q 498 1301 508 1321 q 471 1256 488 1281 l 471 1256 q 444 1242 465 1247 q 399 1238 422 1238 l 399 1238 q 356 1242 375 1238 q 331 1254 336 1246 l 331 1254 q 303 1299 314 1279 q 278 1342 292 1319 q 246 1394 265 1365 q 193 1463 226 1422 l 193 1463 q 197 1480 189 1467 q 219 1506 206 1493 z "},"Ÿ":{"ha":1272,"x_min":-4,"x_max":1142,"o":"m 333 1131 l 333 1131 q 465 1090 415 1131 q 543 985 515 1050 q 581 836 571 919 q 594 666 592 753 q 593 495 596 579 q 592 347 590 411 q 604 242 593 282 q 643 203 615 203 l 643 203 q 728 253 690 204 q 795 378 765 301 q 847 549 825 454 q 885 734 869 643 q 910 903 901 825 q 922 1025 918 981 l 922 1025 q 942 1062 924 1044 q 987 1092 961 1079 q 1042 1113 1013 1106 q 1094 1121 1071 1121 l 1094 1121 q 1127 1115 1114 1121 q 1140 1093 1140 1108 l 1140 1093 q 1141 849 1140 981 q 1140 585 1142 718 q 1135 324 1139 451 q 1121 90 1131 196 l 1121 90 q 1103 -53 1114 18 q 1074 -190 1093 -125 q 1026 -311 1056 -256 q 949 -408 996 -367 q 838 -474 903 -450 q 683 -500 772 -499 l 683 -500 q 533 -476 599 -501 q 423 -408 468 -451 q 353 -310 378 -365 q 326 -198 329 -256 q 342 -84 322 -140 q 404 15 361 -28 l 404 15 q 432 24 413 24 l 432 24 q 477 15 451 24 q 528 -8 503 7 q 576 -42 554 -22 q 608 -85 597 -62 q 617 -131 619 -107 q 590 -176 614 -154 l 590 -176 q 540 -250 556 -210 q 527 -326 524 -290 q 553 -387 531 -362 q 619 -411 576 -411 l 619 -411 q 738 -376 689 -411 q 819 -283 786 -340 q 873 -153 853 -225 q 905 -7 893 -81 q 921 133 917 67 q 926 247 925 200 l 926 247 l 926 521 q 870 339 904 422 q 792 194 836 256 q 692 99 747 133 q 569 64 636 64 l 569 64 q 462 106 501 64 q 401 219 422 149 q 375 378 381 289 q 368 559 369 467 q 366 740 367 651 q 355 898 365 829 q 322 1008 344 967 q 251 1047 299 1049 l 251 1047 q 184 1015 207 1046 q 153 936 161 983 q 149 831 144 889 q 165 717 154 772 q 192 615 176 663 q 221 543 207 568 l 221 543 q 226 492 235 518 q 197 444 217 465 q 151 408 176 422 q 107 394 125 394 l 107 394 q 86 404 92 394 l 86 404 q 35 524 58 451 q 4 679 13 597 q 6 844 -4 761 q 52 991 15 926 q 157 1095 89 1056 q 333 1131 225 1135 z m 728 1292 l 728 1314 q 734 1343 728 1328 q 751 1371 740 1358 q 780 1392 763 1383 q 819 1400 797 1400 l 819 1400 q 859 1392 842 1400 q 888 1371 876 1383 q 906 1343 900 1358 q 913 1314 913 1328 l 913 1314 l 913 1292 q 907 1263 913 1278 q 890 1235 901 1247 q 860 1214 878 1222 q 819 1206 843 1206 l 819 1206 q 778 1214 796 1206 q 750 1235 761 1222 q 733 1263 739 1247 q 728 1292 728 1278 l 728 1292 z m 497 1292 l 497 1292 l 497 1314 q 503 1343 497 1328 q 521 1371 510 1358 q 549 1392 532 1383 q 588 1400 565 1400 l 588 1400 q 627 1392 610 1400 q 657 1371 644 1383 q 676 1343 669 1358 q 682 1314 682 1328 l 682 1314 l 682 1292 q 676 1263 682 1278 q 659 1235 671 1247 q 629 1214 647 1222 q 588 1206 611 1206 l 588 1206 q 547 1214 564 1206 q 519 1235 531 1222 q 503 1263 508 1247 q 497 1292 497 1278 z "},"‹":{"ha":667,"x_min":86,"x_max":540,"o":"m 103 628 l 103 628 l 507 1040 q 510 1041 510 1040 q 513 1042 511 1042 l 513 1042 q 533 1008 525 1042 q 540 932 540 975 q 533 848 540 889 q 507 793 525 807 l 507 793 l 365 669 l 224 550 l 224 543 l 507 304 q 533 249 525 290 q 540 165 540 208 q 531 87 539 121 q 511 53 524 53 l 511 53 l 507 54 l 103 465 q 90 501 94 476 q 86 552 86 525 q 90 601 86 579 q 103 628 94 624 z "},"»":{"ha":983,"x_min":94,"x_max":878,"o":"m 457 304 l 457 304 l 740 543 l 740 550 l 599 669 l 457 793 q 431 848 439 807 q 424 932 424 889 q 431 1008 424 975 q 451 1042 439 1042 l 451 1042 q 453 1041 453 1042 q 457 1040 454 1040 l 457 1040 l 861 628 q 874 601 869 624 q 878 552 878 579 q 874 501 878 525 q 861 465 869 476 l 861 465 l 457 54 l 453 53 q 433 87 440 53 q 424 165 425 121 q 431 249 424 208 q 457 304 439 290 z m 128 304 l 128 304 l 411 543 l 411 550 l 269 669 l 128 793 q 102 848 110 807 q 94 932 94 889 q 102 1008 94 975 q 122 1042 110 1042 l 122 1042 q 124 1041 124 1042 q 128 1040 125 1040 l 128 1040 l 532 628 q 544 601 540 624 q 549 552 549 579 q 544 501 549 525 q 532 465 540 476 l 532 465 l 128 54 l 124 53 q 103 87 111 53 q 95 165 96 121 q 102 249 94 208 q 128 304 110 290 z "},"«":{"ha":974,"x_min":86,"x_max":869,"o":"m 432 628 l 432 628 l 836 1040 q 840 1041 839 1040 q 842 1042 840 1042 l 842 1042 q 862 1008 854 1042 q 869 932 869 975 q 862 848 869 889 q 836 793 854 807 l 836 793 l 694 669 l 553 550 l 553 543 l 836 304 q 862 249 854 290 q 869 165 869 208 q 860 87 868 121 q 840 53 853 53 l 840 53 l 836 54 l 432 465 q 419 501 424 476 q 415 552 415 525 q 419 601 415 579 q 432 628 424 624 z m 103 628 l 103 628 l 507 1040 q 510 1041 510 1040 q 513 1042 511 1042 l 513 1042 q 533 1008 525 1042 q 540 932 540 975 q 533 848 540 889 q 507 793 525 807 l 507 793 l 365 669 l 224 550 l 224 543 l 507 304 q 533 249 525 290 q 540 165 540 208 q 531 87 539 121 q 511 53 524 53 l 511 53 l 507 54 l 103 465 q 90 501 94 476 q 86 552 86 525 q 90 601 86 579 q 103 628 94 624 z "},"›":{"ha":657,"x_min":94,"x_max":549,"o":"m 122 1042 l 122 1042 q 124 1041 124 1042 q 128 1040 125 1040 l 128 1040 l 532 628 q 544 601 540 624 q 549 552 549 579 q 544 501 549 525 q 532 465 540 476 l 532 465 l 128 54 l 124 53 q 103 87 111 53 q 95 165 96 121 q 102 249 94 208 q 128 304 110 290 l 128 304 l 411 543 l 411 550 l 269 669 l 128 793 q 102 848 110 807 q 94 932 94 889 q 102 1008 94 975 q 122 1042 110 1042 z "},"š":{"ha":413,"x_min":-96,"x_max":361,"o":"m -96 539 l -96 539 q -77 619 -96 583 q -27 681 -58 656 q 44 722 4 707 q 125 738 83 736 l 125 738 q 239 715 188 740 q 321 644 290 689 q 356 542 351 600 q 331 426 361 485 l 331 426 q 297 410 322 410 l 297 410 q 258 419 279 410 q 220 442 236 428 q 198 474 204 456 q 201 508 192 492 l 201 508 q 224 569 219 540 q 221 620 228 597 q 197 656 214 643 q 157 669 181 669 l 157 669 q 124 658 136 669 q 103 631 111 647 q 93 597 96 615 q 90 564 90 579 l 90 564 q 107 496 90 525 q 149 444 124 467 q 204 401 174 421 q 263 358 235 381 q 314 308 292 336 q 344 243 336 281 l 344 243 q 344 135 358 183 q 298 54 331 88 q 217 3 265 21 q 115 -15 169 -15 l 115 -15 q 51 -6 88 -15 q -16 22 15 4 q -69 68 -47 40 q -87 131 -90 96 l -87 131 q -79 172 -86 151 q -62 210 -72 193 q -40 238 -51 226 q -17 249 -28 249 l -17 249 q 8 218 0 249 l 8 218 q 22 172 13 200 q 44 117 31 143 q 76 73 58 92 q 117 56 94 54 l 117 56 q 162 86 143 58 q 168 161 181 114 l 168 161 q 140 213 163 186 q 89 269 118 240 q 27 328 60 297 q -33 392 -6 358 q -78 463 -60 426 q -96 539 -96 499 z m -51 1065 l -51 1065 q -28 1081 -40 1075 q -10 1083 -17 1086 l -10 1083 q 23 1063 3 1081 q 63 1022 43 1046 q 101 973 83 999 q 129 926 119 947 l 129 926 q 163 976 144 950 q 200 1026 182 1003 q 235 1065 218 1049 q 265 1083 253 1081 l 265 1083 q 283 1081 272 1086 q 306 1065 294 1075 l 306 1065 q 329 1040 321 1053 q 333 1022 338 1026 l 333 1022 q 281 953 300 982 q 250 903 263 925 q 227 860 238 881 q 200 815 217 840 l 200 815 q 173 802 194 807 q 128 797 151 797 l 128 797 q 85 801 104 797 q 60 814 65 806 l 60 814 q 32 859 43 839 q 8 902 21 879 q -25 953 -6 925 q -78 1022 -44 982 l -78 1022 q -74 1040 -82 1026 q -51 1065 -65 1053 z "},"ı":{"ha":410,"x_min":-83,"x_max":482,"o":"m -82 526 l -82 526 q -77 550 -79 542 q -72 562 -75 558 q -66 566 -69 565 q -58 567 -62 567 l -58 567 q 70 609 18 582 q 158 656 122 636 l 158 656 q 185 653 174 664 q 196 632 196 643 l 196 632 q 193 556 196 606 q 189 447 190 506 q 189 326 188 388 q 199 214 190 264 q 224 133 207 164 q 271 106 242 103 l 271 106 q 319 136 297 107 q 358 206 340 165 q 390 290 376 246 q 413 364 403 333 l 413 364 q 438 378 417 378 l 438 378 q 467 367 453 378 q 476 338 482 357 l 476 338 q 443 228 461 283 q 399 128 425 174 q 336 53 372 83 q 247 18 300 24 l 247 18 q 193 14 218 14 l 193 14 q 101 34 136 14 q 45 89 65 54 q 17 168 25 124 q 5 260 8 213 q 0 358 1 308 q -7 449 -1 407 l -7 449 q -24 490 -11 478 q -50 508 -36 503 q -74 515 -64 513 q -82 526 -83 518 z m 83 922 l 83 922 q 176 892 138 922 q 214 819 214 861 l 214 819 q 176 747 214 776 q 83 717 138 717 l 83 717 q -10 747 28 717 q -49 819 -49 776 l -49 819 q -10 892 -49 861 q 83 922 28 922 z "},"ì":{"ha":410,"x_min":-83,"x_max":482,"o":"m -82 526 l -82 526 q -77 550 -79 542 q -72 562 -75 558 q -66 566 -69 565 q -58 567 -62 567 l -58 567 q 70 609 18 582 q 158 656 122 636 l 158 656 q 185 653 174 664 q 196 632 196 643 l 196 632 q 193 556 196 606 q 189 447 190 506 q 189 326 188 388 q 199 214 190 264 q 224 133 207 164 q 271 106 242 103 l 271 106 q 319 136 297 107 q 358 206 340 165 q 390 290 376 246 q 413 364 403 333 l 413 364 q 438 378 417 378 l 438 378 q 467 367 453 378 q 476 338 482 357 l 476 338 q 443 228 461 283 q 399 128 425 174 q 336 53 372 83 q 247 18 300 24 l 247 18 q 193 14 218 14 l 193 14 q 101 34 136 14 q 45 89 65 54 q 17 168 25 124 q 5 260 8 213 q 0 358 1 308 q -7 449 -1 407 l -7 449 q -24 490 -11 478 q -50 508 -36 503 q -74 515 -64 513 q -82 526 -83 518 z m -65 964 l -65 964 q -58 974 -62 971 l -58 974 q -24 994 -47 983 q 23 1013 -1 1006 q 67 1024 47 1021 q 92 1021 88 1026 l 92 1021 q 115 977 107 996 q 134 938 124 958 q 161 890 144 917 q 211 822 178 863 l 211 822 q 207 803 215 817 q 183 779 199 790 l 183 779 q 161 764 172 769 q 143 761 150 758 l 143 761 q 81 790 118 767 q 10 844 43 814 q -47 906 -24 874 q -65 964 -69 939 z "},"í":{"ha":410,"x_min":-83,"x_max":482,"o":"m -82 526 l -82 526 q -77 550 -79 542 q -72 562 -75 558 q -66 566 -69 565 q -58 567 -62 567 l -58 567 q 70 609 18 582 q 158 656 122 636 l 158 656 q 185 653 174 664 q 196 632 196 643 l 196 632 q 193 556 196 606 q 189 447 190 506 q 189 326 188 388 q 199 214 190 264 q 224 133 207 164 q 271 106 242 103 l 271 106 q 319 136 297 107 q 358 206 340 165 q 390 290 376 246 q 413 364 403 333 l 413 364 q 438 378 417 378 l 438 378 q 467 367 453 378 q 476 338 482 357 l 476 338 q 443 228 461 283 q 399 128 425 174 q 336 53 372 83 q 247 18 300 24 l 247 18 q 193 14 218 14 l 193 14 q 101 34 136 14 q 45 89 65 54 q 17 168 25 124 q 5 260 8 213 q 0 358 1 308 q -7 449 -1 407 l -7 449 q -24 490 -11 478 q -50 508 -36 503 q -74 515 -64 513 q -82 526 -83 518 z m -42 779 l -42 779 q 8 847 -8 819 q 35 894 25 874 q 54 934 46 915 q 78 978 63 953 l 78 978 q 102 981 82 983 q 147 970 122 978 q 194 951 171 963 q 228 931 217 940 l 228 931 q 235 921 232 928 l 235 921 q 216 863 239 896 q 160 801 193 831 q 89 747 126 771 q 26 718 51 724 l 26 718 q 8 721 19 715 q -14 736 -3 726 l -14 736 q -37 760 -29 747 q -42 779 -46 774 z "},"î":{"ha":410,"x_min":-136,"x_max":482,"o":"m -82 526 l -82 526 q -77 550 -79 542 q -72 562 -75 558 q -66 566 -69 565 q -58 567 -62 567 l -58 567 q 70 609 18 582 q 158 656 122 636 l 158 656 q 185 653 174 664 q 196 632 196 643 l 196 632 q 193 556 196 606 q 189 447 190 506 q 189 326 188 388 q 199 214 190 264 q 224 133 207 164 q 271 106 242 103 l 271 106 q 319 136 297 107 q 358 206 340 165 q 390 290 376 246 q 413 364 403 333 l 413 364 q 438 378 417 378 l 438 378 q 467 367 453 378 q 476 338 482 357 l 476 338 q 443 228 461 283 q 399 128 425 174 q 336 53 372 83 q 247 18 300 24 l 247 18 q 193 14 218 14 l 193 14 q 101 34 136 14 q 45 89 65 54 q 17 168 25 124 q 5 260 8 213 q 0 358 1 308 q -7 449 -1 407 l -7 449 q -24 490 -11 478 q -50 508 -36 503 q -74 515 -64 513 q -82 526 -83 518 z m -132 756 l -132 756 q -80 824 -99 796 q -49 875 -61 853 q -26 917 -36 897 q 1 963 -15 938 l 1 963 q 28 976 7 971 q 74 981 50 981 l 74 981 q 117 976 97 981 q 142 964 136 972 l 142 964 q 169 919 158 939 q 194 876 181 899 q 226 824 207 853 q 279 756 246 796 l 279 756 q 275 738 283 751 q 253 713 267 725 l 253 713 q 230 697 242 703 q 211 694 218 692 l 211 694 q 178 715 199 697 q 138 756 158 732 q 100 805 118 779 q 72 851 82 831 l 72 851 q 38 801 57 828 q 1 752 19 775 q -34 713 -17 729 q -64 694 -51 697 l -64 694 q -82 697 -71 692 q -104 713 -93 703 l -104 713 q -128 738 -119 725 q -132 756 -136 751 z "},"ï":{"ha":410,"x_min":-137,"x_max":482,"o":"m -82 526 l -82 526 q -77 550 -79 542 q -72 562 -75 558 q -66 566 -69 565 q -58 567 -62 567 l -58 567 q 70 609 18 582 q 158 656 122 636 l 158 656 q 185 653 174 664 q 196 632 196 643 l 196 632 q 193 556 196 606 q 189 447 190 506 q 189 326 188 388 q 199 214 190 264 q 224 133 207 164 q 271 106 242 103 l 271 106 q 319 136 297 107 q 358 206 340 165 q 390 290 376 246 q 413 364 403 333 l 413 364 q 438 378 417 378 l 438 378 q 467 367 453 378 q 476 338 482 357 l 476 338 q 443 228 461 283 q 399 128 425 174 q 336 53 372 83 q 247 18 300 24 l 247 18 q 193 14 218 14 l 193 14 q 101 34 136 14 q 45 89 65 54 q 17 168 25 124 q 5 260 8 213 q 0 358 1 308 q -7 449 -1 407 l -7 449 q -24 490 -11 478 q -50 508 -36 503 q -74 515 -64 513 q -82 526 -83 518 z m 185 913 l 185 913 q 224 904 207 913 q 253 883 242 896 q 272 856 265 871 q 278 826 278 840 l 278 826 l 278 804 q 272 775 278 790 q 255 747 267 760 q 226 726 243 735 q 185 718 208 718 l 185 718 q 144 726 161 718 q 115 747 126 735 q 99 775 104 760 q 93 804 93 790 l 93 804 l 93 826 q 99 856 93 840 q 117 883 106 871 q 145 904 128 896 q 185 913 163 913 z m -137 804 l -137 804 l -137 826 q -132 856 -137 840 q -115 883 -126 871 q -86 904 -103 896 q -47 913 -69 913 l -47 913 q -8 904 -25 913 q 22 883 10 896 q 41 856 35 871 q 47 826 47 840 l 47 826 l 47 804 q 42 775 47 790 q 24 747 36 760 q -6 726 13 735 q -47 718 -24 718 l -47 718 q -87 726 -71 718 q -115 747 -104 735 q -132 775 -126 760 q -137 804 -137 790 z "},"¿":{"ha":769,"x_min":60,"x_max":704,"o":"m 60 314 l 60 314 q 81 443 60 393 q 133 529 101 493 q 201 592 165 565 q 269 651 238 619 q 322 726 301 683 q 343 835 343 768 l 343 835 q 366 874 343 861 q 417 888 389 888 l 417 888 q 472 874 447 888 q 496 835 496 860 l 496 835 q 477 717 496 763 q 431 640 458 672 q 370 582 403 607 q 310 526 338 557 q 263 450 282 494 q 244 336 244 406 l 244 336 q 253 243 244 285 q 278 171 261 201 q 321 124 294 140 q 385 107 347 107 l 385 107 q 485 149 446 107 q 524 256 524 192 l 524 256 q 521 303 524 288 q 515 326 518 318 q 508 337 511 333 q 506 346 506 340 l 506 346 l 506 360 q 516 385 506 375 q 542 399 526 394 q 575 406 557 404 q 608 408 593 408 l 608 408 q 685 373 665 408 q 704 267 704 338 l 704 267 q 677 167 704 211 q 603 92 650 122 q 494 45 556 61 q 363 29 432 29 l 363 29 q 231 50 288 29 q 137 108 175 71 q 79 198 99 146 q 60 314 60 250 z m 326 1031 l 326 1031 l 326 1054 q 333 1082 326 1067 q 351 1110 339 1097 q 380 1132 363 1124 q 421 1140 397 1140 l 421 1140 q 461 1132 444 1140 q 489 1111 478 1124 q 506 1083 500 1099 q 511 1054 511 1068 l 511 1054 l 511 1031 q 506 1003 511 1018 q 488 975 500 988 q 460 954 476 963 q 421 946 443 946 l 421 946 q 381 954 399 946 q 351 975 364 963 q 333 1003 339 988 q 326 1031 326 1018 z "},"À":{"ha":1342,"x_min":-1,"x_max":1369,"o":"m 389 476 l 389 476 q 492 472 428 476 q 633 460 556 467 l 633 460 q 665 714 650 588 q 703 942 679 840 q 767 1106 726 1043 q 879 1167 808 1168 l 879 1167 q 971 1138 933 1167 q 1033 1058 1008 1108 q 1072 939 1057 1007 q 1096 792 1086 871 q 1113 629 1106 714 q 1129 461 1119 544 l 1129 461 q 1194 481 1165 469 q 1238 513 1222 493 l 1238 513 q 1281 533 1257 533 l 1281 533 q 1308 519 1300 533 q 1301 481 1317 506 l 1301 481 q 1236 417 1278 443 q 1140 372 1194 390 l 1140 372 q 1165 198 1151 281 q 1199 53 1179 115 q 1246 -46 1218 -10 q 1313 -82 1274 -82 l 1313 -82 q 1343 -76 1328 -82 l 1343 -76 q 1364 -80 1358 -71 q 1366 -103 1369 -89 q 1351 -130 1363 -117 q 1321 -146 1339 -143 l 1321 -146 q 1285 -150 1303 -149 q 1253 -151 1268 -151 l 1253 -151 q 1110 -111 1164 -151 q 1024 -4 1057 -71 q 975 151 992 63 q 942 335 958 239 l 942 335 q 840 328 892 331 q 738 325 788 326 l 738 325 q 685 142 717 229 q 606 -10 654 56 q 490 -114 557 -75 q 329 -153 422 -153 l 329 -153 q 154 -106 228 -153 q 42 10 81 -60 q 1 162 3 81 q 39 313 -1 243 q 165 430 79 383 q 389 476 251 476 z m 329 -82 l 329 -82 q 442 -50 394 -82 q 522 38 489 -18 q 577 167 556 93 q 614 326 599 242 l 614 326 q 513 329 560 328 q 432 331 467 331 l 432 331 q 244 300 318 331 q 131 224 169 269 q 90 124 93 178 q 113 25 86 71 q 195 -51 140 -21 q 329 -82 250 -82 z m 760 451 l 760 451 q 844 447 801 449 q 926 444 886 444 l 926 444 q 922 509 925 457 q 913 633 918 561 q 901 786 907 706 q 887 934 894 867 q 872 1045 879 1001 q 856 1088 864 1089 l 856 1088 q 832 1041 843 1085 q 811 932 821 997 q 793 790 801 867 q 778 643 785 713 q 767 521 771 574 q 760 451 763 468 z m 707 1411 l 707 1411 q 714 1421 710 1418 l 714 1421 q 748 1442 725 1431 q 795 1460 771 1453 q 840 1471 819 1468 q 864 1468 860 1474 l 864 1468 q 888 1424 879 1443 q 906 1385 896 1406 q 933 1337 917 1364 q 983 1269 950 1310 l 983 1269 q 979 1251 988 1264 q 956 1226 971 1238 l 956 1226 q 933 1211 944 1217 q 915 1208 922 1206 l 915 1208 q 853 1238 890 1214 q 782 1291 815 1261 q 726 1353 749 1321 q 707 1411 703 1386 z "},"Á":{"ha":1342,"x_min":-1,"x_max":1369,"o":"m 389 476 l 389 476 q 492 472 428 476 q 633 460 556 467 l 633 460 q 665 714 650 588 q 703 942 679 840 q 767 1106 726 1043 q 879 1167 808 1168 l 879 1167 q 971 1138 933 1167 q 1033 1058 1008 1108 q 1072 939 1057 1007 q 1096 792 1086 871 q 1113 629 1106 714 q 1129 461 1119 544 l 1129 461 q 1194 481 1165 469 q 1238 513 1222 493 l 1238 513 q 1281 533 1257 533 l 1281 533 q 1308 519 1300 533 q 1301 481 1317 506 l 1301 481 q 1236 417 1278 443 q 1140 372 1194 390 l 1140 372 q 1165 198 1151 281 q 1199 53 1179 115 q 1246 -46 1218 -10 q 1313 -82 1274 -82 l 1313 -82 q 1343 -76 1328 -82 l 1343 -76 q 1364 -80 1358 -71 q 1366 -103 1369 -89 q 1351 -130 1363 -117 q 1321 -146 1339 -143 l 1321 -146 q 1285 -150 1303 -149 q 1253 -151 1268 -151 l 1253 -151 q 1110 -111 1164 -151 q 1024 -4 1057 -71 q 975 151 992 63 q 942 335 958 239 l 942 335 q 840 328 892 331 q 738 325 788 326 l 738 325 q 685 142 717 229 q 606 -10 654 56 q 490 -114 557 -75 q 329 -153 422 -153 l 329 -153 q 154 -106 228 -153 q 42 10 81 -60 q 1 162 3 81 q 39 313 -1 243 q 165 430 79 383 q 389 476 251 476 z m 329 -82 l 329 -82 q 442 -50 394 -82 q 522 38 489 -18 q 577 167 556 93 q 614 326 599 242 l 614 326 q 513 329 560 328 q 432 331 467 331 l 432 331 q 244 300 318 331 q 131 224 169 269 q 90 124 93 178 q 113 25 86 71 q 195 -51 140 -21 q 329 -82 250 -82 z m 926 444 l 926 444 q 922 509 925 457 q 913 633 918 561 q 901 786 907 706 q 887 934 894 867 q 872 1045 879 1001 q 856 1088 864 1089 l 856 1088 q 832 1041 843 1085 q 811 932 821 997 q 793 790 801 867 q 778 643 785 713 q 767 521 771 574 q 760 451 763 468 l 760 451 q 844 447 801 449 q 926 444 886 444 z m 782 1279 l 782 1279 q 832 1347 815 1319 q 859 1394 849 1374 q 878 1434 869 1415 q 901 1478 886 1453 l 901 1478 q 926 1481 906 1483 q 970 1470 946 1478 q 1017 1451 994 1463 q 1051 1431 1040 1440 l 1051 1431 q 1058 1421 1056 1428 l 1058 1421 q 1040 1363 1063 1396 q 983 1301 1017 1331 q 913 1247 950 1271 q 850 1218 875 1224 l 850 1218 q 832 1221 843 1215 q 810 1236 821 1226 l 810 1236 q 786 1260 794 1247 q 782 1279 778 1274 z "},"Â":{"ha":1342,"x_min":-1,"x_max":1369,"o":"m 389 476 l 389 476 q 492 472 428 476 q 633 460 556 467 l 633 460 q 665 714 650 588 q 703 942 679 840 q 767 1106 726 1043 q 879 1167 808 1168 l 879 1167 q 971 1138 933 1167 q 1033 1058 1008 1108 q 1072 939 1057 1007 q 1096 792 1086 871 q 1113 629 1106 714 q 1129 461 1119 544 l 1129 461 q 1194 481 1165 469 q 1238 513 1222 493 l 1238 513 q 1281 533 1257 533 l 1281 533 q 1308 519 1300 533 q 1301 481 1317 506 l 1301 481 q 1236 417 1278 443 q 1140 372 1194 390 l 1140 372 q 1165 198 1151 281 q 1199 53 1179 115 q 1246 -46 1218 -10 q 1313 -82 1274 -82 l 1313 -82 q 1343 -76 1328 -82 l 1343 -76 q 1364 -80 1358 -71 q 1366 -103 1369 -89 q 1351 -130 1363 -117 q 1321 -146 1339 -143 l 1321 -146 q 1285 -150 1303 -149 q 1253 -151 1268 -151 l 1253 -151 q 1110 -111 1164 -151 q 1024 -4 1057 -71 q 975 151 992 63 q 942 335 958 239 l 942 335 q 840 328 892 331 q 738 325 788 326 l 738 325 q 685 142 717 229 q 606 -10 654 56 q 490 -114 557 -75 q 329 -153 422 -153 l 329 -153 q 154 -106 228 -153 q 42 10 81 -60 q 1 162 3 81 q 39 313 -1 243 q 165 430 79 383 q 389 476 251 476 z m 329 -82 l 329 -82 q 442 -50 394 -82 q 522 38 489 -18 q 577 167 556 93 q 614 326 599 242 l 614 326 q 513 329 560 328 q 432 331 467 331 l 432 331 q 244 300 318 331 q 131 224 169 269 q 90 124 93 178 q 113 25 86 71 q 195 -51 140 -21 q 329 -82 250 -82 z m 926 444 l 926 444 q 922 509 925 457 q 913 633 918 561 q 901 786 907 706 q 887 934 894 867 q 872 1045 879 1001 q 856 1088 864 1089 l 856 1088 q 832 1041 843 1085 q 811 932 821 997 q 793 790 801 867 q 778 643 785 713 q 767 521 771 574 q 760 451 763 468 l 760 451 q 844 447 801 449 q 926 444 886 444 z m 672 1238 l 672 1238 q 724 1306 706 1278 q 756 1357 743 1335 q 778 1399 768 1379 q 806 1444 789 1419 l 806 1444 q 833 1458 811 1453 q 878 1463 854 1463 l 878 1463 q 921 1458 901 1463 q 946 1446 940 1454 l 946 1446 q 974 1401 963 1421 q 998 1358 985 1381 q 1031 1306 1011 1335 q 1083 1238 1050 1278 l 1083 1238 q 1079 1220 1088 1233 q 1057 1194 1071 1207 l 1057 1194 q 1034 1179 1046 1185 q 1015 1176 1022 1174 l 1015 1176 q 983 1197 1003 1179 q 942 1238 963 1214 q 904 1287 922 1261 q 876 1333 886 1313 l 876 1333 q 842 1283 861 1310 q 806 1234 824 1257 q 770 1195 788 1211 q 740 1176 753 1179 l 740 1176 q 722 1179 733 1174 q 700 1194 711 1185 l 700 1194 q 676 1220 685 1207 q 672 1238 668 1233 z "},"Ã":{"ha":1342,"x_min":-1,"x_max":1369,"o":"m 389 476 l 389 476 q 492 472 428 476 q 633 460 556 467 l 633 460 q 665 714 650 588 q 703 942 679 840 q 767 1106 726 1043 q 879 1167 808 1168 l 879 1167 q 971 1138 933 1167 q 1033 1058 1008 1108 q 1072 939 1057 1007 q 1096 792 1086 871 q 1113 629 1106 714 q 1129 461 1119 544 l 1129 461 q 1194 481 1165 469 q 1238 513 1222 493 l 1238 513 q 1281 533 1257 533 l 1281 533 q 1308 519 1300 533 q 1301 481 1317 506 l 1301 481 q 1236 417 1278 443 q 1140 372 1194 390 l 1140 372 q 1165 198 1151 281 q 1199 53 1179 115 q 1246 -46 1218 -10 q 1313 -82 1274 -82 l 1313 -82 q 1343 -76 1328 -82 l 1343 -76 q 1364 -80 1358 -71 q 1366 -103 1369 -89 q 1351 -130 1363 -117 q 1321 -146 1339 -143 l 1321 -146 q 1285 -150 1303 -149 q 1253 -151 1268 -151 l 1253 -151 q 1110 -111 1164 -151 q 1024 -4 1057 -71 q 975 151 992 63 q 942 335 958 239 l 942 335 q 840 328 892 331 q 738 325 788 326 l 738 325 q 685 142 717 229 q 606 -10 654 56 q 490 -114 557 -75 q 329 -153 422 -153 l 329 -153 q 154 -106 228 -153 q 42 10 81 -60 q 1 162 3 81 q 39 313 -1 243 q 165 430 79 383 q 389 476 251 476 z m 329 -82 l 329 -82 q 442 -50 394 -82 q 522 38 489 -18 q 577 167 556 93 q 614 326 599 242 l 614 326 q 513 329 560 328 q 432 331 467 331 l 432 331 q 244 300 318 331 q 131 224 169 269 q 90 124 93 178 q 113 25 86 71 q 195 -51 140 -21 q 329 -82 250 -82 z m 760 451 l 760 451 q 844 447 801 449 q 926 444 886 444 l 926 444 q 922 509 925 457 q 913 633 918 561 q 901 786 907 706 q 887 934 894 867 q 872 1045 879 1001 q 856 1088 864 1089 l 856 1088 q 832 1041 843 1085 q 811 932 821 997 q 793 790 801 867 q 778 643 785 713 q 767 521 771 574 q 760 451 763 468 z m 783 1397 l 783 1397 q 822 1390 799 1397 q 869 1374 844 1382 q 919 1358 894 1365 q 963 1350 944 1350 l 963 1350 q 989 1358 979 1350 q 999 1385 999 1365 l 999 1385 q 1006 1399 999 1394 q 1025 1404 1014 1404 l 1025 1404 q 1061 1392 1043 1404 q 1079 1356 1079 1379 l 1079 1356 q 1049 1244 1079 1285 q 975 1204 1018 1204 l 975 1204 q 933 1213 954 1204 q 892 1231 913 1221 q 850 1249 871 1240 q 808 1257 829 1257 l 808 1257 q 776 1246 789 1257 q 764 1208 764 1235 l 764 1208 q 756 1190 764 1199 q 736 1176 749 1182 q 709 1166 724 1169 q 681 1163 694 1163 l 681 1163 q 652 1169 664 1163 q 640 1190 640 1175 l 640 1190 q 678 1343 640 1289 q 783 1397 715 1397 z "},"Ä":{"ha":1342,"x_min":-1,"x_max":1369,"o":"m 389 476 l 389 476 q 492 472 428 476 q 633 460 556 467 l 633 460 q 665 714 650 588 q 703 942 679 840 q 767 1106 726 1043 q 879 1167 808 1168 l 879 1167 q 971 1138 933 1167 q 1033 1058 1008 1108 q 1072 939 1057 1007 q 1096 792 1086 871 q 1113 629 1106 714 q 1129 461 1119 544 l 1129 461 q 1194 481 1165 469 q 1238 513 1222 493 l 1238 513 q 1281 533 1257 533 l 1281 533 q 1308 519 1300 533 q 1301 481 1317 506 l 1301 481 q 1236 417 1278 443 q 1140 372 1194 390 l 1140 372 q 1165 198 1151 281 q 1199 53 1179 115 q 1246 -46 1218 -10 q 1313 -82 1274 -82 l 1313 -82 q 1343 -76 1328 -82 l 1343 -76 q 1364 -80 1358 -71 q 1366 -103 1369 -89 q 1351 -130 1363 -117 q 1321 -146 1339 -143 l 1321 -146 q 1285 -150 1303 -149 q 1253 -151 1268 -151 l 1253 -151 q 1110 -111 1164 -151 q 1024 -4 1057 -71 q 975 151 992 63 q 942 335 958 239 l 942 335 q 840 328 892 331 q 738 325 788 326 l 738 325 q 685 142 717 229 q 606 -10 654 56 q 490 -114 557 -75 q 329 -153 422 -153 l 329 -153 q 154 -106 228 -153 q 42 10 81 -60 q 1 162 3 81 q 39 313 -1 243 q 165 430 79 383 q 389 476 251 476 z m 329 -82 l 329 -82 q 442 -50 394 -82 q 522 38 489 -18 q 577 167 556 93 q 614 326 599 242 l 614 326 q 513 329 560 328 q 432 331 467 331 l 432 331 q 244 300 318 331 q 131 224 169 269 q 90 124 93 178 q 113 25 86 71 q 195 -51 140 -21 q 329 -82 250 -82 z m 760 451 l 760 451 q 844 447 801 449 q 926 444 886 444 l 926 444 q 922 509 925 457 q 913 633 918 561 q 901 786 907 706 q 887 934 894 867 q 872 1045 879 1001 q 856 1088 864 1089 l 856 1088 q 832 1041 843 1085 q 811 932 821 997 q 793 790 801 867 q 778 643 785 713 q 767 521 771 574 q 760 451 763 468 z m 1004 1414 l 1004 1414 q 1044 1406 1026 1414 q 1073 1385 1061 1397 q 1091 1357 1085 1372 q 1097 1328 1097 1342 l 1097 1328 l 1097 1306 q 1092 1276 1097 1292 q 1074 1249 1086 1261 q 1045 1228 1063 1236 q 1004 1219 1028 1219 l 1004 1219 q 963 1228 981 1219 q 935 1249 946 1236 q 918 1276 924 1261 q 913 1306 913 1292 l 913 1306 l 913 1328 q 919 1357 913 1342 q 936 1385 925 1372 q 965 1406 947 1397 q 1004 1414 982 1414 z m 772 1414 l 772 1414 q 812 1406 794 1414 q 842 1385 829 1397 q 860 1357 854 1372 q 867 1328 867 1342 l 867 1328 l 867 1306 q 861 1276 867 1292 q 844 1249 856 1261 q 814 1228 832 1236 q 772 1219 796 1219 l 772 1219 q 732 1228 749 1219 q 704 1249 715 1236 q 688 1276 693 1261 q 682 1306 682 1292 l 682 1306 l 682 1328 q 688 1357 682 1342 q 706 1385 694 1372 q 733 1406 717 1397 q 772 1414 750 1414 z "},"Å":{"ha":1342,"x_min":-1,"x_max":1369,"o":"m 389 476 l 389 476 q 492 472 428 476 q 633 460 556 467 l 633 460 q 665 714 650 588 q 703 942 679 840 q 767 1106 726 1043 q 879 1167 808 1168 l 879 1167 q 971 1138 933 1167 q 1033 1058 1008 1108 q 1072 939 1057 1007 q 1096 792 1086 871 q 1113 629 1106 714 q 1129 461 1119 544 l 1129 461 q 1194 481 1165 469 q 1238 513 1222 493 l 1238 513 q 1281 533 1257 533 l 1281 533 q 1308 519 1300 533 q 1301 481 1317 506 l 1301 481 q 1236 417 1278 443 q 1140 372 1194 390 l 1140 372 q 1165 198 1151 281 q 1199 53 1179 115 q 1246 -46 1218 -10 q 1313 -82 1274 -82 l 1313 -82 q 1343 -76 1328 -82 l 1343 -76 q 1364 -80 1358 -71 q 1366 -103 1369 -89 q 1351 -130 1363 -117 q 1321 -146 1339 -143 l 1321 -146 q 1285 -150 1303 -149 q 1253 -151 1268 -151 l 1253 -151 q 1110 -111 1164 -151 q 1024 -4 1057 -71 q 975 151 992 63 q 942 335 958 239 l 942 335 q 840 328 892 331 q 738 325 788 326 l 738 325 q 685 142 717 229 q 606 -10 654 56 q 490 -114 557 -75 q 329 -153 422 -153 l 329 -153 q 154 -106 228 -153 q 42 10 81 -60 q 1 162 3 81 q 39 313 -1 243 q 165 430 79 383 q 389 476 251 476 z m 329 -82 l 329 -82 q 442 -50 394 -82 q 522 38 489 -18 q 577 167 556 93 q 614 326 599 242 l 614 326 q 513 329 560 328 q 432 331 467 331 l 432 331 q 244 300 318 331 q 131 224 169 269 q 90 124 93 178 q 113 25 86 71 q 195 -51 140 -21 q 329 -82 250 -82 z m 872 1504 l 872 1504 q 928 1497 899 1504 q 983 1472 957 1489 q 1026 1428 1008 1456 q 1047 1361 1044 1400 l 1047 1361 q 1035 1293 1050 1321 q 998 1248 1021 1265 q 947 1222 975 1231 q 892 1214 918 1214 l 892 1214 q 837 1222 867 1214 q 782 1247 807 1229 q 739 1292 757 1264 q 718 1358 721 1319 l 718 1358 q 730 1425 715 1397 q 767 1470 744 1453 q 819 1496 790 1488 q 872 1504 847 1504 z m 926 444 l 926 444 q 922 509 925 457 q 913 633 918 561 q 901 786 907 706 q 887 934 894 867 q 872 1045 879 1001 q 856 1088 864 1089 l 856 1088 q 832 1041 843 1085 q 811 932 821 997 q 793 790 801 867 q 778 643 785 713 q 767 521 771 574 q 760 451 763 468 l 760 451 q 844 447 801 449 q 926 444 886 444 z m 764 1351 l 764 1351 q 781 1328 765 1336 q 816 1316 796 1319 q 856 1313 836 1313 q 885 1314 876 1313 l 885 1314 q 914 1317 894 1314 q 953 1327 933 1321 q 987 1344 972 1333 q 1000 1368 1001 1354 l 1000 1368 q 983 1391 999 1383 q 948 1402 968 1399 q 908 1406 928 1406 q 879 1406 889 1406 l 879 1406 q 850 1401 869 1404 q 811 1392 831 1399 q 777 1376 792 1386 q 764 1351 763 1367 z "},"È":{"ha":740,"x_min":0,"x_max":814,"o":"m 407 1139 l 407 1139 q 547 1113 493 1139 q 631 1046 601 1088 q 671 952 661 1004 q 678 847 681 900 l 678 847 q 663 774 676 815 q 631 697 650 733 q 585 635 611 660 q 531 610 560 610 l 531 610 q 472 624 496 610 q 438 661 449 639 q 431 710 428 683 q 453 763 435 738 l 453 763 q 504 851 485 804 q 521 942 524 899 l 521 942 q 494 1027 518 994 q 415 1060 471 1060 l 415 1060 q 335 1038 367 1060 q 285 977 303 1015 q 266 891 268 939 q 274 792 264 843 q 308 693 285 742 q 365 606 331 644 q 444 545 400 568 q 543 522 489 522 l 543 522 q 582 514 567 522 q 597 475 597 506 l 597 475 q 581 440 597 451 q 546 429 564 429 l 546 429 q 492 431 518 429 q 439 433 465 432 l 439 433 q 322 408 367 436 q 257 337 276 381 q 242 242 238 293 q 276 149 247 192 q 354 79 304 106 q 475 57 404 53 l 475 57 q 591 89 546 61 q 665 160 636 117 q 710 256 693 203 q 743 364 726 308 l 743 364 q 768 378 747 378 l 768 378 q 799 367 783 378 q 807 338 814 357 l 807 338 q 751 188 783 257 q 669 66 719 118 q 545 -17 618 14 q 368 -50 472 -47 l 368 -50 q 228 -33 294 -53 q 110 24 161 -14 q 30 117 60 61 q 0 243 0 172 l 0 243 q 11 326 0 289 q 40 390 22 363 q 81 438 58 418 q 128 472 104 458 l 128 472 q 256 515 183 504 l 256 515 q 139 584 185 532 q 74 706 93 636 q 65 851 56 775 q 116 992 75 928 q 229 1097 157 1056 q 407 1139 301 1139 z m 239 1383 l 239 1383 q 246 1393 242 1390 l 246 1393 q 280 1414 257 1403 q 327 1433 303 1425 q 372 1443 351 1440 q 396 1440 392 1446 l 396 1440 q 419 1397 411 1415 q 438 1357 428 1378 q 465 1309 449 1336 q 515 1242 482 1282 l 515 1242 q 511 1223 519 1236 q 488 1199 503 1210 l 488 1199 q 465 1183 476 1189 q 447 1181 454 1178 l 447 1181 q 385 1210 422 1186 q 314 1263 347 1233 q 258 1326 281 1293 q 239 1383 235 1358 z "},"É":{"ha":740,"x_min":0,"x_max":814,"o":"m 407 1139 l 407 1139 q 547 1113 493 1139 q 631 1046 601 1088 q 671 952 661 1004 q 678 847 681 900 l 678 847 q 663 774 676 815 q 631 697 650 733 q 585 635 611 660 q 531 610 560 610 l 531 610 q 472 624 496 610 q 438 661 449 639 q 431 710 428 683 q 453 763 435 738 l 453 763 q 504 851 485 804 q 521 942 524 899 l 521 942 q 494 1027 518 994 q 415 1060 471 1060 l 415 1060 q 335 1038 367 1060 q 285 977 303 1015 q 266 891 268 939 q 274 792 264 843 q 308 693 285 742 q 365 606 331 644 q 444 545 400 568 q 543 522 489 522 l 543 522 q 582 514 567 522 q 597 475 597 506 l 597 475 q 581 440 597 451 q 546 429 564 429 l 546 429 q 492 431 518 429 q 439 433 465 432 l 439 433 q 322 408 367 436 q 257 337 276 381 q 242 242 238 293 q 276 149 247 192 q 354 79 304 106 q 475 57 404 53 l 475 57 q 591 89 546 61 q 665 160 636 117 q 710 256 693 203 q 743 364 726 308 l 743 364 q 768 378 747 378 l 768 378 q 799 367 783 378 q 807 338 814 357 l 807 338 q 751 188 783 257 q 669 66 719 118 q 545 -17 618 14 q 368 -50 472 -47 l 368 -50 q 228 -33 294 -53 q 110 24 161 -14 q 30 117 60 61 q 0 243 0 172 l 0 243 q 11 326 0 289 q 40 390 22 363 q 81 438 58 418 q 128 472 104 458 l 128 472 q 256 515 183 504 l 256 515 q 139 584 185 532 q 74 706 93 636 q 65 851 56 775 q 116 992 75 928 q 229 1097 157 1056 q 407 1139 301 1139 z m 242 1254 l 242 1254 q 292 1322 275 1294 q 319 1369 308 1349 q 338 1409 329 1390 q 361 1453 346 1428 l 361 1453 q 385 1456 365 1458 q 430 1445 406 1453 q 477 1426 454 1438 q 511 1406 500 1415 l 511 1406 q 518 1396 515 1403 l 518 1396 q 499 1338 522 1371 q 443 1276 476 1306 q 372 1222 410 1246 q 310 1193 335 1199 l 310 1193 q 292 1196 303 1190 q 269 1211 281 1201 l 269 1211 q 246 1235 254 1222 q 242 1254 238 1249 z "},"Ê":{"ha":740,"x_min":0,"x_max":814,"o":"m 407 1139 l 407 1139 q 547 1113 493 1139 q 631 1046 601 1088 q 671 952 661 1004 q 678 847 681 900 l 678 847 q 663 774 676 815 q 631 697 650 733 q 585 635 611 660 q 531 610 560 610 l 531 610 q 472 624 496 610 q 438 661 449 639 q 431 710 428 683 q 453 763 435 738 l 453 763 q 504 851 485 804 q 521 942 524 899 l 521 942 q 494 1027 518 994 q 415 1060 471 1060 l 415 1060 q 335 1038 367 1060 q 285 977 303 1015 q 266 891 268 939 q 274 792 264 843 q 308 693 285 742 q 365 606 331 644 q 444 545 400 568 q 543 522 489 522 l 543 522 q 582 514 567 522 q 597 475 597 506 l 597 475 q 581 440 597 451 q 546 429 564 429 l 546 429 q 492 431 518 429 q 439 433 465 432 l 439 433 q 322 408 367 436 q 257 337 276 381 q 242 242 238 293 q 276 149 247 192 q 354 79 304 106 q 475 57 404 53 l 475 57 q 591 89 546 61 q 665 160 636 117 q 710 256 693 203 q 743 364 726 308 l 743 364 q 768 378 747 378 l 768 378 q 799 367 783 378 q 807 338 814 357 l 807 338 q 751 188 783 257 q 669 66 719 118 q 545 -17 618 14 q 368 -50 472 -47 l 368 -50 q 228 -33 294 -53 q 110 24 161 -14 q 30 117 60 61 q 0 243 0 172 l 0 243 q 11 326 0 289 q 40 390 22 363 q 81 438 58 418 q 128 472 104 458 l 128 472 q 256 515 183 504 l 256 515 q 139 584 185 532 q 74 706 93 636 q 65 851 56 775 q 116 992 75 928 q 229 1097 157 1056 q 407 1139 301 1139 z m 194 1231 l 194 1231 q 247 1299 228 1271 q 278 1350 265 1328 q 301 1392 290 1372 q 328 1438 311 1413 l 328 1438 q 355 1451 333 1446 q 400 1456 376 1456 l 400 1456 q 443 1451 424 1456 q 468 1439 463 1447 l 468 1439 q 496 1394 485 1414 q 520 1351 507 1374 q 553 1299 533 1328 q 606 1231 572 1271 l 606 1231 q 601 1213 610 1226 q 579 1188 593 1200 l 579 1188 q 556 1172 568 1178 q 538 1169 544 1167 l 538 1169 q 505 1190 525 1172 q 465 1231 485 1207 q 426 1280 444 1254 q 399 1326 408 1306 l 399 1326 q 365 1276 383 1303 q 328 1227 346 1250 q 292 1188 310 1204 q 263 1169 275 1172 l 263 1169 q 244 1172 256 1167 q 222 1188 233 1178 l 222 1188 q 199 1213 207 1200 q 194 1231 190 1226 z "},"Ë":{"ha":740,"x_min":0,"x_max":814,"o":"m 407 1139 l 407 1139 q 547 1113 493 1139 q 631 1046 601 1088 q 671 952 661 1004 q 678 847 681 900 l 678 847 q 663 774 676 815 q 631 697 650 733 q 585 635 611 660 q 531 610 560 610 l 531 610 q 472 624 496 610 q 438 661 449 639 q 431 710 428 683 q 453 763 435 738 l 453 763 q 504 851 485 804 q 521 942 524 899 l 521 942 q 494 1027 518 994 q 415 1060 471 1060 l 415 1060 q 335 1038 367 1060 q 285 977 303 1015 q 266 891 268 939 q 274 792 264 843 q 308 693 285 742 q 365 606 331 644 q 444 545 400 568 q 543 522 489 522 l 543 522 q 582 514 567 522 q 597 475 597 506 l 597 475 q 581 440 597 451 q 546 429 564 429 l 546 429 q 492 431 518 429 q 439 433 465 432 l 439 433 q 322 408 367 436 q 257 337 276 381 q 242 242 238 293 q 276 149 247 192 q 354 79 304 106 q 475 57 404 53 l 475 57 q 591 89 546 61 q 665 160 636 117 q 710 256 693 203 q 743 364 726 308 l 743 364 q 768 378 747 378 l 768 378 q 799 367 783 378 q 807 338 814 357 l 807 338 q 751 188 783 257 q 669 66 719 118 q 545 -17 618 14 q 368 -50 472 -47 l 368 -50 q 228 -33 294 -53 q 110 24 161 -14 q 30 117 60 61 q 0 243 0 172 l 0 243 q 11 326 0 289 q 40 390 22 363 q 81 438 58 418 q 128 472 104 458 l 128 472 q 256 515 183 504 l 256 515 q 139 584 185 532 q 74 706 93 636 q 65 851 56 775 q 116 992 75 928 q 229 1097 157 1056 q 407 1139 301 1139 z m 411 1274 l 411 1296 q 417 1325 411 1310 q 435 1353 424 1340 q 463 1374 446 1365 q 503 1382 481 1382 l 503 1382 q 542 1374 525 1382 q 572 1353 560 1365 q 590 1325 583 1340 q 596 1296 596 1310 l 596 1296 l 596 1274 q 590 1244 596 1260 q 573 1217 585 1229 q 544 1196 561 1204 q 503 1188 526 1188 l 503 1188 q 462 1196 479 1188 q 433 1217 444 1204 q 417 1244 422 1229 q 411 1274 411 1260 l 411 1274 z m 181 1274 l 181 1274 l 181 1296 q 187 1325 181 1310 q 204 1353 193 1340 q 232 1374 215 1365 q 271 1382 249 1382 l 271 1382 q 310 1374 293 1382 q 340 1353 328 1365 q 359 1325 353 1340 q 365 1296 365 1310 l 365 1296 l 365 1274 q 360 1244 365 1260 q 342 1217 354 1229 q 313 1196 331 1204 q 271 1188 294 1188 l 271 1188 q 231 1196 247 1188 q 203 1217 214 1204 q 186 1244 192 1229 q 181 1274 181 1260 z "},"Ì":{"ha":732,"x_min":-4,"x_max":601,"o":"m 333 1131 l 333 1131 q 477 1083 425 1131 q 556 955 529 1035 q 590 772 582 875 q 600 558 599 669 l 600 558 q 599 401 601 479 q 594 249 597 322 q 587 111 590 176 q 582 -4 583 46 l 582 -4 q 572 -31 582 -19 q 547 -50 563 -43 q 513 -60 532 -57 q 472 -64 493 -64 l 472 -64 q 434 -60 453 -64 q 401 -51 415 -57 q 378 -34 386 -44 q 369 -11 369 -24 l 369 -11 q 373 77 369 17 q 379 218 376 138 q 383 391 382 299 q 383 576 385 483 q 373 755 381 669 q 350 906 365 840 q 311 1010 335 971 q 251 1047 288 1049 l 251 1047 q 184 1015 207 1046 q 153 936 161 983 q 149 831 144 889 q 165 717 154 772 q 192 615 176 663 q 221 543 207 568 l 221 543 q 226 492 235 518 q 197 444 217 465 q 151 408 176 422 q 107 394 125 394 l 107 394 q 86 404 92 394 l 86 404 q 35 524 58 451 q 4 679 13 597 q 6 844 -4 761 q 52 991 15 926 q 157 1095 89 1056 q 333 1131 225 1135 z m 229 1408 l 229 1408 q 236 1418 232 1415 l 236 1418 q 270 1439 247 1428 q 317 1458 293 1450 q 362 1468 342 1465 q 386 1465 382 1471 l 386 1465 q 410 1422 401 1440 q 428 1382 418 1403 q 456 1334 439 1361 q 506 1267 472 1307 l 506 1267 q 501 1248 510 1261 q 478 1224 493 1235 l 478 1224 q 456 1208 467 1214 q 438 1206 444 1203 l 438 1206 q 375 1235 413 1211 q 304 1288 338 1258 q 248 1351 271 1318 q 229 1408 225 1383 z "},"Í":{"ha":732,"x_min":-4,"x_max":601,"o":"m 333 1131 l 333 1131 q 477 1083 425 1131 q 556 955 529 1035 q 590 772 582 875 q 600 558 599 669 l 600 558 q 599 401 601 479 q 594 249 597 322 q 587 111 590 176 q 582 -4 583 46 l 582 -4 q 572 -31 582 -19 q 547 -50 563 -43 q 513 -60 532 -57 q 472 -64 493 -64 l 472 -64 q 434 -60 453 -64 q 401 -51 415 -57 q 378 -34 386 -44 q 369 -11 369 -24 l 369 -11 q 373 77 369 17 q 379 218 376 138 q 383 391 382 299 q 383 576 385 483 q 373 755 381 669 q 350 906 365 840 q 311 1010 335 971 q 251 1047 288 1049 l 251 1047 q 184 1015 207 1046 q 153 936 161 983 q 149 831 144 889 q 165 717 154 772 q 192 615 176 663 q 221 543 207 568 l 221 543 q 226 492 235 518 q 197 444 217 465 q 151 408 176 422 q 107 394 125 394 l 107 394 q 86 404 92 394 l 86 404 q 35 524 58 451 q 4 679 13 597 q 6 844 -4 761 q 52 991 15 926 q 157 1095 89 1056 q 333 1131 225 1135 z m 215 1251 l 215 1251 q 265 1319 249 1292 q 292 1367 282 1346 q 311 1406 303 1388 q 335 1450 319 1425 l 335 1450 q 359 1453 339 1456 q 403 1442 379 1450 q 451 1424 428 1435 q 485 1403 474 1413 l 485 1403 q 492 1393 489 1400 l 492 1393 q 473 1335 496 1368 q 417 1273 450 1303 q 346 1219 383 1243 q 283 1190 308 1196 l 283 1190 q 265 1193 276 1188 q 243 1208 254 1199 l 243 1208 q 219 1233 228 1219 q 215 1251 211 1246 z "},"Î":{"ha":732,"x_min":-4,"x_max":601,"o":"m 333 1131 l 333 1131 q 477 1083 425 1131 q 556 955 529 1035 q 590 772 582 875 q 600 558 599 669 l 600 558 q 599 401 601 479 q 594 249 597 322 q 587 111 590 176 q 582 -4 583 46 l 582 -4 q 572 -31 582 -19 q 547 -50 563 -43 q 513 -60 532 -57 q 472 -64 493 -64 l 472 -64 q 434 -60 453 -64 q 401 -51 415 -57 q 378 -34 386 -44 q 369 -11 369 -24 l 369 -11 q 373 77 369 17 q 379 218 376 138 q 383 391 382 299 q 383 576 385 483 q 373 755 381 669 q 350 906 365 840 q 311 1010 335 971 q 251 1047 288 1049 l 251 1047 q 184 1015 207 1046 q 153 936 161 983 q 149 831 144 889 q 165 717 154 772 q 192 615 176 663 q 221 543 207 568 l 221 543 q 226 492 235 518 q 197 444 217 465 q 151 408 176 422 q 107 394 125 394 l 107 394 q 86 404 92 394 l 86 404 q 35 524 58 451 q 4 679 13 597 q 6 844 -4 761 q 52 991 15 926 q 157 1095 89 1056 q 333 1131 225 1135 z m 125 1225 l 125 1225 q 177 1294 158 1265 q 208 1344 196 1322 q 231 1387 221 1367 q 258 1432 242 1407 l 258 1432 q 285 1445 264 1440 q 331 1450 307 1450 l 331 1450 q 374 1446 354 1450 q 399 1433 393 1442 l 399 1433 q 426 1388 415 1408 q 451 1345 438 1368 q 483 1294 464 1322 q 536 1225 503 1265 l 536 1225 q 532 1208 540 1221 q 510 1182 524 1194 l 510 1182 q 487 1167 499 1172 q 468 1164 475 1161 l 468 1164 q 435 1184 456 1167 q 395 1225 415 1201 q 357 1274 375 1249 q 329 1321 339 1300 l 329 1321 q 295 1271 314 1297 q 258 1222 276 1244 q 223 1183 240 1199 q 193 1164 206 1167 l 193 1164 q 175 1167 186 1161 q 153 1182 164 1172 l 153 1182 q 129 1208 138 1194 q 125 1225 121 1221 z "},"Ï":{"ha":732,"x_min":-4,"x_max":601,"o":"m 333 1131 l 333 1131 q 477 1083 425 1131 q 556 955 529 1035 q 590 772 582 875 q 600 558 599 669 l 600 558 q 599 401 601 479 q 594 249 597 322 q 587 111 590 176 q 582 -4 583 46 l 582 -4 q 572 -31 582 -19 q 547 -50 563 -43 q 513 -60 532 -57 q 472 -64 493 -64 l 472 -64 q 434 -60 453 -64 q 401 -51 415 -57 q 378 -34 386 -44 q 369 -11 369 -24 l 369 -11 q 373 77 369 17 q 379 218 376 138 q 383 391 382 299 q 383 576 385 483 q 373 755 381 669 q 350 906 365 840 q 311 1010 335 971 q 251 1047 288 1049 l 251 1047 q 184 1015 207 1046 q 153 936 161 983 q 149 831 144 889 q 165 717 154 772 q 192 615 176 663 q 221 543 207 568 l 221 543 q 226 492 235 518 q 197 444 217 465 q 151 408 176 422 q 107 394 125 394 l 107 394 q 86 404 92 394 l 86 404 q 35 524 58 451 q 4 679 13 597 q 6 844 -4 761 q 52 991 15 926 q 157 1095 89 1056 q 333 1131 225 1135 z m 361 1267 l 361 1289 q 367 1318 361 1303 q 385 1346 374 1333 q 413 1367 396 1358 q 453 1375 431 1375 l 453 1375 q 492 1367 475 1375 q 522 1346 510 1358 q 540 1318 533 1333 q 546 1289 546 1303 l 546 1289 l 546 1267 q 540 1238 546 1253 q 523 1210 535 1222 q 494 1189 511 1197 q 453 1181 476 1181 l 453 1181 q 412 1189 429 1181 q 383 1210 394 1197 q 367 1238 372 1222 q 361 1267 361 1253 l 361 1267 z m 131 1267 l 131 1289 q 137 1318 131 1303 q 154 1346 143 1333 q 182 1367 165 1358 q 221 1375 199 1375 l 221 1375 q 260 1367 243 1375 q 290 1346 278 1358 q 309 1318 303 1333 q 315 1289 315 1303 l 315 1289 l 315 1267 q 310 1238 315 1253 q 292 1210 304 1222 q 263 1189 281 1197 q 221 1181 244 1181 l 221 1181 q 181 1189 197 1181 q 153 1210 164 1197 q 136 1238 142 1222 q 131 1267 131 1253 l 131 1267 z "},"Ñ":{"ha":1269,"x_min":-4,"x_max":1299,"o":"m 349 1131 l 349 1131 q 455 1103 410 1131 q 533 1026 500 1075 q 585 912 565 978 q 618 769 606 846 l 618 769 q 663 913 636 846 q 728 1031 690 981 q 815 1111 765 1082 q 928 1140 864 1140 l 928 1140 q 1051 1088 1007 1140 q 1117 950 1096 1036 q 1142 754 1139 864 q 1141 531 1144 644 q 1132 307 1138 417 q 1131 111 1126 197 q 1156 -27 1136 25 q 1221 -79 1175 -79 l 1221 -79 q 1268 -68 1244 -79 l 1268 -68 q 1291 -72 1283 -61 q 1299 -99 1299 -83 q 1292 -128 1299 -114 q 1274 -143 1286 -143 l 1274 -143 q 1069 -99 1147 -147 q 948 33 990 -50 q 891 223 906 115 q 876 443 876 331 q 885 664 876 556 q 895 858 893 772 q 887 995 897 943 q 840 1047 876 1047 l 840 1047 q 781 1006 808 1047 q 731 902 753 965 q 693 762 710 839 q 665 611 676 685 q 647 476 654 538 q 639 386 640 415 l 639 386 q 632 167 638 269 q 624 -7 626 64 l 624 -7 q 587 -51 622 -36 q 510 -65 551 -65 l 510 -65 q 434 -52 468 -65 q 401 -14 400 -39 l 401 -14 q 405 73 403 13 q 409 213 407 133 q 412 387 411 293 q 408 574 413 481 q 395 755 404 668 q 369 908 386 842 q 326 1013 353 974 q 263 1051 300 1053 l 263 1051 q 192 1020 217 1050 q 160 944 168 990 q 156 844 151 899 q 173 735 161 789 q 201 638 185 682 q 232 569 218 593 l 232 569 q 238 520 247 546 q 206 474 228 494 q 158 440 185 453 q 113 426 132 426 l 113 426 q 90 436 96 426 l 90 436 q 38 550 61 481 q 5 698 14 619 q 6 856 -4 776 q 55 997 17 935 q 165 1097 93 1060 q 349 1131 236 1135 z m 490 1215 l 490 1215 q 528 1368 490 1314 q 633 1422 565 1422 l 633 1422 q 672 1415 649 1422 q 719 1399 694 1407 q 769 1383 744 1390 q 813 1375 794 1375 l 813 1375 q 839 1383 829 1375 q 849 1410 849 1390 l 849 1410 q 856 1424 849 1419 q 875 1429 864 1429 l 875 1429 q 911 1417 893 1429 q 929 1381 929 1404 l 929 1381 q 899 1269 929 1310 q 825 1229 868 1229 l 825 1229 q 783 1238 804 1229 q 742 1256 763 1246 q 700 1274 721 1265 q 658 1282 679 1282 l 658 1282 q 626 1271 639 1282 q 614 1233 614 1260 l 614 1233 q 606 1215 614 1224 q 586 1201 599 1207 q 559 1191 574 1194 q 531 1188 544 1188 l 531 1188 q 502 1194 514 1188 q 490 1215 490 1200 z "},"Ò":{"ha":965,"x_min":-1,"x_max":881,"o":"m 483 1174 l 483 1174 q 624 1151 564 1176 q 723 1083 683 1126 q 782 981 763 1039 q 803 860 801 924 l 803 860 q 863 689 846 783 q 874 497 881 594 q 836 303 867 399 q 753 132 806 208 q 627 4 701 56 q 458 -58 553 -47 l 458 -58 q 260 -26 346 -72 q 116 102 174 19 q 29 296 58 185 q -1 525 0 407 q 28 758 -1 643 q 118 964 58 872 q 269 1113 178 1056 q 483 1174 361 1171 z m 474 29 l 474 29 q 597 65 543 29 q 690 160 650 101 q 755 292 729 218 q 792 444 781 367 q 801 594 803 521 q 783 722 799 667 l 783 722 q 718 579 763 649 l 718 579 q 683 545 703 556 q 643 535 663 535 l 643 535 q 590 551 615 535 q 551 590 565 567 q 536 642 536 614 q 557 694 536 669 l 557 694 q 626 796 597 739 q 665 908 654 853 l 665 908 q 603 924 635 925 l 603 924 q 580 934 589 924 q 568 958 571 944 q 571 983 565 971 q 592 996 576 994 l 592 996 q 669 985 631 997 l 669 985 q 635 1063 664 1032 q 544 1096 607 1093 l 544 1096 q 424 1052 476 1097 q 337 933 372 1007 q 283 763 301 858 q 260 566 264 667 q 269 369 257 465 q 308 197 281 272 q 376 75 335 121 q 474 29 418 29 z m 343 1419 l 343 1419 q 350 1429 346 1426 l 350 1429 q 384 1450 361 1439 q 431 1469 407 1461 q 476 1479 456 1476 q 500 1476 496 1482 l 500 1476 q 524 1433 515 1451 q 542 1393 532 1414 q 569 1345 553 1372 q 619 1278 586 1318 l 619 1278 q 615 1259 624 1272 q 592 1235 607 1246 l 592 1235 q 569 1219 581 1225 q 551 1217 558 1214 l 551 1217 q 489 1246 526 1222 q 418 1299 451 1269 q 362 1362 385 1329 q 343 1419 339 1394 z "},"Ó":{"ha":965,"x_min":-1,"x_max":881,"o":"m 483 1174 l 483 1174 q 624 1151 564 1176 q 723 1083 683 1126 q 782 981 763 1039 q 803 860 801 924 l 803 860 q 863 689 846 783 q 874 497 881 594 q 836 303 867 399 q 753 132 806 208 q 627 4 701 56 q 458 -58 553 -47 l 458 -58 q 260 -26 346 -72 q 116 102 174 19 q 29 296 58 185 q -1 525 0 407 q 28 758 -1 643 q 118 964 58 872 q 269 1113 178 1056 q 483 1174 361 1171 z m 474 29 l 474 29 q 597 65 543 29 q 690 160 650 101 q 755 292 729 218 q 792 444 781 367 q 801 594 803 521 q 783 722 799 667 l 783 722 q 718 579 763 649 l 718 579 q 683 545 703 556 q 643 535 663 535 l 643 535 q 590 551 615 535 q 551 590 565 567 q 536 642 536 614 q 557 694 536 669 l 557 694 q 626 796 597 739 q 665 908 654 853 l 665 908 q 603 924 635 925 l 603 924 q 580 934 589 924 q 568 958 571 944 q 571 983 565 971 q 592 996 576 994 l 592 996 q 669 985 631 997 l 669 985 q 635 1063 664 1032 q 544 1096 607 1093 l 544 1096 q 424 1052 476 1097 q 337 933 372 1007 q 283 763 301 858 q 260 566 264 667 q 269 369 257 465 q 308 197 281 272 q 376 75 335 121 q 474 29 418 29 z m 344 1289 l 344 1289 q 394 1356 378 1329 q 422 1404 411 1383 q 440 1444 432 1425 q 464 1488 449 1463 l 464 1488 q 488 1490 468 1493 q 533 1480 508 1488 q 580 1461 557 1472 q 614 1440 603 1450 l 614 1440 q 621 1431 618 1438 l 621 1431 q 602 1373 625 1406 q 546 1310 579 1340 q 475 1257 513 1281 q 413 1228 438 1233 l 413 1228 q 394 1231 406 1225 q 372 1246 383 1236 l 372 1246 q 349 1270 357 1257 q 344 1289 340 1283 z "},"Ô":{"ha":965,"x_min":-1,"x_max":881,"o":"m 483 1174 l 483 1174 q 624 1151 564 1176 q 723 1083 683 1126 q 782 981 763 1039 q 803 860 801 924 l 803 860 q 863 689 846 783 q 874 497 881 594 q 836 303 867 399 q 753 132 806 208 q 627 4 701 56 q 458 -58 553 -47 l 458 -58 q 260 -26 346 -72 q 116 102 174 19 q 29 296 58 185 q -1 525 0 407 q 28 758 -1 643 q 118 964 58 872 q 269 1113 178 1056 q 483 1174 361 1171 z m 474 29 l 474 29 q 597 65 543 29 q 690 160 650 101 q 755 292 729 218 q 792 444 781 367 q 801 594 803 521 q 783 722 799 667 l 783 722 q 718 579 763 649 l 718 579 q 683 545 703 556 q 643 535 663 535 l 643 535 q 590 551 615 535 q 551 590 565 567 q 536 642 536 614 q 557 694 536 669 l 557 694 q 626 796 597 739 q 665 908 654 853 l 665 908 q 603 924 635 925 l 603 924 q 580 934 589 924 q 568 958 571 944 q 571 983 565 971 q 592 996 576 994 l 592 996 q 669 985 631 997 l 669 985 q 635 1063 664 1032 q 544 1096 607 1093 l 544 1096 q 424 1052 476 1097 q 337 933 372 1007 q 283 763 301 858 q 260 566 264 667 q 269 369 257 465 q 308 197 281 272 q 376 75 335 121 q 474 29 418 29 z m 276 1267 l 276 1267 q 328 1335 310 1307 q 360 1386 347 1364 q 383 1428 372 1408 q 410 1474 393 1449 l 410 1474 q 437 1487 415 1482 q 482 1492 458 1492 l 482 1492 q 525 1488 506 1492 q 550 1475 544 1483 l 550 1475 q 578 1430 567 1450 q 602 1387 589 1410 q 635 1335 615 1364 q 688 1267 654 1307 l 688 1267 q 683 1249 692 1263 q 661 1224 675 1236 l 661 1224 q 638 1208 650 1214 q 619 1206 626 1203 l 619 1206 q 587 1226 607 1208 q 547 1267 567 1243 q 508 1316 526 1290 q 481 1363 490 1342 l 481 1363 q 447 1313 465 1339 q 410 1263 428 1286 q 374 1224 392 1240 q 344 1206 357 1208 l 344 1206 q 326 1208 338 1203 q 304 1224 315 1214 l 304 1224 q 281 1249 289 1236 q 276 1267 272 1263 z "},"Õ":{"ha":965,"x_min":-1,"x_max":881,"o":"m 483 1174 l 483 1174 q 624 1151 564 1176 q 723 1083 683 1126 q 782 981 763 1039 q 803 860 801 924 l 803 860 q 863 689 846 783 q 874 497 881 594 q 836 303 867 399 q 753 132 806 208 q 627 4 701 56 q 458 -58 553 -47 l 458 -58 q 260 -26 346 -72 q 116 102 174 19 q 29 296 58 185 q -1 525 0 407 q 28 758 -1 643 q 118 964 58 872 q 269 1113 178 1056 q 483 1174 361 1171 z m 474 29 l 474 29 q 597 65 543 29 q 690 160 650 101 q 755 292 729 218 q 792 444 781 367 q 801 594 803 521 q 783 722 799 667 l 783 722 q 718 579 763 649 l 718 579 q 683 545 703 556 q 643 535 663 535 l 643 535 q 590 551 615 535 q 551 590 565 567 q 536 642 536 614 q 557 694 536 669 l 557 694 q 626 796 597 739 q 665 908 654 853 l 665 908 q 603 924 635 925 l 603 924 q 580 934 589 924 q 568 958 571 944 q 571 983 565 971 q 592 996 576 994 l 592 996 q 669 985 631 997 l 669 985 q 635 1063 664 1032 q 544 1096 607 1093 l 544 1096 q 424 1052 476 1097 q 337 933 372 1007 q 283 763 301 858 q 260 566 264 667 q 269 369 257 465 q 308 197 281 272 q 376 75 335 121 q 474 29 418 29 z m 275 1206 l 275 1206 q 313 1358 275 1304 q 418 1413 350 1413 l 418 1413 q 456 1405 433 1413 q 504 1389 479 1397 q 554 1373 529 1381 q 597 1365 579 1365 l 597 1365 q 624 1373 614 1365 q 633 1400 633 1381 l 633 1400 q 641 1415 633 1410 q 660 1419 649 1419 l 660 1419 q 696 1407 678 1419 q 714 1371 714 1394 l 714 1371 q 683 1260 714 1300 q 610 1219 653 1219 l 610 1219 q 568 1228 589 1219 q 526 1246 547 1236 q 485 1264 506 1256 q 443 1272 464 1272 l 443 1272 q 411 1261 424 1272 q 399 1224 399 1250 l 399 1224 q 391 1206 399 1214 q 371 1191 383 1197 q 344 1181 358 1185 q 315 1178 329 1178 l 315 1178 q 287 1184 299 1178 q 275 1206 275 1190 z "},"Ö":{"ha":965,"x_min":-1,"x_max":881,"o":"m 483 1174 l 483 1174 q 624 1151 564 1176 q 723 1083 683 1126 q 782 981 763 1039 q 803 860 801 924 l 803 860 q 863 689 846 783 q 874 497 881 594 q 836 303 867 399 q 753 132 806 208 q 627 4 701 56 q 458 -58 553 -47 l 458 -58 q 260 -26 346 -72 q 116 102 174 19 q 29 296 58 185 q -1 525 0 407 q 28 758 -1 643 q 118 964 58 872 q 269 1113 178 1056 q 483 1174 361 1171 z m 474 29 l 474 29 q 597 65 543 29 q 690 160 650 101 q 755 292 729 218 q 792 444 781 367 q 801 594 803 521 q 783 722 799 667 l 783 722 q 718 579 763 649 l 718 579 q 683 545 703 556 q 643 535 663 535 l 643 535 q 590 551 615 535 q 551 590 565 567 q 536 642 536 614 q 557 694 536 669 l 557 694 q 626 796 597 739 q 665 908 654 853 l 665 908 q 603 924 635 925 l 603 924 q 580 934 589 924 q 568 958 571 944 q 571 983 565 971 q 592 996 576 994 l 592 996 q 669 985 631 997 l 669 985 q 635 1063 664 1032 q 544 1096 607 1093 l 544 1096 q 424 1052 476 1097 q 337 933 372 1007 q 283 763 301 858 q 260 566 264 667 q 269 369 257 465 q 308 197 281 272 q 376 75 335 121 q 474 29 418 29 z m 518 1306 l 518 1328 q 524 1357 518 1342 q 542 1385 531 1372 q 570 1406 553 1397 q 610 1414 588 1414 l 610 1414 q 649 1406 632 1414 q 678 1385 667 1397 q 697 1357 690 1372 q 703 1328 703 1342 l 703 1328 l 703 1306 q 697 1276 703 1292 q 680 1249 692 1261 q 651 1228 668 1236 q 610 1219 633 1219 l 610 1219 q 569 1228 586 1219 q 540 1249 551 1236 q 524 1276 529 1261 q 518 1306 518 1292 l 518 1306 z m 288 1306 l 288 1328 q 294 1357 288 1342 q 311 1385 300 1372 q 339 1406 322 1397 q 378 1414 356 1414 l 378 1414 q 417 1406 400 1414 q 447 1385 435 1397 q 466 1357 460 1372 q 472 1328 472 1342 l 472 1328 l 472 1306 q 467 1276 472 1292 q 449 1249 461 1261 q 419 1228 438 1236 q 378 1219 401 1219 l 378 1219 q 338 1228 354 1219 q 310 1249 321 1236 q 293 1276 299 1261 q 288 1306 288 1292 l 288 1306 z "},"Ø":{"ha":965,"x_min":-6,"x_max":881,"o":"m 483 1174 l 483 1174 q 524 1172 504 1174 q 563 1168 544 1171 l 563 1168 l 581 1257 q 601 1299 581 1285 q 649 1314 622 1314 l 649 1314 q 691 1299 672 1314 q 710 1257 710 1285 l 710 1257 l 676 1122 q 769 1010 739 1079 q 803 860 800 940 l 803 860 q 863 689 846 783 q 874 497 881 594 q 836 303 867 399 q 753 132 806 208 q 627 4 701 56 q 458 -58 553 -47 l 458 -58 q 438 -60 447 -60 q 419 -60 429 -60 l 419 -60 l 400 -164 q 381 -197 400 -187 q 339 -207 363 -207 l 339 -207 q 292 -195 313 -207 q 271 -164 271 -183 l 271 -164 l 300 -43 q 156 51 217 -15 q 59 208 96 118 q 8 404 22 299 q 4 616 -6 510 q 49 822 14 722 q 143 998 83 921 q 288 1123 203 1075 q 483 1174 372 1171 z m 339 126 l 339 126 q 448 611 396 369 q 549 1096 500 853 l 549 1096 l 544 1096 q 415 1044 469 1097 q 326 906 361 992 q 274 713 290 821 q 259 497 257 604 q 281 290 261 389 q 339 126 301 192 z m 439 35 l 439 35 q 474 29 454 29 l 474 29 q 597 65 543 29 q 690 160 650 101 q 755 292 729 218 q 792 444 781 367 q 801 594 803 521 q 783 722 799 667 l 783 722 q 718 579 763 649 l 718 579 q 683 544 703 556 q 642 533 663 533 l 642 533 q 593 547 617 533 q 554 583 569 561 l 554 583 q 496 308 525 444 q 439 35 467 172 z m 665 908 l 665 908 q 631 921 650 917 l 631 921 q 609 827 619 874 q 588 733 599 781 l 588 733 q 636 819 615 774 q 665 908 657 864 z m 646 990 l 646 990 q 669 985 660 988 l 669 985 q 656 1033 665 1013 l 656 1033 q 651 1012 653 1022 q 646 990 649 1001 z "},"Ù":{"ha":1374,"x_min":-4,"x_max":1447,"o":"m 333 1131 l 333 1131 q 465 1087 415 1131 q 540 972 514 1043 q 575 808 567 900 q 583 621 583 717 q 577 433 582 525 q 572 271 572 342 q 582 156 572 200 q 619 114 592 113 l 619 114 q 706 170 667 115 q 778 312 746 225 q 836 504 811 399 q 879 710 861 610 q 908 896 897 811 q 922 1025 919 981 l 922 1025 q 942 1062 924 1044 q 987 1092 961 1079 q 1042 1113 1013 1106 q 1094 1121 1071 1121 l 1094 1121 q 1127 1115 1114 1121 q 1140 1093 1140 1108 l 1140 1093 l 1140 619 q 1140 537 1140 589 q 1142 424 1140 485 q 1149 299 1144 363 q 1165 186 1154 236 q 1192 105 1175 136 q 1235 75 1210 74 l 1235 75 q 1283 111 1261 78 q 1323 190 1306 144 q 1354 285 1340 236 q 1376 364 1368 333 l 1376 364 q 1401 378 1381 378 l 1401 378 q 1432 367 1417 378 q 1440 338 1447 357 l 1440 338 q 1407 224 1425 283 q 1363 115 1389 165 q 1301 29 1338 64 q 1213 -11 1265 -6 l 1213 -11 q 1100 -1 1147 -21 q 1022 61 1053 19 q 972 160 990 103 q 943 281 953 218 q 931 410 933 344 q 928 531 928 475 l 928 531 q 868 331 906 431 q 781 153 831 232 q 672 24 732 74 q 546 -25 613 -25 l 546 -25 q 440 22 478 -25 q 382 144 401 68 q 359 317 363 219 q 356 515 356 414 q 358 712 357 615 q 351 883 360 808 q 321 1003 343 958 q 251 1047 299 1049 l 251 1047 q 184 1015 207 1046 q 153 936 161 983 q 149 831 144 889 q 165 717 154 772 q 192 615 176 663 q 221 543 207 568 l 221 543 q 226 492 235 518 q 197 444 217 465 q 151 408 176 422 q 107 394 125 394 l 107 394 q 86 404 92 394 l 86 404 q 35 524 58 451 q 4 679 13 597 q 6 844 -4 761 q 52 991 15 926 q 157 1095 89 1056 q 333 1131 225 1135 z m 550 1333 l 550 1333 q 557 1343 553 1340 l 557 1343 q 591 1364 568 1353 q 638 1383 614 1375 q 683 1393 663 1390 q 707 1390 703 1396 l 707 1390 q 731 1347 722 1365 q 749 1307 739 1328 q 776 1259 760 1286 q 826 1192 793 1232 l 826 1192 q 822 1173 831 1186 q 799 1149 814 1160 l 799 1149 q 776 1133 788 1139 q 758 1131 765 1128 l 758 1131 q 696 1160 733 1136 q 625 1213 658 1183 q 569 1276 592 1243 q 550 1333 546 1308 z "},"Ú":{"ha":1374,"x_min":-4,"x_max":1447,"o":"m 333 1131 l 333 1131 q 465 1087 415 1131 q 540 972 514 1043 q 575 808 567 900 q 583 621 583 717 q 577 433 582 525 q 572 271 572 342 q 582 156 572 200 q 619 114 592 113 l 619 114 q 706 170 667 115 q 778 312 746 225 q 836 504 811 399 q 879 710 861 610 q 908 896 897 811 q 922 1025 919 981 l 922 1025 q 942 1062 924 1044 q 987 1092 961 1079 q 1042 1113 1013 1106 q 1094 1121 1071 1121 l 1094 1121 q 1127 1115 1114 1121 q 1140 1093 1140 1108 l 1140 1093 l 1140 619 q 1140 537 1140 589 q 1142 424 1140 485 q 1149 299 1144 363 q 1165 186 1154 236 q 1192 105 1175 136 q 1235 75 1210 74 l 1235 75 q 1283 111 1261 78 q 1323 190 1306 144 q 1354 285 1340 236 q 1376 364 1368 333 l 1376 364 q 1401 378 1381 378 l 1401 378 q 1432 367 1417 378 q 1440 338 1447 357 l 1440 338 q 1407 224 1425 283 q 1363 115 1389 165 q 1301 29 1338 64 q 1213 -11 1265 -6 l 1213 -11 q 1100 -1 1147 -21 q 1022 61 1053 19 q 972 160 990 103 q 943 281 953 218 q 931 410 933 344 q 928 531 928 475 l 928 531 q 868 331 906 431 q 781 153 831 232 q 672 24 732 74 q 546 -25 613 -25 l 546 -25 q 440 22 478 -25 q 382 144 401 68 q 359 317 363 219 q 356 515 356 414 q 358 712 357 615 q 351 883 360 808 q 321 1003 343 958 q 251 1047 299 1049 l 251 1047 q 184 1015 207 1046 q 153 936 161 983 q 149 831 144 889 q 165 717 154 772 q 192 615 176 663 q 221 543 207 568 l 221 543 q 226 492 235 518 q 197 444 217 465 q 151 408 176 422 q 107 394 125 394 l 107 394 q 86 404 92 394 l 86 404 q 35 524 58 451 q 4 679 13 597 q 6 844 -4 761 q 52 991 15 926 q 157 1095 89 1056 q 333 1131 225 1135 z m 546 1192 l 546 1192 q 596 1259 579 1232 q 623 1307 613 1286 q 642 1347 633 1328 q 665 1390 650 1365 l 665 1390 q 690 1393 669 1396 q 734 1383 710 1390 q 781 1364 758 1375 q 815 1343 804 1353 l 815 1343 q 822 1333 819 1340 l 822 1333 q 803 1276 826 1308 q 747 1213 781 1243 q 676 1160 714 1183 q 614 1131 639 1136 l 614 1131 q 596 1133 607 1128 q 574 1149 585 1139 l 574 1149 q 550 1173 558 1160 q 546 1192 542 1186 z "},"Û":{"ha":1374,"x_min":-4,"x_max":1447,"o":"m 333 1131 l 333 1131 q 465 1087 415 1131 q 540 972 514 1043 q 575 808 567 900 q 583 621 583 717 q 577 433 582 525 q 572 271 572 342 q 582 156 572 200 q 619 114 592 113 l 619 114 q 706 170 667 115 q 778 312 746 225 q 836 504 811 399 q 879 710 861 610 q 908 896 897 811 q 922 1025 919 981 l 922 1025 q 942 1062 924 1044 q 987 1092 961 1079 q 1042 1113 1013 1106 q 1094 1121 1071 1121 l 1094 1121 q 1127 1115 1114 1121 q 1140 1093 1140 1108 l 1140 1093 l 1140 619 q 1140 537 1140 589 q 1142 424 1140 485 q 1149 299 1144 363 q 1165 186 1154 236 q 1192 105 1175 136 q 1235 75 1210 74 l 1235 75 q 1283 111 1261 78 q 1323 190 1306 144 q 1354 285 1340 236 q 1376 364 1368 333 l 1376 364 q 1401 378 1381 378 l 1401 378 q 1432 367 1417 378 q 1440 338 1447 357 l 1440 338 q 1407 224 1425 283 q 1363 115 1389 165 q 1301 29 1338 64 q 1213 -11 1265 -6 l 1213 -11 q 1100 -1 1147 -21 q 1022 61 1053 19 q 972 160 990 103 q 943 281 953 218 q 931 410 933 344 q 928 531 928 475 l 928 531 q 868 331 906 431 q 781 153 831 232 q 672 24 732 74 q 546 -25 613 -25 l 546 -25 q 440 22 478 -25 q 382 144 401 68 q 359 317 363 219 q 356 515 356 414 q 358 712 357 615 q 351 883 360 808 q 321 1003 343 958 q 251 1047 299 1049 l 251 1047 q 184 1015 207 1046 q 153 936 161 983 q 149 831 144 889 q 165 717 154 772 q 192 615 176 663 q 221 543 207 568 l 221 543 q 226 492 235 518 q 197 444 217 465 q 151 408 176 422 q 107 394 125 394 l 107 394 q 86 404 92 394 l 86 404 q 35 524 58 451 q 4 679 13 597 q 6 844 -4 761 q 52 991 15 926 q 157 1095 89 1056 q 333 1131 225 1135 z m 508 1235 l 508 1235 q 560 1303 542 1275 q 592 1354 579 1332 q 615 1397 604 1376 q 642 1442 625 1417 l 642 1442 q 669 1455 647 1450 q 714 1460 690 1460 l 714 1460 q 757 1456 738 1460 q 782 1443 776 1451 l 782 1443 q 810 1398 799 1418 q 834 1355 821 1378 q 867 1303 847 1332 q 919 1235 886 1275 l 919 1235 q 915 1217 924 1231 q 893 1192 907 1204 l 893 1192 q 870 1176 882 1182 q 851 1174 858 1171 l 851 1174 q 819 1194 839 1176 q 778 1235 799 1211 q 740 1284 758 1258 q 713 1331 722 1310 l 713 1331 q 678 1281 697 1307 q 642 1231 660 1254 q 606 1192 624 1208 q 576 1174 589 1176 l 576 1174 q 558 1176 569 1171 q 536 1192 547 1182 l 536 1192 q 513 1217 521 1204 q 508 1235 504 1231 z "},"Ü":{"ha":1374,"x_min":-4,"x_max":1447,"o":"m 333 1131 l 333 1131 q 465 1087 415 1131 q 540 972 514 1043 q 575 808 567 900 q 583 621 583 717 q 577 433 582 525 q 572 271 572 342 q 582 156 572 200 q 619 114 592 113 l 619 114 q 706 170 667 115 q 778 312 746 225 q 836 504 811 399 q 879 710 861 610 q 908 896 897 811 q 922 1025 919 981 l 922 1025 q 942 1062 924 1044 q 987 1092 961 1079 q 1042 1113 1013 1106 q 1094 1121 1071 1121 l 1094 1121 q 1127 1115 1114 1121 q 1140 1093 1140 1108 l 1140 1093 l 1140 619 q 1140 537 1140 589 q 1142 424 1140 485 q 1149 299 1144 363 q 1165 186 1154 236 q 1192 105 1175 136 q 1235 75 1210 74 l 1235 75 q 1283 111 1261 78 q 1323 190 1306 144 q 1354 285 1340 236 q 1376 364 1368 333 l 1376 364 q 1401 378 1381 378 l 1401 378 q 1432 367 1417 378 q 1440 338 1447 357 l 1440 338 q 1407 224 1425 283 q 1363 115 1389 165 q 1301 29 1338 64 q 1213 -11 1265 -6 l 1213 -11 q 1100 -1 1147 -21 q 1022 61 1053 19 q 972 160 990 103 q 943 281 953 218 q 931 410 933 344 q 928 531 928 475 l 928 531 q 868 331 906 431 q 781 153 831 232 q 672 24 732 74 q 546 -25 613 -25 l 546 -25 q 440 22 478 -25 q 382 144 401 68 q 359 317 363 219 q 356 515 356 414 q 358 712 357 615 q 351 883 360 808 q 321 1003 343 958 q 251 1047 299 1049 l 251 1047 q 184 1015 207 1046 q 153 936 161 983 q 149 831 144 889 q 165 717 154 772 q 192 615 176 663 q 221 543 207 568 l 221 543 q 226 492 235 518 q 197 444 217 465 q 151 408 176 422 q 107 394 125 394 l 107 394 q 86 404 92 394 l 86 404 q 35 524 58 451 q 4 679 13 597 q 6 844 -4 761 q 52 991 15 926 q 157 1095 89 1056 q 333 1131 225 1135 z m 718 1267 l 718 1289 q 724 1318 718 1303 q 742 1346 731 1333 q 770 1367 753 1358 q 810 1375 788 1375 l 810 1375 q 849 1367 832 1375 q 878 1346 867 1358 q 897 1318 890 1333 q 903 1289 903 1303 l 903 1289 l 903 1267 q 897 1238 903 1253 q 880 1210 892 1222 q 851 1189 868 1197 q 810 1181 833 1181 l 810 1181 q 769 1189 786 1181 q 740 1210 751 1197 q 724 1238 729 1222 q 718 1267 718 1253 l 718 1267 z m 488 1267 l 488 1267 l 488 1289 q 494 1318 488 1303 q 511 1346 500 1333 q 539 1367 522 1358 q 578 1375 556 1375 l 578 1375 q 617 1367 600 1375 q 647 1346 635 1358 q 666 1318 660 1333 q 672 1289 672 1303 l 672 1289 l 672 1267 q 667 1238 672 1253 q 649 1210 661 1222 q 619 1189 638 1197 q 578 1181 601 1181 l 578 1181 q 538 1189 554 1181 q 510 1210 521 1197 q 493 1238 499 1222 q 488 1267 488 1253 z "},"Ý":{"ha":1272,"x_min":-4,"x_max":1142,"o":"m 333 1131 l 333 1131 q 465 1090 415 1131 q 543 985 515 1050 q 581 836 571 919 q 594 666 592 753 q 593 495 596 579 q 592 347 590 411 q 604 242 593 282 q 643 203 615 203 l 643 203 q 728 253 690 204 q 795 378 765 301 q 847 549 825 454 q 885 734 869 643 q 910 903 901 825 q 922 1025 918 981 l 922 1025 q 942 1062 924 1044 q 987 1092 961 1079 q 1042 1113 1013 1106 q 1094 1121 1071 1121 l 1094 1121 q 1127 1115 1114 1121 q 1140 1093 1140 1108 l 1140 1093 q 1141 849 1140 981 q 1140 585 1142 718 q 1135 324 1139 451 q 1121 90 1131 196 l 1121 90 q 1103 -53 1114 18 q 1074 -190 1093 -125 q 1026 -311 1056 -256 q 949 -408 996 -367 q 838 -474 903 -450 q 683 -500 772 -499 l 683 -500 q 533 -476 599 -501 q 423 -408 468 -451 q 353 -310 378 -365 q 326 -198 329 -256 q 342 -84 322 -140 q 404 15 361 -28 l 404 15 q 432 24 413 24 l 432 24 q 477 15 451 24 q 528 -8 503 7 q 576 -42 554 -22 q 608 -85 597 -62 q 617 -131 619 -107 q 590 -176 614 -154 l 590 -176 q 540 -250 556 -210 q 527 -326 524 -290 q 553 -387 531 -362 q 619 -411 576 -411 l 619 -411 q 738 -376 689 -411 q 819 -283 786 -340 q 873 -153 853 -225 q 905 -7 893 -81 q 921 133 917 67 q 926 247 925 200 l 926 247 l 926 521 q 870 339 904 422 q 792 194 836 256 q 692 99 747 133 q 569 64 636 64 l 569 64 q 462 106 501 64 q 401 219 422 149 q 375 378 381 289 q 368 559 369 467 q 366 740 367 651 q 355 898 365 829 q 322 1008 344 967 q 251 1047 299 1049 l 251 1047 q 184 1015 207 1046 q 153 936 161 983 q 149 831 144 889 q 165 717 154 772 q 192 615 176 663 q 221 543 207 568 l 221 543 q 226 492 235 518 q 197 444 217 465 q 151 408 176 422 q 107 394 125 394 l 107 394 q 86 404 92 394 l 86 404 q 35 524 58 451 q 4 679 13 597 q 6 844 -4 761 q 52 991 15 926 q 157 1095 89 1056 q 333 1131 225 1135 z m 590 1238 l 590 1238 q 640 1305 624 1278 q 667 1353 657 1332 q 686 1392 678 1374 q 710 1436 694 1411 l 710 1436 q 734 1439 714 1442 q 778 1428 754 1436 q 826 1410 803 1421 q 860 1389 849 1399 l 860 1389 q 867 1379 864 1386 l 867 1379 q 848 1322 871 1354 q 792 1259 825 1289 q 721 1206 758 1229 q 658 1176 683 1182 l 658 1176 q 640 1179 651 1174 q 618 1194 629 1185 l 618 1194 q 594 1219 603 1206 q 590 1238 586 1232 z "},"à":{"ha":883,"x_min":-6,"x_max":957,"o":"m 306 728 l 306 728 q 349 720 325 728 q 394 699 372 713 q 435 669 417 686 q 461 632 453 651 l 461 632 q 451 610 467 619 q 419 601 436 601 l 419 601 q 394 613 400 601 l 394 613 q 370 638 388 628 q 333 647 353 647 l 333 647 q 270 605 294 646 q 233 502 246 564 q 219 369 221 440 q 225 237 218 297 q 247 135 232 176 q 279 96 261 94 l 279 96 q 319 122 300 97 q 356 187 339 147 q 387 276 372 226 q 413 374 401 325 q 433 465 425 422 q 446 536 442 508 l 446 536 l 446 551 q 457 573 446 564 q 485 589 468 582 q 522 599 501 596 q 564 603 543 603 l 564 603 q 628 591 600 603 q 656 551 657 579 l 656 551 q 652 472 654 519 q 651 372 650 424 q 656 269 651 319 q 669 177 660 218 q 697 113 679 136 q 740 90 714 89 l 740 90 q 789 124 767 93 q 830 198 811 156 q 863 287 849 240 q 886 364 878 333 l 886 364 q 911 378 890 378 l 911 378 q 942 367 926 378 q 950 338 957 357 l 950 338 q 914 217 933 278 q 865 109 894 157 q 788 31 835 61 q 671 0 742 0 l 671 0 q 582 19 619 0 q 519 69 544 38 q 478 142 493 100 q 456 231 464 183 l 456 231 q 419 144 440 185 q 372 72 399 103 q 312 21 346 40 q 236 0 278 1 l 236 0 q 122 28 169 -3 q 46 113 75 60 q 6 235 17 167 q 1 374 -6 303 q 29 513 7 446 q 90 631 51 581 q 182 708 128 681 q 306 728 236 736 z m 306 982 l 306 982 q 313 992 308 989 l 313 992 q 347 1013 324 1001 q 394 1031 369 1024 q 438 1042 418 1039 q 463 1039 458 1044 l 463 1039 q 486 995 478 1014 q 505 956 494 976 q 532 908 515 935 q 582 840 549 881 l 582 840 q 578 822 586 835 q 554 797 569 808 l 554 797 q 532 782 543 788 q 514 779 521 776 l 514 779 q 451 808 489 785 q 381 862 414 832 q 324 924 347 892 q 306 982 301 957 z "},"á":{"ha":883,"x_min":-6,"x_max":957,"o":"m 306 728 l 306 728 q 349 720 325 728 q 394 699 372 713 q 435 669 417 686 q 461 632 453 651 l 461 632 q 451 610 467 619 q 419 601 436 601 l 419 601 q 394 613 400 601 l 394 613 q 370 638 388 628 q 333 647 353 647 l 333 647 q 270 605 294 646 q 233 502 246 564 q 219 369 221 440 q 225 237 218 297 q 247 135 232 176 q 279 96 261 94 l 279 96 q 319 122 300 97 q 356 187 339 147 q 387 276 372 226 q 413 374 401 325 q 433 465 425 422 q 446 536 442 508 l 446 536 l 446 551 q 457 573 446 564 q 485 589 468 582 q 522 599 501 596 q 564 603 543 603 l 564 603 q 628 591 600 603 q 656 551 657 579 l 656 551 q 652 472 654 519 q 651 372 650 424 q 656 269 651 319 q 669 177 660 218 q 697 113 679 136 q 740 90 714 89 l 740 90 q 789 124 767 93 q 830 198 811 156 q 863 287 849 240 q 886 364 878 333 l 886 364 q 911 378 890 378 l 911 378 q 942 367 926 378 q 950 338 957 357 l 950 338 q 914 217 933 278 q 865 109 894 157 q 788 31 835 61 q 671 0 742 0 l 671 0 q 582 19 619 0 q 519 69 544 38 q 478 142 493 100 q 456 231 464 183 l 456 231 q 419 144 440 185 q 372 72 399 103 q 312 21 346 40 q 236 0 278 1 l 236 0 q 122 28 169 -3 q 46 113 75 60 q 6 235 17 167 q 1 374 -6 303 q 29 513 7 446 q 90 631 51 581 q 182 708 128 681 q 306 728 236 736 z m 301 825 l 301 825 q 351 892 335 865 q 378 940 368 919 q 397 980 389 961 q 421 1024 406 999 l 421 1024 q 445 1026 425 1029 q 490 1016 465 1024 q 537 997 514 1008 q 571 976 560 986 l 571 976 q 578 967 575 974 l 578 967 q 559 909 582 942 q 503 847 536 876 q 432 793 469 817 q 369 764 394 769 l 369 764 q 351 767 363 761 q 329 782 340 772 l 329 782 q 306 806 314 793 q 301 825 297 819 z "},"â":{"ha":883,"x_min":-6,"x_max":957,"o":"m 306 728 l 306 728 q 349 720 325 728 q 394 699 372 713 q 435 669 417 686 q 461 632 453 651 l 461 632 q 451 610 467 619 q 419 601 436 601 l 419 601 q 394 613 400 601 l 394 613 q 370 638 388 628 q 333 647 353 647 l 333 647 q 270 605 294 646 q 233 502 246 564 q 219 369 221 440 q 225 237 218 297 q 247 135 232 176 q 279 96 261 94 l 279 96 q 319 122 300 97 q 356 187 339 147 q 387 276 372 226 q 413 374 401 325 q 433 465 425 422 q 446 536 442 508 l 446 536 l 446 551 q 457 573 446 564 q 485 589 468 582 q 522 599 501 596 q 564 603 543 603 l 564 603 q 628 591 600 603 q 656 551 657 579 l 656 551 q 652 472 654 519 q 651 372 650 424 q 656 269 651 319 q 669 177 660 218 q 697 113 679 136 q 740 90 714 89 l 740 90 q 789 124 767 93 q 830 198 811 156 q 863 287 849 240 q 886 364 878 333 l 886 364 q 911 378 890 378 l 911 378 q 942 367 926 378 q 950 338 957 357 l 950 338 q 914 217 933 278 q 865 109 894 157 q 788 31 835 61 q 671 0 742 0 l 671 0 q 582 19 619 0 q 519 69 544 38 q 478 142 493 100 q 456 231 464 183 l 456 231 q 419 144 440 185 q 372 72 399 103 q 312 21 346 40 q 236 0 278 1 l 236 0 q 122 28 169 -3 q 46 113 75 60 q 6 235 17 167 q 1 374 -6 303 q 29 513 7 446 q 90 631 51 581 q 182 708 128 681 q 306 728 236 736 z m 236 829 l 236 829 q 288 898 269 869 q 319 949 307 926 q 342 991 332 971 q 369 1036 353 1011 l 369 1036 q 397 1049 375 1044 q 442 1054 418 1054 l 442 1054 q 485 1050 465 1054 q 510 1038 504 1046 l 510 1038 q 538 992 526 1013 q 562 949 549 972 q 594 898 575 926 q 647 829 614 869 l 647 829 q 643 812 651 825 q 621 786 635 799 l 621 786 q 598 771 610 776 q 579 768 586 765 l 579 768 q 547 788 567 771 q 506 829 526 806 q 468 878 486 853 q 440 925 450 904 l 440 925 q 406 875 425 901 q 369 826 388 849 q 334 787 351 803 q 304 768 317 771 l 304 768 q 286 771 297 765 q 264 786 275 776 l 264 786 q 240 812 249 799 q 236 829 232 825 z "},"ã":{"ha":883,"x_min":-6,"x_max":957,"o":"m 306 728 l 306 728 q 349 720 325 728 q 394 699 372 713 q 435 669 417 686 q 461 632 453 651 l 461 632 q 451 610 467 619 q 419 601 436 601 l 419 601 q 394 613 400 601 l 394 613 q 370 638 388 628 q 333 647 353 647 l 333 647 q 270 605 294 646 q 233 502 246 564 q 219 369 221 440 q 225 237 218 297 q 247 135 232 176 q 279 96 261 94 l 279 96 q 319 122 300 97 q 356 187 339 147 q 387 276 372 226 q 413 374 401 325 q 433 465 425 422 q 446 536 442 508 l 446 536 l 446 551 q 457 573 446 564 q 485 589 468 582 q 522 599 501 596 q 564 603 543 603 l 564 603 q 628 591 600 603 q 656 551 657 579 l 656 551 q 652 472 654 519 q 651 372 650 424 q 656 269 651 319 q 669 177 660 218 q 697 113 679 136 q 740 90 714 89 l 740 90 q 789 124 767 93 q 830 198 811 156 q 863 287 849 240 q 886 364 878 333 l 886 364 q 911 378 890 378 l 911 378 q 942 367 926 378 q 950 338 957 357 l 950 338 q 914 217 933 278 q 865 109 894 157 q 788 31 835 61 q 671 0 742 0 l 671 0 q 582 19 619 0 q 519 69 544 38 q 478 142 493 100 q 456 231 464 183 l 456 231 q 419 144 440 185 q 372 72 399 103 q 312 21 346 40 q 236 0 278 1 l 236 0 q 122 28 169 -3 q 46 113 75 60 q 6 235 17 167 q 1 374 -6 303 q 29 513 7 446 q 90 631 51 581 q 182 708 128 681 q 306 728 236 736 z m 222 794 l 222 794 q 260 947 222 893 q 365 1001 297 1001 l 365 1001 q 403 994 381 1001 q 451 978 426 986 q 501 962 476 969 q 544 954 526 954 l 544 954 q 571 962 561 954 q 581 989 581 969 l 581 989 q 588 1003 581 999 q 607 1008 596 1008 l 607 1008 q 643 996 625 1008 q 661 960 661 983 l 661 960 q 631 849 661 889 q 557 808 600 808 l 557 808 q 515 817 536 808 q 474 835 494 825 q 432 853 453 844 q 390 861 411 861 l 390 861 q 358 850 371 861 q 346 813 346 839 l 346 813 q 338 794 346 803 q 318 780 331 786 q 291 770 306 774 q 263 767 276 767 l 263 767 q 234 773 246 767 q 222 794 222 779 z "},"ä":{"ha":883,"x_min":-6,"x_max":957,"o":"m 306 728 l 306 728 q 349 720 325 728 q 394 699 372 713 q 435 669 417 686 q 461 632 453 651 l 461 632 q 451 610 467 619 q 419 601 436 601 l 419 601 q 394 613 400 601 l 394 613 q 370 638 388 628 q 333 647 353 647 l 333 647 q 270 605 294 646 q 233 502 246 564 q 219 369 221 440 q 225 237 218 297 q 247 135 232 176 q 279 96 261 94 l 279 96 q 319 122 300 97 q 356 187 339 147 q 387 276 372 226 q 413 374 401 325 q 433 465 425 422 q 446 536 442 508 l 446 536 l 446 551 q 457 573 446 564 q 485 589 468 582 q 522 599 501 596 q 564 603 543 603 l 564 603 q 628 591 600 603 q 656 551 657 579 l 656 551 q 652 472 654 519 q 651 372 650 424 q 656 269 651 319 q 669 177 660 218 q 697 113 679 136 q 740 90 714 89 l 740 90 q 789 124 767 93 q 830 198 811 156 q 863 287 849 240 q 886 364 878 333 l 886 364 q 911 378 890 378 l 911 378 q 942 367 926 378 q 950 338 957 357 l 950 338 q 914 217 933 278 q 865 109 894 157 q 788 31 835 61 q 671 0 742 0 l 671 0 q 582 19 619 0 q 519 69 544 38 q 478 142 493 100 q 456 231 464 183 l 456 231 q 419 144 440 185 q 372 72 399 103 q 312 21 346 40 q 236 0 278 1 l 236 0 q 122 28 169 -3 q 46 113 75 60 q 6 235 17 167 q 1 374 -6 303 q 29 513 7 446 q 90 631 51 581 q 182 708 128 681 q 306 728 236 736 z m 426 863 l 426 885 q 433 914 426 899 q 450 942 439 929 q 478 963 461 954 q 518 971 496 971 l 518 971 q 558 963 540 971 q 587 942 575 954 q 605 914 599 929 q 611 885 611 899 l 611 885 l 611 863 q 606 833 611 849 q 588 806 600 818 q 559 785 576 793 q 518 776 542 776 l 518 776 q 477 785 494 776 q 449 806 460 793 q 432 833 438 818 q 426 863 426 849 l 426 863 z m 196 863 l 196 885 q 202 914 196 899 q 219 942 208 929 q 247 963 231 954 q 286 971 264 971 l 286 971 q 326 963 308 971 q 356 942 343 954 q 374 914 368 929 q 381 885 381 899 l 381 885 l 381 863 q 375 833 381 849 q 358 806 369 818 q 328 785 346 793 q 286 776 310 776 l 286 776 q 246 785 263 776 q 218 806 229 793 q 201 833 207 818 q 196 863 196 849 l 196 863 z "},"å":{"ha":883,"x_min":-6,"x_max":957,"o":"m 306 728 l 306 728 q 349 720 325 728 q 394 699 372 713 q 435 669 417 686 q 461 632 453 651 l 461 632 q 451 610 467 619 q 419 601 436 601 l 419 601 q 394 613 400 601 l 394 613 q 370 638 388 628 q 333 647 353 647 l 333 647 q 270 605 294 646 q 233 502 246 564 q 219 369 221 440 q 225 237 218 297 q 247 135 232 176 q 279 96 261 94 l 279 96 q 319 122 300 97 q 356 187 339 147 q 387 276 372 226 q 413 374 401 325 q 433 465 425 422 q 446 536 442 508 l 446 536 l 446 551 q 457 573 446 564 q 485 589 468 582 q 522 599 501 596 q 564 603 543 603 l 564 603 q 628 591 600 603 q 656 551 657 579 l 656 551 q 652 472 654 519 q 651 372 650 424 q 656 269 651 319 q 669 177 660 218 q 697 113 679 136 q 740 90 714 89 l 740 90 q 789 124 767 93 q 830 198 811 156 q 863 287 849 240 q 886 364 878 333 l 886 364 q 911 378 890 378 l 911 378 q 942 367 926 378 q 950 338 957 357 l 950 338 q 914 217 933 278 q 865 109 894 157 q 788 31 835 61 q 671 0 742 0 l 671 0 q 582 19 619 0 q 519 69 544 38 q 478 142 493 100 q 456 231 464 183 l 456 231 q 419 144 440 185 q 372 72 399 103 q 312 21 346 40 q 236 0 278 1 l 236 0 q 122 28 169 -3 q 46 113 75 60 q 6 235 17 167 q 1 374 -6 303 q 29 513 7 446 q 90 631 51 581 q 182 708 128 681 q 306 728 236 736 z m 393 1050 l 393 1050 q 449 1042 419 1050 q 503 1018 478 1035 q 547 974 529 1001 q 568 907 565 946 l 568 907 q 556 839 571 867 q 519 794 542 811 q 467 768 496 776 q 413 760 439 760 l 413 760 q 358 767 388 760 q 303 792 328 775 q 260 838 278 810 q 239 904 242 865 l 239 904 q 251 971 236 943 q 288 1016 265 999 q 340 1042 311 1033 q 393 1050 368 1050 z m 285 897 l 285 897 q 301 874 286 882 q 337 862 317 865 q 377 858 357 858 q 406 860 397 858 l 406 860 q 435 863 415 860 q 474 873 454 867 q 508 890 493 879 q 521 914 522 900 l 521 914 q 504 937 519 929 q 469 948 489 944 q 429 951 449 951 q 400 951 410 951 l 400 951 q 371 947 390 950 q 332 938 351 944 q 298 922 313 932 q 285 897 283 913 z "},"è":{"ha":588,"x_min":-7,"x_max":661,"o":"m 286 731 l 286 731 q 399 699 356 731 q 458 621 442 668 q 468 517 475 574 q 431 408 461 460 q 347 318 400 357 q 221 267 294 279 l 221 267 q 234 194 225 228 q 256 134 243 160 q 288 94 269 108 q 332 79 307 79 l 332 79 q 415 106 375 79 q 490 175 456 133 q 551 267 525 217 q 590 364 576 317 l 590 364 q 615 378 594 378 l 615 378 q 646 367 631 378 q 656 338 661 357 l 656 338 q 602 204 635 267 q 522 94 569 142 q 412 19 475 47 q 267 -8 349 -8 l 267 -8 q 106 47 167 -8 q 19 183 44 101 q 0 361 -7 265 q 42 539 7 457 q 140 676 78 621 q 286 731 203 731 z m 157 965 l 157 965 q 164 975 160 972 l 164 975 q 198 996 175 985 q 245 1015 221 1007 q 290 1025 269 1022 q 314 1022 310 1028 l 314 1022 q 338 978 329 997 q 356 939 346 960 q 383 891 367 918 q 433 824 400 864 l 433 824 q 429 805 438 818 q 406 781 421 792 l 406 781 q 383 765 394 771 q 365 763 372 760 l 365 763 q 303 792 340 768 q 232 845 265 815 q 176 908 199 875 q 157 965 153 940 z m 218 339 l 218 339 q 286 374 258 347 q 331 435 314 400 q 357 507 349 469 q 365 576 365 544 q 356 627 364 607 q 335 647 349 647 l 335 647 q 287 619 308 647 q 250 548 265 592 q 226 449 235 504 q 218 339 218 394 z "},"é":{"ha":588,"x_min":-7,"x_max":661,"o":"m 286 731 l 286 731 q 399 699 356 731 q 458 621 442 668 q 468 517 475 574 q 431 408 461 460 q 347 318 400 357 q 221 267 294 279 l 221 267 q 234 194 225 228 q 256 134 243 160 q 288 94 269 108 q 332 79 307 79 l 332 79 q 415 106 375 79 q 490 175 456 133 q 551 267 525 217 q 590 364 576 317 l 590 364 q 615 378 594 378 l 615 378 q 646 367 631 378 q 656 338 661 357 l 656 338 q 602 204 635 267 q 522 94 569 142 q 412 19 475 47 q 267 -8 349 -8 l 267 -8 q 106 47 167 -8 q 19 183 44 101 q 0 361 -7 265 q 42 539 7 457 q 140 676 78 621 q 286 731 203 731 z m 169 832 l 169 832 q 219 899 203 872 q 247 947 236 926 q 265 987 257 968 q 289 1031 274 1006 l 289 1031 q 313 1033 293 1036 q 358 1023 333 1031 q 405 1004 382 1015 q 439 983 428 993 l 439 983 q 446 974 443 981 l 446 974 q 427 916 450 949 q 371 853 404 883 q 300 800 338 824 q 238 771 263 776 l 238 771 q 219 774 231 768 q 197 789 208 779 l 197 789 q 174 813 182 800 q 169 832 165 826 z m 335 647 l 335 647 q 287 619 308 647 q 250 548 265 592 q 226 449 235 504 q 218 339 218 394 l 218 339 q 286 374 258 347 q 331 435 314 400 q 357 507 349 469 q 365 576 365 544 q 356 627 364 607 q 335 647 349 647 z "},"ê":{"ha":588,"x_min":-7,"x_max":661,"o":"m 286 731 l 286 731 q 399 699 356 731 q 458 621 442 668 q 468 517 475 574 q 431 408 461 460 q 347 318 400 357 q 221 267 294 279 l 221 267 q 234 194 225 228 q 256 134 243 160 q 288 94 269 108 q 332 79 307 79 l 332 79 q 415 106 375 79 q 490 175 456 133 q 551 267 525 217 q 590 364 576 317 l 590 364 q 615 378 594 378 l 615 378 q 646 367 631 378 q 656 338 661 357 l 656 338 q 602 204 635 267 q 522 94 569 142 q 412 19 475 47 q 267 -8 349 -8 l 267 -8 q 106 47 167 -8 q 19 183 44 101 q 0 361 -7 265 q 42 539 7 457 q 140 676 78 621 q 286 731 203 731 z m 85 815 l 85 815 q 137 884 118 856 q 168 935 156 913 q 191 977 181 957 q 218 1022 201 997 l 218 1022 q 245 1035 224 1031 q 290 1040 267 1040 l 290 1040 q 333 1036 314 1040 q 358 1024 353 1032 l 358 1024 q 386 978 375 999 q 410 935 397 958 q 443 884 424 913 q 496 815 463 856 l 496 815 q 492 798 500 811 q 469 772 483 785 l 469 772 q 447 757 458 763 q 428 754 435 751 l 428 754 q 395 774 415 757 q 355 815 375 792 q 317 865 335 839 q 289 911 299 890 l 289 911 q 255 861 274 888 q 218 812 236 835 q 183 773 200 789 q 153 754 165 757 l 153 754 q 135 757 146 751 q 113 772 124 763 l 113 772 q 89 798 97 785 q 85 815 81 811 z m 335 647 l 335 647 q 287 619 308 647 q 250 548 265 592 q 226 449 235 504 q 218 339 218 394 l 218 339 q 286 374 258 347 q 331 435 314 400 q 357 507 349 469 q 365 576 365 544 q 356 627 364 607 q 335 647 349 647 z "},"ë":{"ha":588,"x_min":-7,"x_max":661,"o":"m 286 731 l 286 731 q 399 699 356 731 q 458 621 442 668 q 468 517 475 574 q 431 408 461 460 q 347 318 400 357 q 221 267 294 279 l 221 267 q 234 194 225 228 q 256 134 243 160 q 288 94 269 108 q 332 79 307 79 l 332 79 q 415 106 375 79 q 490 175 456 133 q 551 267 525 217 q 590 364 576 317 l 590 364 q 615 378 594 378 l 615 378 q 646 367 631 378 q 656 338 661 357 l 656 338 q 602 204 635 267 q 522 94 569 142 q 412 19 475 47 q 267 -8 349 -8 l 267 -8 q 106 47 167 -8 q 19 183 44 101 q 0 361 -7 265 q 42 539 7 457 q 140 676 78 621 q 286 731 203 731 z m 218 339 l 218 339 q 286 374 258 347 q 331 435 314 400 q 357 507 349 469 q 365 576 365 544 q 356 627 364 607 q 335 647 349 647 l 335 647 q 287 619 308 647 q 250 548 265 592 q 226 449 235 504 q 218 339 218 394 z m 332 857 l 332 879 q 338 908 332 893 q 356 936 344 924 q 384 957 367 949 q 424 965 401 965 l 424 965 q 463 957 446 965 q 492 936 481 949 q 510 908 504 924 q 517 879 517 893 l 517 879 l 517 857 q 511 828 517 843 q 494 800 506 813 q 465 779 482 788 q 424 771 447 771 l 424 771 q 383 779 400 771 q 354 800 365 788 q 338 828 343 813 q 332 857 332 843 l 332 857 z m 101 857 l 101 857 l 101 879 q 108 908 101 893 q 125 936 114 924 q 153 957 136 949 q 192 965 169 965 l 192 965 q 231 957 214 965 q 261 936 249 949 q 280 908 274 924 q 286 879 286 893 l 286 879 l 286 857 q 281 828 286 843 q 263 800 275 813 q 233 779 251 788 q 192 771 215 771 l 192 771 q 151 779 168 771 q 124 800 135 788 q 107 828 113 813 q 101 857 101 843 z "}}}
